<svg width="30" height="24" viewBox="0 0 30 24" fill="none" xmlns="http://www.w3.org/2000/svg">
<path d="M22.0312 16.9688C22.6406 17.5312 22.6406 18.5156 22.0312 19.0781C21.75 19.3594 21.375 19.5 21 19.5C20.5781 19.5 20.2031 19.3594 19.9219 19.0781L15 14.1562L10.0312 19.0781C9.75 19.3594 9.375 19.5 9 19.5C8.57812 19.5 8.20312 19.3594 7.92188 19.0781C7.3125 18.5156 7.3125 17.5312 7.92188 16.9688L12.8438 12L7.92188 7.07812C7.3125 6.51562 7.3125 5.53125 7.92188 4.96875C8.48438 4.35938 9.46875 4.35938 10.0312 4.96875L15 9.89062L19.9219 4.96875C20.4844 4.35938 21.4688 4.35938 22.0312 4.96875C22.6406 5.53125 22.6406 6.51562 22.0312 7.07812L17.1094 12.0469L22.0312 16.9688Z" fill="#202020"/>
</svg>
