<svg width="156" height="156" viewBox="0 0 156 156" fill="none" xmlns="http://www.w3.org/2000/svg">
<g filter="url(#filter0_d_70_125471)">
<rect x="18" y="3" width="120" height="120" rx="60" fill="white" shape-rendering="crispEdges"/>
<path d="M77.9993 86.4363C90.9434 86.4363 101.437 75.943 101.437 62.9988C101.437 50.0546 90.9434 39.5613 77.9993 39.5613C65.0551 39.5613 54.5618 50.0546 54.5618 62.9988C54.5618 75.943 65.0551 86.4363 77.9993 86.4363Z" fill="#988430"/>
<path d="M77.9992 85.6853C90.5288 85.6853 100.686 75.5281 100.686 62.9985C100.686 50.469 90.5288 40.3118 77.9992 40.3118C65.4697 40.3118 55.3125 50.469 55.3125 62.9985C55.3125 75.5281 65.4697 85.6853 77.9992 85.6853Z" fill="#7A6A2A"/>
<path d="M77.9993 85.208C90.2648 85.208 100.208 75.2648 100.208 62.9993C100.208 50.7337 90.2648 40.7905 77.9993 40.7905C65.7337 40.7905 55.7905 50.7337 55.7905 62.9993C55.7905 75.2648 65.7337 85.208 77.9993 85.208Z" fill="#BA9F33"/>
<path fill-rule="evenodd" clip-rule="evenodd" d="M64.8091 60.4956C64.6763 60.3743 64.5361 60.2528 64.4071 60.1316C64.2781 60.0103 64.1456 59.8888 64.0128 59.7676L63.6183 59.3926C63.5538 59.3281 63.4856 59.2713 63.4211 59.2066C63.3566 59.1498 63.2808 59.0853 63.2163 59.0283C62.6928 58.5316 62.1663 58.0348 61.6501 57.5378C62.1848 58.0271 62.7083 58.5128 63.2431 59.0093L63.4288 59.1953C63.4933 59.2596 63.5616 59.3166 63.6261 59.3811L64.0203 59.7451C64.1531 59.8663 64.2821 59.9878 64.4148 60.1201C64.5476 60.2523 64.6766 60.3741 64.8093 60.4951L64.8091 60.4956ZM57.8613 60.4206C57.8613 60.4206 59.7651 60.6176 60.6943 60.7503C61.5551 60.8718 64.2478 61.2851 64.2478 61.2851L57.8613 60.4206ZM57.8613 60.4206C58.3961 60.4661 58.9308 60.5228 59.4656 60.5798C59.7386 60.6063 60.0003 60.6366 60.2621 60.6631L60.6638 60.7088C60.7966 60.7276 60.9256 60.7466 61.0583 60.7656L62.6513 61.0196L63.4476 61.1523C63.7093 61.1978 63.9711 61.2473 64.2441 61.2928C63.9823 61.2663 63.7093 61.2283 63.4476 61.1903L62.6513 61.0766L61.0583 60.8416C60.9256 60.8226 60.7966 60.7958 60.6638 60.7771L60.2618 60.7308C60.0001 60.7043 59.7271 60.6663 59.4653 60.6358C58.9306 60.5716 58.3958 60.5031 57.8611 60.4198L57.8613 60.4206ZM64.0583 61.7811C64.0583 61.7811 62.0256 62.2971 61.3391 62.4943C60.6641 62.6801 58.6198 63.3021 58.6198 63.3021L64.0581 61.7813L64.0583 61.7811Z" fill="#CFB66C"/>
<path fill-rule="evenodd" clip-rule="evenodd" d="M64.0583 61.7812C63.607 61.914 63.1583 62.043 62.7005 62.1645L61.3428 62.5285C60.8915 62.6613 60.4428 62.7903 59.9928 62.923L59.3178 63.1088C59.094 63.1733 58.8665 63.2301 58.6353 63.2948C58.8588 63.2198 59.0865 63.1431 59.3103 63.0786L59.9853 62.8625C60.4365 62.722 60.8853 62.5893 61.3353 62.449C61.794 62.3353 62.2455 62.2138 62.7043 62.1038C63.1403 61.9938 63.5993 61.884 64.0583 61.7815V61.7812ZM58.9045 64.5539C59.128 64.4704 61.707 63.2683 62.3063 62.9876C62.6063 62.847 63.4783 62.5375 63.4783 62.5375L58.9045 64.5539Z" fill="#CFB66C"/>
<path fill-rule="evenodd" clip-rule="evenodd" d="M58.9045 64.5538C59.1015 64.4788 59.2875 64.3871 59.477 64.2998L60.0383 64.0381L61.1648 63.4958C61.5398 63.3176 61.9043 63.1208 62.291 62.9533C62.4883 62.8701 62.6855 62.8018 62.8825 62.7373L63.1825 62.6426C63.2848 62.6161 63.3798 62.5856 63.4825 62.5591C63.1075 62.7373 62.7128 62.8891 62.3373 63.0633C61.9623 63.2493 61.5788 63.4011 61.1918 63.5678L60.0465 64.0721C59.662 64.2278 59.287 64.3946 58.9043 64.5538H58.9045ZM59.1545 65.6038C59.1545 65.6038 61.4905 64.2348 62.2945 63.7948C62.7155 63.5598 64.077 62.8846 64.077 62.8846L59.1545 65.6038Z" fill="#CFB66C"/>
<path fill-rule="evenodd" clip-rule="evenodd" d="M59.1545 65.6044C59.5488 65.3617 59.9508 65.1152 60.3528 64.8649L60.9528 64.5007C61.1575 64.3794 61.3548 64.2657 61.5635 64.1444C61.7683 64.0229 61.9655 63.9017 62.174 63.7879C62.2733 63.7266 62.3773 63.6734 62.485 63.6287L62.8035 63.4694C63.2245 63.2647 63.6455 63.0559 64.0893 62.8777C63.6873 63.1319 63.2738 63.3482 62.8605 63.5717C62.6558 63.6854 62.447 63.7879 62.2423 63.9017C62.0375 64.0154 61.8403 64.1369 61.6315 64.2469C61.4268 64.3682 61.2295 64.4819 61.021 64.5919L60.4028 64.9294L59.155 65.6044H59.1545ZM64.058 63.1847C64.058 63.1847 62.6055 64.2997 62.1353 64.6562C61.665 65.0127 60.2808 66.0139 60.2808 66.0139L64.058 63.1847Z" fill="#CFB66C"/>
<path fill-rule="evenodd" clip-rule="evenodd" d="M72.3939 72.1761L71.6506 70.7691L72.0829 69.0094L75.1662 67.8186L73.8539 65.1261L74.5024 62.4069L75.7199 59.9719L79.4822 59.3804L82.2467 56.7446L88.2162 57.1959L89.388 63.5786L87.1315 71.6149L85.846 75.7754L80.6349 75.9726L78.2154 74.2964L75.3824 73.1129L72.3939 72.1761Z" fill="#E2CC85"/>
<path fill-rule="evenodd" clip-rule="evenodd" d="M81.5338 72.1303C81.5338 72.1303 80.8131 72.4603 79.5838 72.3843C79.2281 71.9065 76.7366 71.6828 76.7366 71.6828C76.7366 71.6828 76.4256 71.588 75.8756 71.8155C75.3221 72.0405 74.7986 72.0128 74.3094 72.134C73.8201 72.2553 73.3344 71.6183 72.9594 71.4855C72.5844 71.3453 72.0871 71.0078 72.0871 71.0078L71.0371 70.9053L68.9287 70.014L65.5789 66.6768L64.6687 68.1018L64.3879 69.8653L65.4007 71.955L68.1274 74.439L73.4444 75.789L76.5959 74.8605L80.5438 73.1918L81.5338 72.13V72.1303Z" fill="#F1D789"/>
<path fill-rule="evenodd" clip-rule="evenodd" d="M62.6435 60.3364L63.3185 58.2924L64.1228 56.9724L66.7128 56.7561L65.9353 59.0241L63.77 62.8774L64.6688 66.3171L63.076 67.1134L62.5865 66.3626L62.1923 64.6409L62.1658 62.7066L62.6435 60.3364Z" fill="#F4ECB4"/>
<path fill-rule="evenodd" clip-rule="evenodd" d="M65.5485 71.9911L65.0518 71.2971C65.0518 71.2971 64.919 70.9671 64.995 70.6788C65.07 70.3868 65.0593 70.3678 65.0215 70.2578C64.9838 70.1478 64.665 69.7686 64.684 69.4423C64.7028 69.1123 64.6575 69.0023 64.9 68.7408C65.154 68.4868 65.0783 68.0468 65.0783 68.0468L65.4083 68.2516L65.4833 68.1378C65.4833 68.1378 65.6045 68.2326 65.6045 68.3806C65.631 68.1758 65.521 67.2276 65.7713 67.0116C66.0215 66.7956 66.4653 68.0241 66.4653 68.0241L66.1923 66.2416L65.4905 64.4138L64.2428 62.7451L64.1678 60.9056V60.7463C64.1678 60.7463 63.595 61.6263 63.4358 62.3213C63.322 62.7991 63.595 63.3793 63.5383 64.0658C63.4925 64.7486 63.4358 64.6953 63.6025 64.9658C63.7693 65.2363 64.1753 65.7926 64.016 66.1946C63.8758 66.5398 63.3978 66.2971 63.3978 66.2971C63.3978 66.2971 63.303 66.5776 63.174 66.6801C63.1285 66.5133 63.0793 66.4071 62.9883 66.3051C62.9805 66.3696 62.9618 66.4568 62.9618 66.4568C62.9618 66.4568 62.8783 66.1951 62.7948 65.8651C62.6813 65.4253 62.5598 64.8451 62.4498 64.5341C62.4043 64.7123 62.2905 65.2546 62.2905 65.2546L62.355 66.0891L62.666 67.2343L62.966 67.9843L63.258 68.9021L63.5118 69.5186L63.7165 69.9888L63.8948 71.0471L64.7555 71.9571L65.2145 72.1621L65.548 71.9913L65.5485 71.9911Z" fill="#F3E19D"/>
<path fill-rule="evenodd" clip-rule="evenodd" d="M63.0947 58.6678C63.0947 58.6678 62.4764 59.7178 62.2984 60.7763C62.1204 61.8348 61.9609 62.9533 62.0734 64.3943C62.1872 65.8471 62.4034 66.7381 62.5779 67.3753C62.8779 68.4336 63.6549 69.9051 63.6549 69.9051L63.6814 69.8481C63.5508 69.6005 63.4466 69.3399 63.3704 69.0706C63.2679 68.6686 63.2299 68.1908 63.1352 67.9746C63.0517 67.7586 62.9114 67.5726 62.8432 67.3071C62.7787 67.0531 62.7682 66.6511 62.5702 66.3516C62.4867 66.2301 62.3842 65.9116 62.3539 65.5931C62.3159 65.1151 62.3729 64.5803 62.3274 64.1406C62.2439 63.4086 62.1872 62.9118 62.2629 62.5286C62.3387 62.1453 62.7334 61.0573 62.9762 60.1926C63.1354 59.6388 63.0404 59.1723 63.3324 58.6906C63.6244 58.2128 63.8029 57.7918 63.8672 57.4998C63.9422 57.2343 63.0937 58.6678 63.0937 58.6678H63.0947Z" fill="#F2E8B0"/>
<path fill-rule="evenodd" clip-rule="evenodd" d="M66.0266 58.2471C66.0266 58.2471 65.7081 58.3421 65.5564 58.5088C65.4046 58.6681 65.3401 58.8008 65.1354 59.0701C64.9306 59.3393 64.9191 59.5593 64.7521 59.8968C64.5854 60.2268 64.2174 60.7235 64.1719 60.9018C64.1264 61.08 64.0506 61.9143 63.9559 62.3088C63.8724 62.7032 64.0506 63.1887 64.0506 63.1887L64.2666 63.143C64.2666 63.143 64.2666 63.4237 64.4829 63.6135C64.6989 63.7992 64.7369 62.9837 64.7369 62.9837L65.5446 60.257L66.7619 59.4303L66.8947 58.7628L66.0261 58.2471H66.0266Z" fill="#F5EEC0"/>
<path fill-rule="evenodd" clip-rule="evenodd" d="M66.6182 59.4832C66.6182 59.4832 66.0455 59.521 65.765 59.726C65.6512 59.8092 65.6057 59.8775 65.4845 59.98C65.2607 60.1657 65.033 60.3365 64.9232 60.58C64.8017 60.8225 64.669 61.1905 64.578 61.8845C64.54 62.1765 64.54 62.4457 64.5135 62.681C64.4755 62.9995 64.4187 63.2535 64.449 63.431C64.487 63.795 64.8625 63.9847 64.899 64.398L65.6765 64.0037L66.4085 61.1175L67.9634 60.1425L67.0834 59.1565L66.6172 59.4815L66.6182 59.4832Z" fill="#E6DB9D"/>
<path fill-rule="evenodd" clip-rule="evenodd" d="M62.5164 78.9182C62.5196 78.8897 62.5229 78.8612 62.5261 78.832C62.6396 77.857 62.6589 77.118 62.7421 76.6552C62.8634 75.9992 62.9469 75.7552 62.9279 75.5097C62.9014 75.1155 62.8711 74.8272 62.9091 74.5237C62.9659 74.1217 63.3604 73.644 63.3491 73.314C63.3414 73.0522 63.2086 72.8817 63.0949 72.7225C62.9811 72.5632 62.8901 72.4305 62.8901 72.4305C62.8901 72.4305 63.6676 71.8957 63.6601 69.7415C63.676 69.7459 63.6913 69.7523 63.7056 69.7605L64.0886 70.8487L64.3504 71.1672L65.3554 73.0407L66.6486 74.2962L68.5599 75.5817L69.7584 76.886L69.8797 80.3637L68.3134 82.3965L68.0569 82.861C66.0191 81.8379 64.1504 80.5081 62.5161 78.918L62.5164 78.9182Z" fill="#E5CB7A"/>
<path fill-rule="evenodd" clip-rule="evenodd" d="M67.3008 82.2455C67.3008 82.2455 67.3273 81.8132 67.6838 81.5325C67.7408 81.6272 67.7785 81.7185 67.7673 81.7865C67.8318 81.673 68.283 80.9447 69.3033 80.755C70.3235 80.5692 70.57 79.826 70.57 79.826L72.7353 77.8577L75.2118 75.5785L78.223 74.5202L79.6303 74.175C79.6303 74.175 79.6568 74.2775 79.6038 74.505C79.8653 74.4862 80.4455 74.3535 81.0485 74.141C81.2913 74.0462 81.519 74.0082 81.6403 74.1335C81.8185 74.3002 81.845 74.6947 81.8563 74.9297C82.1483 74.8652 82.4858 74.5847 82.7563 74.6112C83.1887 74.6567 83.5717 75.165 84.0117 75.165C84.592 75.165 84.8535 74.8085 85.2595 74.5277C85.5022 74.361 85.851 74.1527 86.0482 74.012C86.5185 73.6667 91.4942 72.146 91.4942 72.146L93.2387 72.2597L93.5195 74.1332L93.3695 79.0307C93.351 79.0485 93.3325 79.067 93.3137 79.0847L85.3817 83.2275L74.3868 84.913C71.9238 84.5106 69.5471 83.6931 67.3578 82.4952L67.3015 82.2452L67.3008 82.2455Z" fill="#D8C173"/>
<path fill-rule="evenodd" clip-rule="evenodd" d="M63.1831 79.5417C63.3394 79.215 63.4799 78.9417 63.5046 78.844C63.5241 79.041 63.5599 79.4732 63.6319 79.9327C63.4807 79.8042 63.3311 79.6738 63.1831 79.5415V79.5417Z" fill="#F1D789"/>
<path fill-rule="evenodd" clip-rule="evenodd" d="M71.2146 84.1503L72.6366 83.7548L72.7579 83.7928C72.7579 83.7928 72.8224 83.8308 72.8224 83.9595C73.0007 83.8573 73.1524 83.876 73.2624 83.808C73.3192 83.9293 73.3759 84.3313 73.6264 84.3805C73.8879 84.4375 74.1687 84.2668 74.4532 84.0508C74.7337 83.827 75.0532 83.5463 75.2949 83.4325C75.3836 83.5956 75.4622 83.764 75.5302 83.9368C75.8487 83.6828 76.4024 82.6512 77.1912 82.67C77.4192 82.1312 77.8 81.6711 78.2867 81.3465C79.0187 80.8497 79.4774 80.8117 80.0502 80.8572C80.2777 80.5617 80.558 80.311 80.8769 80.1177C80.9717 80.1557 81.2335 80.315 81.5597 80.1632C81.8897 80.0117 82.2612 79.4237 82.7505 79.348C83.0141 79.3117 83.2822 79.368 83.509 79.5072C83.509 79.5072 84.934 78.0925 85.9172 77.6222C85.8792 77.5085 85.8035 77.08 86.9562 76.1317C87.0207 76.1887 86.9752 76.348 87.0207 76.3567C87.0395 76.3567 87.3207 76.2355 87.6767 75.9622C88.1167 75.6325 88.6437 75.2872 88.9622 75.1925C89.5623 75.0142 90.1988 75.3782 90.1988 75.3782C90.2529 75.3402 90.3132 75.312 90.377 75.2947C90.5285 75.2682 90.6385 75.2492 90.722 75.2197C90.7145 75.417 90.8245 75.7545 90.722 76.0465C90.8407 76.1132 90.9665 76.1666 91.097 76.2057C91.0328 76.346 90.8923 76.7025 90.6573 76.8732C90.8543 76.968 90.8808 77.078 91.1615 77.1732C91.0478 77.3325 90.8615 77.6057 90.7785 77.7732C90.695 77.9515 90.3953 78.691 90.2625 78.9715C90.1223 79.2522 89.9328 79.768 89.8415 79.8715C89.7502 79.975 89.4205 80.4137 89.1665 80.6297C89.3915 80.5462 90.312 80.2657 90.7025 80.1595C90.5863 80.33 89.997 81.2042 89.4305 82.045C86.7181 83.6707 83.6904 84.6997 80.5491 85.0634C77.4077 85.427 74.225 85.117 71.2129 84.154L71.2146 84.1503Z" fill="#E0CD81"/>
<path fill-rule="evenodd" clip-rule="evenodd" d="M66.7116 59.3803C66.7116 59.3803 66.3819 59.3803 66.3174 59.4258C66.2529 59.4713 66.6474 59.5663 66.7686 59.6118C66.8899 59.6573 67.1517 59.8658 67.2199 60.0328C67.2844 60.192 69.5902 61.121 69.5902 61.121L71.221 61.0375L71.7833 60.2608L70.7137 59.324L71.4638 57.113L70.4702 57.2723L68.0809 58.6973L66.8824 59.1563L66.7116 59.3803Z" fill="#DFC57C"/>
<path fill-rule="evenodd" clip-rule="evenodd" d="M70.2931 60.1128C70.3167 60.151 70.3499 60.1823 70.3894 60.2035C70.4288 60.2248 70.4732 60.2353 70.5181 60.234C70.8556 60.234 71.1663 60.3175 71.2953 60.488C71.5116 60.7613 72.1108 61.6335 72.1108 61.6335L73.5443 62.1493L73.6368 60.4613L72.0706 59.373L70.2881 60.029V60.1125H70.2921L70.2931 60.1128Z" fill="#E5CC7C"/>
<path fill-rule="evenodd" clip-rule="evenodd" d="M70.0117 60.7383C70.0117 60.7383 70.2732 60.7573 70.6032 60.6358C70.9332 60.5143 71.4754 60.2528 71.7107 60.3553C72.0404 60.4956 71.9722 60.9356 72.3289 61.3303C72.5449 61.5731 72.9394 61.5656 73.1632 61.8273C73.3869 62.0891 74.1567 61.9676 74.1567 61.9676L74.4487 63.5426L73.2769 65.0446L72.8937 66.9103H71.3092L69.8617 66.3361L69.1487 64.6111L69.5052 62.8666L70.0117 60.7383Z" fill="#D2C281"/>
<path fill-rule="evenodd" clip-rule="evenodd" d="M73.0769 60.8151C73.1162 60.8272 73.157 60.8336 73.1982 60.834C73.1527 60.872 73.0576 60.9553 73.0956 61.1715C73.1336 61.3878 73.2549 61.6608 73.1527 61.8275C73.2343 61.9168 73.2951 62.023 73.3309 62.1385C73.3954 62.3245 73.4144 62.495 73.8352 62.5218C73.7744 62.5591 73.7184 62.6037 73.6684 62.6545C73.6684 62.6545 73.9604 62.9085 74.1084 63.1435C74.2599 63.137 74.6619 63.012 74.6619 63.012L74.7454 63.069L74.9236 62.994C74.9236 62.994 74.7569 62.9295 74.8782 62.5238C74.9919 62.1673 75.0944 62.1863 75.1032 62.1598C75.1119 62.1333 75.1867 61.7578 75.1867 61.606C75.2434 61.409 75.2889 60.8098 75.2889 60.8098L75.1676 59.4863L74.4852 59.0728L73.9301 58.5371L73.4066 59.5231L73.0619 59.8668L73.0354 60.7201L73.0769 60.8151Z" fill="#E2C270"/>
<path fill-rule="evenodd" clip-rule="evenodd" d="M74.7188 59.7063C74.7188 59.7063 74.84 60.0513 74.8857 60.3168C74.9019 60.2652 74.9108 60.2116 74.9122 60.1575C74.9122 60.1575 75.007 60.681 75.0257 60.8973C75.0637 60.8895 75.1007 60.8783 75.1092 60.916C75.1177 60.9538 75.2042 61.375 75.1842 61.61C75.3422 61.3495 75.5607 61.131 75.8212 60.973C75.973 60.878 76.1512 60.7758 76.3372 60.768C76.6292 60.7605 76.8415 60.954 77.1905 60.954C78.0322 60.954 78.7947 60.3358 79.356 60.1463C79.7692 60.0058 80.1257 59.9035 80.376 59.6758C80.4975 59.5735 80.7137 59.346 80.9107 59.0083C81.1725 58.5583 81.4455 58.1665 81.7187 58.1173C81.5951 58.14 81.4693 58.1489 81.3437 58.1438C81.3437 58.1438 81.4272 58.0603 81.5687 57.9465C81.7102 57.8328 81.8797 57.6925 82.1222 57.6925C82.5547 57.6925 82.7707 57.7568 83.0135 57.7568C83.2562 57.7493 83.3965 57.6925 83.3965 57.6925C83.3965 57.6925 83.6507 57.8708 84.2232 57.8708C84.796 57.8783 85.179 57.9275 85.4787 57.9543C85.7785 57.981 86.7832 57.8708 87.0715 57.8793C87.2594 57.8865 87.444 57.9317 87.614 58.012L86.6847 55.312L83.3467 52.3945L81.3595 53.8015L78.3025 56.8583L75.3445 57.9543L74.7262 58.6483V59.7063H74.7188Z" fill="#CCB360"/>
<path fill-rule="evenodd" clip-rule="evenodd" d="M81.3556 58.1595C81.3556 58.1595 81.4391 58.0762 81.5791 57.9625C81.7191 57.8487 81.8904 57.7082 82.1329 57.7082C82.5652 57.7082 82.7814 57.7727 83.0242 57.7727C83.2669 57.7652 83.4072 57.7082 83.4072 57.7082C83.4072 57.7082 83.6617 57.8862 84.2339 57.8862C84.8067 57.8937 85.1897 57.943 85.4894 57.9695C85.7892 57.996 86.794 57.8862 87.0822 57.8945C87.2701 57.9015 87.4546 57.9467 87.6245 58.0272L87.2035 56.8097L86.7145 55.8807L85.3187 54.3522L83.6309 53.3587C83.6234 53.3512 83.0507 53.1995 83.0507 53.1995L81.5336 54.1172L80.1571 57.6785L80.1306 58.4285L81.0216 58.8495C81.2454 58.4745 81.4921 58.1745 81.7234 58.1365C81.5146 58.1592 81.3554 58.1592 81.3554 58.1592L81.3556 58.1595Z" fill="#D5B457"/>
<path fill-rule="evenodd" clip-rule="evenodd" d="M81.3367 58.4137C81.2039 58.4212 81.0942 58.3947 81.0637 58.3C80.9499 57.9815 80.8589 57.936 80.7637 57.936C80.6684 57.936 80.5399 58.1407 80.4637 58.1595C80.3874 58.1782 80.2969 57.9245 80.2969 57.9245L80.2134 57.8865C80.2134 57.8865 79.7242 58.205 79.3792 58.5805C79.0342 58.956 78.469 59.5932 78.215 59.7067C77.961 59.8202 77.0885 59.8585 76.79 59.923C76.4915 59.9875 76.1606 60.2037 76.1151 60.253C76.0696 60.3022 76.2481 60.3552 76.2746 60.4045C76.3011 60.45 75.9823 60.431 75.9558 60.4795C75.9371 60.5175 76.0308 60.7335 76.0773 60.8435C76.1587 60.803 76.248 60.781 76.3388 60.779C76.6308 60.7715 76.8433 60.965 77.192 60.965C78.034 60.965 78.7962 60.3467 79.3575 60.157C79.771 60.0167 80.1275 59.9142 80.3777 59.6867C80.4989 59.5845 80.7152 59.3567 80.9124 59.0192C81.0564 58.788 81.1969 58.5717 81.3374 58.4125L81.3367 58.4137Z" fill="#D2B257"/>
<path fill-rule="evenodd" clip-rule="evenodd" d="M69.2617 77.1831C69.2617 77.1831 69.1867 76.9023 68.4917 76.178C68.2944 75.9733 68.1732 75.803 68.0404 75.6813C67.7104 75.37 67.5169 75.2868 67.2819 75.1085C66.7662 74.7255 66.2049 74.7255 65.7726 74.2553C65.3404 73.785 64.8366 72.8865 64.4866 71.9682C64.1416 71.0505 64.0466 70.7585 64.0466 70.732C64.0466 70.7055 64.1416 70.5272 64.2629 70.5537C64.3841 70.5802 64.3841 70.8152 64.4146 70.8722C64.475 70.9652 64.5436 71.0528 64.6194 71.1337C64.7976 71.3387 65.0516 71.5837 65.1806 71.9492C65.1541 71.6382 65.0479 71.2932 65.0479 71.2932C65.0479 71.2932 65.7154 71.7142 66.2841 72.154C66.8569 72.594 67.0919 72.7457 67.2592 73.0262C67.4264 73.3067 67.8204 74.0465 68.0092 74.2628C68.1979 74.479 70.7842 75.2943 70.7842 75.2943L72.0144 76.2115L72.6252 77.5503L72.1472 78.3003L71.2294 78.4976L69.7389 77.8301L69.2617 77.1828V77.1831Z" fill="#D2B159"/>
<path fill-rule="evenodd" clip-rule="evenodd" d="M65.9502 72.5719C65.9502 72.5719 66.2612 73.0686 67.0197 73.5389C67.7024 73.9524 68.7832 74.3279 69.7467 74.5516C70.3002 74.6844 70.8539 74.7866 71.3507 74.7944C72.6894 74.8131 73.6109 74.4304 74.7526 74.3051C75.3709 74.2406 76.1294 74.1914 76.9181 74.0051C77.9306 73.7624 78.5299 73.4891 79.3453 73.1051C79.9368 72.8321 80.4793 72.6274 80.9191 72.3656C81.5373 72.0016 81.9886 71.5959 82.5121 71.4746C82.4476 71.6529 82.3793 71.9714 81.8636 72.3014C82.1366 72.2936 82.5121 72.2749 82.5121 72.2749C82.5121 72.2749 82.1481 72.4909 81.5071 72.9764C81.1126 73.2764 80.5893 73.7841 80.0546 74.1216C79.7093 74.3379 79.3338 74.4966 79.0873 74.6261C78.4874 74.9561 78.2454 75.1229 77.8511 75.5261C77.9914 75.5186 78.0029 75.5261 78.0029 75.5261C78.0029 75.5261 77.5059 75.5906 77.1496 75.7801C77.0746 75.7801 76.9446 75.7536 76.7171 75.8181C76.5389 75.8749 76.3036 76.0041 76.0611 76.0721C75.7159 76.1746 75.6024 76.1291 75.6024 76.1291L75.6591 76.2429C75.6591 76.2429 75.2091 76.2351 75.0591 76.2504C75.0856 76.2579 75.0781 76.2694 75.0781 76.2694C75.0518 76.2738 75.0264 76.2827 75.0031 76.2959C74.9309 76.3426 74.8516 76.3772 74.7681 76.3981C74.7226 76.4056 74.6846 76.4056 74.6276 76.4171C74.6466 76.4626 74.7946 76.7171 74.8629 76.8671C74.8061 76.9051 73.9526 77.5499 73.9526 77.5499C73.9791 77.5915 74.0007 77.6361 74.0171 77.6826C74.0436 77.7659 74.0551 77.8874 74.0816 77.9441C74.1459 78.0579 74.1839 78.0769 74.1839 78.0769C74.1839 78.0769 74.0816 78.0959 73.9031 78.1414C73.7516 78.1794 73.5656 78.2436 73.3031 78.2816C73.2226 78.2921 73.1416 78.2984 73.0604 78.3006C73.0984 78.3841 73.2651 78.7026 72.9579 79.0704C72.6506 79.4381 72.5559 79.4916 72.4611 79.7266C72.4135 79.6905 72.3627 79.6588 72.3094 79.6316C72.2071 79.5861 72.0667 79.5181 72.0174 79.4269C71.9887 79.5484 71.9507 79.6676 71.9037 79.7834C71.8089 80.0374 71.6687 80.2879 71.6422 80.4774C71.5397 80.3636 71.3502 80.1399 71.0884 80.1854C70.8267 80.2309 70.6182 80.5874 70.5727 80.6899C70.5727 80.6254 70.5272 80.5761 70.5159 80.6519C70.5082 80.7354 70.3642 81.6074 69.5602 82.3129C69.5527 82.1346 69.5527 81.7401 69.5337 81.6114C69.4587 81.6864 69.3669 81.7971 68.8207 82.0324C68.2859 82.2674 68.3707 82.5026 68.3707 82.5026C68.3707 82.5026 68.3252 82.1276 68.6134 81.7326C68.9054 81.3384 69.0837 81.1524 69.0837 81.1221C69.079 81.0913 69.0658 81.0624 69.0457 81.0386C69.0077 81.0006 68.9319 80.9551 68.9319 80.9249C68.9774 80.9061 69.4287 80.6899 69.4022 80.2421C69.3757 79.8404 69.2052 79.6316 69.0837 79.4839C69.0649 79.4649 69.2622 79.3246 69.2354 79.2791C69.2164 79.2526 68.9739 79.0741 68.9434 78.9791C68.9506 78.9224 68.9633 78.8666 68.9814 78.8124C69.0079 78.7289 69.0269 78.6719 69.0194 78.6151C69.0004 78.5204 68.8979 78.2586 68.8677 78.2321C68.8942 78.2396 69.0837 78.2321 69.0837 78.2321C69.0837 78.2321 68.9322 77.9894 68.9054 77.8756C68.8787 77.7619 68.8219 77.4621 68.7917 77.4054C68.8562 77.4129 69.0154 77.4241 69.0154 77.4054C69.0232 77.3484 68.8752 77.2536 68.9404 77.1804C68.9859 77.1879 69.0732 77.2259 69.1564 77.3321C69.1109 77.2106 69.0352 76.9756 68.8757 76.8809C68.9507 76.8544 69.2057 76.7859 69.4294 76.9186C69.6532 77.0514 69.7294 77.2371 69.7294 77.2371C69.7294 77.2371 69.8622 77.3396 70.0672 77.4914C70.3022 77.6771 70.6017 77.9414 71.0797 78.1284C71.1822 78.1854 71.4437 78.1854 71.6334 78.1474C71.716 78.1277 71.7952 78.0957 71.8684 78.0526C71.8948 78.037 71.9228 78.0243 71.9519 78.0146C71.9111 77.9328 71.8643 77.8541 71.8117 77.7794C71.8762 77.7794 71.9519 77.7871 71.9519 77.7871C71.9519 77.7871 71.9974 77.6846 71.7927 77.4871C71.8382 77.4416 71.8952 77.4121 71.8952 77.3354C71.8307 77.3279 71.7169 77.2331 71.6904 77.1951C71.7282 77.1686 71.7852 77.0814 71.8497 77.0549C71.7927 77.0094 71.6524 76.8196 71.5879 76.8009C71.6495 76.778 71.7091 76.7501 71.7662 76.7174C71.7662 76.7174 71.4477 76.6339 71.3452 76.5656C71.2427 76.4906 71.0912 76.3609 71.0002 76.3229C70.9052 76.2849 70.7384 76.2661 70.6702 76.1901C70.7344 76.2091 70.8369 76.1901 70.9129 76.1901C70.9697 76.1901 70.9964 76.1976 71.0152 76.1976C71.0077 76.1711 71.0077 76.1141 71.1557 76.0954C71.2268 76.0846 71.2959 76.0629 71.3604 76.0309C71.3604 76.0309 71.2199 76.0234 71.0604 75.8716C70.9009 75.7199 70.7684 75.5986 70.6774 75.5796C70.5827 75.5606 70.4044 75.6441 70.2944 75.6364C70.1427 75.6176 70.0782 75.5416 70.0782 75.5416C70.0782 75.5416 69.5739 75.5871 68.4552 74.9046C67.4879 74.3129 67.0669 73.7896 67.0669 73.7896C66.9764 73.7568 66.8889 73.7161 66.8054 73.6681C66.4414 73.4786 65.9369 73.0841 65.9522 72.5681L65.9502 72.5719Z" fill="#C2A44D"/>
<path fill-rule="evenodd" clip-rule="evenodd" d="M79.9029 49.8079C79.9907 49.8364 80.0686 49.8889 80.1279 49.9596C80.3062 50.1644 80.4199 50.5511 80.0142 50.9646C80.1734 51.0214 80.2392 51.0396 80.3782 51.0214C80.2379 51.1884 79.9194 51.5449 79.9004 51.8559C79.8814 52.1099 80.0407 52.1859 80.0407 52.1859C80.0407 52.1859 79.7979 52.4664 79.7867 52.9359C79.9013 52.8066 80.0268 52.6873 80.1617 52.5794C80.4424 52.3556 80.8292 52.1016 81.0909 51.9424C81.0874 52.0091 81.0964 52.0759 81.1174 52.1394C81.1174 52.1394 81.6064 51.7374 82.0175 51.9159C82.2032 51.9994 82.1197 52.2609 82.1197 52.2609C82.1197 52.2609 82.374 52.1661 82.5522 52.3444C82.7305 52.5226 82.9825 52.9824 83.1117 53.1606C83.1685 53.2441 83.3165 53.4034 83.468 53.6499C83.675 53.995 83.8478 54.3594 83.984 54.7381C83.9915 54.5409 84.0407 54.2339 84.6022 54.4271C85.1635 54.6244 85.8005 55.0379 86.3353 55.8521C86.87 56.6664 87.0025 57.5856 87.2718 57.9356C87.5448 58.2731 87.8255 58.8344 87.8445 59.0696C87.8635 59.3049 87.761 60.0631 88.3223 62.1149C88.4815 61.4779 88.7243 60.0631 88.7243 60.0631L88.857 58.8154L89.0088 54.9546L84.9772 51.6054L81.8257 49.3184L79.7739 49.5156L79.9027 49.8076L79.9029 49.8079Z" fill="#CAA13E"/>
<path fill-rule="evenodd" clip-rule="evenodd" d="M87.3934 55.5547C87.3934 55.5547 87.3364 55.1797 86.3884 54.5422C85.4402 53.9127 84.7007 53.9127 84.0182 53.3779C83.4947 52.9569 82.9487 51.9897 82.5932 51.6712C82.2479 51.3564 82.1912 50.4462 82.1912 50.4462L83.3554 49.4712L85.0869 46.9684L86.5507 45.3567L87.2522 46.3317L88.2272 47.4769L88.7694 49.7752L88.9667 53.1392L87.3917 55.5549L87.3934 55.5547Z" fill="#B59544"/>
<path fill-rule="evenodd" clip-rule="evenodd" d="M88.5654 59.5859C88.5941 59.0757 88.5311 58.5646 88.3794 58.0766C88.1294 57.2991 87.5831 55.9186 87.3294 55.4016C87.2269 54.8289 87.3029 54.7834 87.4129 54.7189C87.5229 54.6544 87.9364 54.4189 88.1629 53.5926C88.3894 52.7664 89.0921 52.7394 89.0921 52.7394L89.5244 52.4209L90.1806 54.0629L90.7531 55.5459L90.9314 56.6799L91.0641 57.6469L90.7531 59.6911L89.2174 61.0791L88.5651 59.5859H88.5654Z" fill="#C89D3A"/>
<path fill-rule="evenodd" clip-rule="evenodd" d="M67.1338 82.3713V82.3293C67.1657 82.3094 67.1939 82.284 67.217 82.2543C67.2435 82.2163 67.2628 82.1708 67.2815 82.1596C67.3195 82.1406 67.4978 82.0845 67.5925 82.1025C67.6873 82.1205 67.9378 82.2238 68.0705 82.2163C68.3435 82.2088 68.662 82 69.1665 82.095C69.925 82.2353 70.1033 82.7511 70.5433 83.0431C70.8433 83.2481 71.1538 83.1568 71.1993 83.1568H71.3015C71.3205 83.1568 71.4608 82.9976 71.5368 83.0053C71.6885 83.0128 71.7035 83.1381 71.7983 83.1456C72.022 83.1721 72.4545 83.0318 72.6708 83.0888C72.7349 83.1089 72.7932 83.1442 72.8408 83.1917C72.8883 83.2392 72.9236 83.2975 72.9438 83.3616C72.9893 83.5018 72.9513 83.6801 72.8413 83.7826C72.6063 83.9986 72.3825 84.2036 72.337 84.3826C72.3949 84.4267 72.4505 84.4738 72.5035 84.5236C70.6271 84.0455 68.8217 83.3226 67.1338 82.3736V82.3713Z" fill="#CEB052"/>
<path fill-rule="evenodd" clip-rule="evenodd" d="M87.3284 74.7937C87.3284 74.7937 87.9199 74.0049 88.1249 73.6142C88.3296 73.2114 87.4764 68.1114 87.4764 68.1114L89.1906 62.4949L89.1449 60.6669C89.1449 60.6669 89.2284 58.9792 89.4256 58.2472C89.6608 58.6682 90.3928 59.1764 90.5521 59.4457C90.6271 58.9297 90.8818 57.8414 90.8441 56.6809C90.9843 56.8969 91.3218 59.0702 91.3218 59.0702L91.6593 60.5339L92.0993 62.0889L92.5886 63.7312L92.8806 64.8652L93.0473 65.1382L93.1878 65.6159L93.3206 66.1319L93.7036 67.3417L93.9286 68.3352L94.1068 70.1367C94.1456 70.2746 94.1735 70.4154 94.1903 70.5577C94.1978 70.7549 94.1638 70.8687 94.1638 70.9029C94.1638 70.9372 94.2283 71.3352 94.2018 71.6349C94.1638 71.9349 94.1638 72.1697 93.9286 72.3849C93.6933 72.6002 93.5456 73.8867 93.5456 73.8867L93.1246 73.6062C93.1246 73.6062 93.2081 73.2229 93.0108 72.8742C92.8136 72.5254 92.4306 72.4532 92.2143 72.5102C91.9983 72.5557 91.5661 72.6237 91.4256 72.7452C91.2928 72.8664 90.9668 73.2419 90.6671 73.4127C90.2921 73.6377 89.6811 73.6554 89.3551 73.7312C89.0251 73.8062 88.6611 74.0312 88.2779 74.2924C87.9774 74.487 87.6601 74.6543 87.3299 74.7924L87.3284 74.7937Z" fill="#CCA847"/>
<path fill-rule="evenodd" clip-rule="evenodd" d="M87.3284 83.0803C87.3284 83.0803 87.3534 83.0966 87.4016 83.1231C90.096 81.8607 92.5102 80.0714 94.5016 77.8606C94.4799 77.0931 94.4516 76.3063 94.4206 76.0148C94.3564 75.3966 94.4019 74.7671 94.3829 74.4031C94.3639 74.0391 94.1591 72.5561 94.0644 72.1731C93.9619 71.7901 93.7644 71.6003 93.7344 71.6003C93.7079 71.6081 93.5484 72.3211 93.5484 72.5003C93.5484 72.6796 93.5104 73.1111 93.5104 73.2211C93.4839 73.2133 93.4726 73.1461 93.4726 73.1186C93.4346 73.2133 93.3891 73.3803 93.3701 73.3993C93.3511 73.4183 93.3966 73.2401 93.3701 73.2021C93.3436 73.1641 93.2951 73.1831 93.3056 73.0883C93.3101 73.0322 93.319 72.9764 93.3321 72.9216C93.3321 72.9216 93.2184 73.0883 93.1351 73.5131C93.0516 73.9341 93.0516 73.9456 93.0214 73.9833C92.9949 74.0291 92.8431 74.1806 92.8354 74.2376C92.8279 74.3398 92.9759 74.4423 92.9871 74.4991C92.9946 74.5941 92.8544 75.0338 92.8089 75.2491C92.7634 75.4643 92.7824 75.8861 92.7339 76.1023C92.6959 76.2996 92.6589 76.4133 92.5291 76.4966C92.6239 76.5156 92.7149 76.5421 92.7149 76.5421C92.7149 76.5421 92.8476 77.1033 92.5101 77.5813C92.3889 77.7481 92.3586 77.8241 92.2296 77.9758C91.9754 78.2563 91.7781 78.5758 91.7591 78.7836C91.746 78.7223 91.7371 78.6601 91.7326 78.5976C91.7326 78.5976 91.3384 79.0566 91.1714 79.3183C90.9554 79.6558 90.6556 79.6368 90.5714 79.7203C90.4871 79.8038 90.4689 79.9553 90.4964 80.0768C90.4214 80.0956 90.2804 80.1223 90.1854 80.4143C90.1399 80.5658 90.0261 80.7143 89.8479 80.8163C89.6696 80.9183 89.4534 80.9491 89.3434 80.9756C89.4381 81.0021 89.4761 81.0021 89.5216 81.0323C89.4649 81.1271 89.2031 81.2751 88.9111 81.4648C88.6191 81.6431 88.4786 81.9046 88.4066 82.0753C88.3316 82.2346 88.2209 82.3371 88.0426 82.3561C88.1176 82.4016 88.2286 82.5076 88.2854 82.5418C88.2019 82.5608 88.0604 82.5608 87.8076 82.7771C87.5421 82.9971 87.4511 83.0616 87.3296 83.0806L87.3284 83.0803Z" fill="#C39D3C"/>
<path fill-rule="evenodd" clip-rule="evenodd" d="M82.0518 84.8371C82.197 84.7353 82.3543 84.6519 82.52 84.5888C83.1115 84.3538 83.7373 84.3083 83.9838 84.2326C84.219 84.1576 84.4048 84.0541 84.6968 83.9973C84.689 84.0638 84.6825 84.1263 84.6755 84.1853C83.8147 84.456 82.938 84.6736 82.0505 84.8371H82.0518Z" fill="#D2BA6B"/>
<path fill-rule="evenodd" clip-rule="evenodd" d="M92.9614 69.279C92.9614 69.279 92.8402 69.935 92.6239 70.3485C92.4077 70.762 92.1739 71.3345 92.1739 71.3345C92.1754 71.2055 92.1906 71.077 92.2194 70.9512C91.9464 71.1105 91.2827 71.4937 91.0944 71.6642C90.9162 71.8235 90.6165 72.1042 90.5407 72.237C90.719 71.7137 90.9047 71.2435 90.9352 71.0272C90.6622 71.2245 89.3877 72.275 88.7242 72.969L86.6572 74.6415C86.4187 74.7702 86.173 74.8852 85.9215 74.986C85.5652 75.1375 85.1442 75.2665 84.8332 75.388C84.9167 75.1642 85.0492 74.9667 85.2352 74.7772C85.4325 74.5915 86.024 73.9505 86.115 73.6522C86.1985 73.3412 86.2175 73.1555 86.1075 72.8937C86.005 72.9202 85.77 72.9317 85.6107 72.9772C85.4515 73.0227 85.2807 73.1932 85.2807 73.1932C85.2807 73.1932 85.402 72.4992 85.6637 71.8432C85.4665 71.8507 85.129 71.9075 85.129 71.9075C85.129 71.9075 85.5992 71.1187 86.404 70.569C86.1575 70.6214 85.9163 70.6963 85.6835 70.7925C85.2132 70.9897 84.6975 71.2817 84.3145 71.441C84.5305 71.141 86.0475 68.976 86.9502 66.9582C87.8502 64.9445 88.1865 64.4287 88.3837 63.348C88.486 62.8132 88.4587 62.023 88.4859 61.3152C88.5125 60.6135 88.5997 59.984 88.543 59.563C88.778 59.855 89.6579 60.678 89.6882 62.5175C89.7147 64.3567 88.8465 66.841 87.9247 68.1795C88.1497 68.244 88.7327 68.32 89.3317 67.2795C89.9307 66.239 89.9234 65.9485 90.1397 65.516C90.1662 65.7322 90.1584 65.808 90.1584 65.808C90.1584 65.808 91.031 64.75 91.4442 63.4187C91.5277 63.9915 91.7742 64.496 91.3872 65.5465C91.0422 66.4945 90.591 66.726 90.591 66.726C90.591 66.726 90.8147 66.688 91.1444 66.4907C91.2014 66.631 91.1902 66.7907 91.2849 66.8472C91.3797 66.9037 91.5087 66.999 91.5277 67.09C91.6299 66.9382 91.7892 66.7447 91.8387 66.6007C91.8007 66.9007 91.7742 68.2125 91.9137 68.88C92.2059 68.8535 92.5054 68.8345 92.7102 68.3072C92.5699 68.8232 92.5699 69.134 92.6647 69.574C92.8202 69.468 92.9604 69.2782 92.9604 69.2782L92.9614 69.279Z" fill="#C0993A"/>
<path fill-rule="evenodd" clip-rule="evenodd" d="M83.1079 48.3751C83.1079 48.3751 82.8159 48.4963 82.3191 48.4963C81.8869 48.4963 82.0081 48.3296 81.3331 48.3296C80.2941 48.3296 76.6645 48.9296 76.0273 48.9211C75.6138 48.9136 77.4228 49.0993 77.4228 49.0993L82.0461 49.1638L82.9751 49.0888L83.3204 48.3863L83.1079 48.3751Z" fill="#A88F33"/>
<path fill-rule="evenodd" clip-rule="evenodd" d="M71.1199 57.4129C71.1199 57.4129 70.5281 57.8641 70.2779 58.2094C70.0276 58.5546 69.8949 58.7819 69.6104 59.0626C69.6771 59.0652 69.7439 59.0562 69.8076 59.0361C69.8076 59.0361 69.8076 59.1111 69.7621 59.1309C69.8014 59.1265 69.8412 59.1309 69.8786 59.1439C69.916 59.1569 69.95 59.1781 69.9781 59.2059C69.8946 59.2514 69.6671 59.4791 69.8454 59.7484C69.9781 59.9531 70.2589 59.9719 70.2589 59.9719C70.2589 59.9719 70.1944 60.1579 70.4636 60.1389C71.0439 60.1124 71.6924 59.8581 71.9919 59.9226C72.2919 59.9976 72.4624 60.0251 72.6746 60.3931C72.8996 60.7571 73.0956 60.8141 73.0956 60.8141C73.0956 60.8141 73.2284 60.4764 73.1981 59.9721C73.3069 59.7003 73.3673 59.4115 73.3764 59.1189L73.1791 57.6664L72.3184 56.5779L71.2034 57.1961L71.1199 57.4121V57.4129Z" fill="#E3C571"/>
<path fill-rule="evenodd" clip-rule="evenodd" d="M72.1777 57.1959C72.1777 57.1959 72.2612 57.3931 72.6102 57.4119C72.5722 57.4954 72.5722 57.5069 72.5837 57.5711C72.5912 57.6356 72.6025 57.7304 72.6025 57.7304C72.6409 57.7118 72.6756 57.6864 72.705 57.6554C72.724 57.7389 72.686 57.8714 72.705 57.9664C72.7167 58.0242 72.7358 58.0802 72.7617 58.1331C72.7673 58.1202 72.7736 58.1076 72.7807 58.0954C72.7882 58.0764 72.8557 58.3001 73.0425 58.4704C73.0423 58.4442 73.0488 58.4184 73.0612 58.3954C73.0641 58.4429 73.0798 58.4888 73.1067 58.5281C73.0928 58.5215 73.08 58.5125 73.069 58.5016C73.069 58.5016 73.0877 59.1016 73.1902 59.4119C73.2074 59.3918 73.2226 59.3702 73.2357 59.3474C73.2357 59.3286 73.2282 59.5144 73.2092 59.6474C73.1827 59.7801 73.2017 59.9659 73.2017 59.9659C73.2701 59.9121 73.3453 59.8674 73.4252 59.8331C73.539 59.7874 73.7252 59.6471 73.8387 59.3361C73.9046 59.16 73.9553 58.9786 73.9905 58.7939C74.0272 58.8645 74.0525 58.9404 74.0655 59.0189C74.0732 59.1136 74.2515 59.0644 74.2515 59.0644L74.2895 58.6509L74.5145 57.7141L74.7192 57.1339L75.7052 55.5981L77.4867 54.2261L79.0417 54.5826L80.3537 52.8001L78.0935 51.4424L75.9545 51.6661L74.0132 54.3549L72.4585 56.7936L72.1777 57.1956V57.1959Z" fill="#D8B65B"/>
<path fill-rule="evenodd" clip-rule="evenodd" d="M83.3805 53.3048C83.3805 53.3048 83.2478 53.3313 82.8648 53.5298C82.4818 53.7283 82.2163 53.7913 82.0683 54.0833C81.9203 54.3753 81.909 54.6068 81.909 54.6068C81.909 54.6068 82.1708 54.4931 82.3225 54.4551C82.4818 54.4173 82.66 54.4286 82.641 54.4931C82.6228 54.5373 82.5975 54.5782 82.566 54.6143C82.566 54.6143 82.866 54.6068 82.858 54.7548C82.85 54.9028 82.8013 55.0658 82.7445 55.1378C82.6875 55.2128 82.4525 55.3238 82.426 55.4111C82.3615 55.5893 82.4525 55.5968 82.4183 55.7408C82.3918 55.8813 82.2668 56.1543 81.857 56.6321C81.436 57.1101 81.257 57.4476 81.257 57.4476C81.257 57.4476 81.0523 57.0646 80.946 56.7346C80.871 56.7723 80.4683 56.9961 80.4683 56.9961L79.5353 53.7461L79.554 53.5298C79.554 53.5298 79.6375 53.4276 79.6565 53.2378C79.5163 53.1923 79.4973 53.1543 79.3113 52.9763C79.1253 52.7983 78.9737 52.5818 78.663 52.4338C78.6175 52.3503 78.5605 52.2368 78.333 52.191C78.1055 52.1453 77.969 52.1078 77.969 52.1078C77.969 52.1078 78.0902 52.062 78.1472 51.9673C78.0067 51.9863 77.8932 52.0318 77.586 52.0243C77.275 52.0165 77.2407 52.0053 77.0702 52.0318C76.8997 52.0583 76.6952 52.1343 76.619 51.8725C76.5355 51.808 76.3572 51.865 76.2055 52.0885C76.0537 52.312 76.0007 52.4905 75.7087 52.5778C75.6882 52.7065 75.6431 52.8301 75.576 52.9418C75.4925 53.0823 75.3597 53.2226 75.1815 53.4311C74.9007 53.7611 74.9462 54.3033 74.4987 54.7168C74.0475 55.1301 74.5737 53.5713 74.5737 53.5713L75.2942 51.8463L77.346 49.84L80.5318 49.624L80.8428 51.274L82.3978 51.8088L83.38 53.3068L83.3805 53.3048Z" fill="#D3AE4D"/>
<path fill-rule="evenodd" clip-rule="evenodd" d="M83.8853 53.6698L82.5466 51.7396L81.6098 51.0188C81.6098 51.0188 80.9424 49.7904 80.8969 49.7524C80.8589 49.7259 80.2294 49.6576 79.8274 49.6311L79.9024 49.8169C79.9901 49.8454 80.0681 49.8979 80.1274 49.9686C80.3056 50.1733 80.4194 50.5601 80.0136 50.9736C80.1729 51.0303 80.2386 51.0486 80.3776 51.0303C80.2374 51.1973 79.9189 51.5538 79.8999 51.8648C79.8809 52.1188 80.0401 52.1946 80.0401 52.1946C80.0401 52.1946 79.7974 52.4753 79.7861 52.9446C79.9008 52.8153 80.0262 52.696 80.1611 52.5881C80.4419 52.3631 80.8286 52.1101 81.0904 51.9508C81.0868 52.0177 81.0958 52.0846 81.1168 52.1481C81.1168 52.1481 81.6058 51.7461 82.0168 51.9243C82.2026 52.0078 82.1191 52.2696 82.1191 52.2696C82.1191 52.2696 82.3733 52.1748 82.5516 52.3531C82.7298 52.5313 82.9838 52.9901 83.1128 53.1686C83.1695 53.2521 83.3175 53.4113 83.469 53.6576C83.6761 54.0027 83.8489 54.3673 83.985 54.746C83.9925 54.5943 84.023 54.382 84.285 54.382L83.8868 53.6691L83.8853 53.6698Z" fill="#CAA13E"/>
<path fill-rule="evenodd" clip-rule="evenodd" d="M63.8155 59.1528C63.8155 59.1528 63.7208 58.9176 63.8155 58.4588C63.9103 58.0001 64.0583 57.7838 64.1075 57.1088C64.1568 56.4338 64.5968 55.5918 64.5968 55.5918L65.814 55.0383L66.675 55.2733L66.929 56.4263L65.8405 57.0263C65.8405 57.0263 65.7838 57.2803 65.4765 57.4851C65.1693 57.6898 64.7445 57.8491 64.6423 58.0578C64.5812 58.1857 64.5366 58.3207 64.5095 58.4598C64.5095 58.4598 64.1985 58.3953 64.0128 58.6001C63.8155 58.8088 63.823 58.9946 63.8155 59.1538V59.1528Z" fill="#F4EFC8"/>
<path fill-rule="evenodd" clip-rule="evenodd" d="M66.2728 58.8466C66.2728 58.8466 66.1703 58.9111 66.0945 59.0716C66.0195 58.9503 65.8403 58.2296 65.8328 57.5811C65.8253 56.9326 65.7865 56.7718 65.9365 56.5483C66.0865 56.3248 66.6748 56.0893 66.5913 55.6868C66.5078 55.3038 66.1588 55.1446 65.7303 55.2546C65.4303 55.3296 65.207 55.9676 64.896 56.2861C64.6608 56.5288 64.3803 56.4908 64.3045 56.6236C64.202 56.8018 64.2968 56.9801 64.2665 57.0938C64.2588 57.1318 64.164 57.3366 63.9933 57.5831C63.6483 58.0798 63.0643 58.7816 62.9883 59.4111C63.0148 59.0546 62.996 59.0471 63.0908 58.6526L63.0338 58.5578L63.4088 57.3291L63.6515 56.3166L64.194 54.6211L65.1495 52.8881L66.0788 51.8489L67.0458 51.9134L67.1595 53.3659L67.7133 56.0928L68.8775 57.5263L67.0115 58.7821L66.272 58.8466H66.2728Z" fill="#EBCC73"/>
<path fill-rule="evenodd" clip-rule="evenodd" d="M66.853 59.3622C66.853 59.3622 66.6937 59.4002 66.6367 59.3699C66.5797 59.3397 66.5232 59.3054 66.542 59.2674C66.5607 59.2294 66.6632 59.1652 66.6632 59.1347C66.6653 59.1071 66.6566 59.0798 66.6389 59.0586C66.6212 59.0373 66.596 59.0238 66.5685 59.0209C66.4812 59.0097 66.4547 59.0664 66.4547 59.0664C66.4547 59.0664 66.3712 59.0022 66.3032 58.9914C66.3435 58.9865 66.3839 58.9839 66.4245 58.9837C66.3197 58.9362 66.2085 58.9043 66.0945 58.8889C66.1892 58.8322 66.3752 58.6651 66.4965 58.6651C66.6177 58.6651 66.6937 58.6464 66.6747 58.5819C66.6557 58.5174 66.561 58.4226 66.4587 58.3846C66.4965 58.3391 66.5232 58.2709 66.4322 58.0846C66.3372 57.8989 66.3752 57.7736 66.4057 57.7284C66.4322 57.6714 66.527 57.5691 66.5725 57.5046C66.618 57.4401 66.656 57.3529 66.7317 57.3074C66.7697 57.2809 66.891 57.2324 67.0125 57.1861C67.1452 57.1406 67.2552 57.0836 67.331 57.1406C67.4145 57.1974 67.3765 57.2734 67.3765 57.2734C67.3765 57.2734 67.6382 57.1784 67.8732 57.2999C68.1085 57.4134 68.6812 57.4856 68.6812 57.4856L68.8865 57.8991L67.5287 59.0634L66.9675 59.3442L66.8537 59.3629L66.853 59.3622Z" fill="#E5C66B"/>
<path fill-rule="evenodd" clip-rule="evenodd" d="M68.7378 57.4576C68.7378 57.4576 68.3168 57.7384 68.222 57.8406C68.2788 57.8484 68.3735 57.8864 68.3355 57.9431C68.29 57.9999 68.017 58.1971 67.8653 58.3831C67.706 58.5689 67.5543 58.8041 67.5013 58.9179C67.4445 59.0201 67.012 59.3199 66.8643 59.3576C67.1753 59.3576 67.801 58.9746 68.036 58.9746C68.0285 59.0884 68.1005 59.2174 68.2333 59.2286C68.366 59.2399 68.749 59.3121 69.2648 58.9936C69.7805 58.6826 69.61 58.4511 69.826 58.2996C70.2395 58.0264 70.4063 57.7836 70.6338 57.6321C70.8613 57.4806 70.979 57.4461 70.979 57.4461C70.979 57.4461 70.9865 57.3324 71.054 57.3439C71.0725 57.346 71.09 57.3531 71.1047 57.3645C71.1195 57.3759 71.1308 57.391 71.1375 57.4084C71.1375 57.4084 71.532 57.1276 72.0375 57.0519C72.0257 57.0466 72.0163 57.0372 72.011 57.0254C72.011 57.0254 72.0488 57.0064 72.0565 56.9874C72.0565 56.9874 72.083 56.9494 72.102 56.9684C72.121 56.9874 72.1475 57.1276 72.1855 57.1846C72.269 57.1466 72.4283 56.7901 72.4283 56.7901L72.8115 55.6941V54.6929L72.5115 54.7499L70.2615 55.7054L68.896 57.1201L68.7368 57.4576H68.7378Z" fill="#E6BD62"/>
<path fill-rule="evenodd" clip-rule="evenodd" d="M75.2156 52.5471C75.3374 52.5175 75.454 52.4702 75.5619 52.4066C75.5164 52.5281 75.5164 52.6608 75.3191 52.9491C75.1219 53.2373 75.1144 53.2791 74.9551 53.5786C74.7959 53.8896 74.7769 54.3371 74.6251 54.5341C74.6932 54.501 74.7661 54.4793 74.8411 54.4698C74.8411 54.4698 74.6896 54.6026 74.6251 54.7428C74.5606 54.8831 74.4469 55.1751 74.1664 55.3536C73.8859 55.5321 73.5291 55.6456 73.1461 56.0666C72.7629 56.4799 72.3686 57.0034 72.1711 57.1916C72.2736 57.0134 72.4139 56.6569 72.4519 56.4219C72.4899 56.1869 72.4441 55.9059 72.5086 55.5951C72.5731 55.2844 72.5731 55.0603 72.8836 54.5178C73.1941 53.9753 73.7256 52.0906 73.7256 52.0906L74.8709 51.7266L75.2161 52.5458L75.2156 52.5471Z" fill="#B6933F"/>
<path fill-rule="evenodd" clip-rule="evenodd" d="M74.3888 51.8528C74.3888 51.8528 74.0438 52.3496 73.9491 52.7896C73.8543 53.2296 73.9413 53.1916 73.8846 53.4078C73.8506 53.5397 73.8506 53.678 73.8846 53.8098C74.0041 53.6174 74.1677 53.4561 74.3618 53.3393C74.6881 53.1423 74.9536 53.0018 75.1118 52.8351C75.2711 52.6568 75.4038 52.3648 75.7488 52.1411C75.6086 52.1221 75.4113 52.0576 75.3738 52.0661C75.5143 51.9068 75.9351 51.6641 76.3598 51.3721C76.7808 51.0721 76.7543 50.9511 77.4371 50.6516C77.2133 50.6896 77.1071 50.6326 76.9211 50.6516C76.9961 50.4923 77.2586 50.4163 77.5211 50.1548C77.7836 49.8933 77.3543 49.5063 77.3543 49.5063L75.3543 50.7161L74.3873 51.8538L74.3888 51.8528Z" fill="#C49937"/>
<path fill-rule="evenodd" clip-rule="evenodd" d="M68.9619 50.9505L69.0074 50.5865L69.5802 49.6687L70.1794 48.057V45.8535L70.1339 44.5792L70.2287 43.7447L70.3007 43.4795L70.3767 43.377L70.8657 43.631L71.5409 44.5487L71.6054 46.32L70.9492 49.115L69.0757 51.1592L68.9619 50.9505Z" fill="#DFC068"/>
<path fill-rule="evenodd" clip-rule="evenodd" d="M70.4523 43.2738C70.4523 43.2738 70.1523 43.2816 70.0883 44.5293C70.0243 45.7771 69.9933 46.4331 69.9478 47.0513C69.9023 47.6696 69.7963 48.0448 69.743 48.4091C69.6898 48.7733 69.6595 49.2698 69.489 49.5733C69.414 49.7136 69.2538 50.1536 68.8783 50.4836C68.4573 50.8476 67.8283 51.1018 67.7331 51.1208C67.5661 51.1586 66.7203 51.2421 66.3753 51.4318C66.2541 51.4963 66.0453 51.5721 65.8141 51.7883C65.3551 52.2016 64.7446 52.9411 64.3046 53.8323C63.6296 55.1636 62.9546 58.9218 62.9546 58.9218L63.1063 58.6678C63.1063 58.6678 63.1253 58.3303 63.4628 57.7386C63.7928 57.1471 63.6981 56.4833 64.1568 55.3493C64.3351 54.9171 64.5588 54.3558 64.8318 53.8778C65.2643 53.1003 65.7876 52.4328 66.3148 52.0688C67.1756 51.4773 68.1238 51.3483 68.1238 51.3483L69.144 50.6733C69.144 50.6733 69.3223 50.3283 69.5575 49.9338C69.8873 49.3803 70.3075 48.7621 70.3993 47.8633C70.5398 46.5321 70.202 45.6598 70.221 44.8711C70.24 44.0823 70.2475 43.5021 70.407 43.3616C70.5665 43.2211 70.4525 43.2743 70.4525 43.2743L70.4523 43.2738Z" fill="#A88F33"/>
<path fill-rule="evenodd" clip-rule="evenodd" d="M70.4524 49.2285C70.4524 49.2285 70.9024 48.121 71.1084 47.1387C71.1464 46.9415 71.2221 46.7445 71.2411 46.5852C71.3359 45.656 71.3624 45.273 71.2411 44.7647C71.1464 44.3897 70.7824 44.0517 70.5926 43.7897C70.4069 43.5165 70.3196 43.4147 70.3576 43.3572C70.3956 43.2997 70.5434 43.2057 70.6874 43.217C70.8405 43.2214 70.991 43.257 71.1299 43.3215C71.2688 43.3859 71.3932 43.478 71.4954 43.592C71.7874 43.9295 72.0187 45.075 72.0187 45.075L72.2619 46.5865L72.8802 48.4902L70.4529 49.23L70.4524 49.2285Z" fill="#C99E3D"/>
<path fill-rule="evenodd" clip-rule="evenodd" d="M74.681 48.0757C74.681 48.0757 74.5975 48.1134 74.446 48.0757C74.4525 48.1376 74.4417 48.2001 74.4149 48.2563C74.3882 48.3125 74.3464 48.3602 74.2942 48.3942C74.135 48.3297 72.6442 48.4587 72.6442 48.4587C72.6442 48.4587 71.9502 48.3372 71.734 47.4194C71.5825 46.8087 71.8477 45.9669 71.7605 45.4132C71.6277 44.5977 71.442 44.4382 71.423 44.1844C71.404 43.9307 71.385 43.8659 71.385 43.7067C71.3015 43.6877 71.2522 43.6612 71.169 43.6612C71.15 43.5862 71.1877 43.5207 71.1045 43.3879C71.15 43.4069 71.461 43.4449 71.825 43.7899C72.125 44.0707 72.125 44.1729 72.1702 44.2299C72.227 44.2867 72.686 44.6799 72.8832 45.0719C73.0805 45.4639 73.4635 46.7139 73.5507 46.9187C73.5772 47.0022 73.6342 47.0857 73.7757 47.2752C73.9957 47.5484 74.318 48.0002 74.682 48.0752L74.681 48.0757Z" fill="#B58634"/>
<path fill-rule="evenodd" clip-rule="evenodd" d="M72.2236 44.2488C72.4534 44.6199 72.6598 45.005 72.8416 45.4018C73.0654 45.906 73.1981 46.3195 73.4789 46.657C73.3271 46.2173 73.0579 45.3525 72.8986 45.0453C72.7204 44.7203 72.3564 44.3703 72.2236 44.249V44.2488Z" fill="#A88F33"/>
<path fill-rule="evenodd" clip-rule="evenodd" d="M69.644 50.4844C69.644 50.4844 69.261 50.5791 68.548 50.9546C68.3128 51.0759 68.0893 51.1781 67.873 51.2731C67.3113 51.5271 66.7088 51.7619 66.2308 51.8914C66.2688 51.9369 66.2876 51.9556 66.2876 51.9556C66.2876 51.9556 66.2876 52.1416 66.3901 52.2476C66.3333 52.3046 65.5746 52.8204 65.7986 54.5459C65.9501 54.4891 66.1283 54.4131 66.1548 54.4131C66.2006 54.4209 66.2118 54.5459 66.2686 54.5459C66.3253 54.5459 66.5113 54.4709 66.7085 54.2159C66.701 54.3184 66.5873 55.3499 67.1978 56.0439C67.3115 55.9111 67.5998 55.4711 67.5998 55.4711L67.6073 55.3309C67.6073 55.3309 67.6338 54.8416 67.7933 54.3941C67.9528 53.9466 68.2635 53.6166 68.2635 53.6166L69.8862 51.2994L69.6435 50.4841L69.644 50.4844Z" fill="#E6C367"/>
<path fill-rule="evenodd" clip-rule="evenodd" d="M68.1274 53.8872C68.0531 53.9397 67.9712 53.9806 67.8846 54.0085C67.8581 53.9137 67.8201 53.5875 68.0439 53.269C68.3056 52.8857 68.8781 52.389 69.0374 51.9939C69.1399 51.7397 69.0944 51.1027 70.0046 50.2872C70.9149 49.4717 71.2711 49.1912 71.2711 49.1912L72.7426 48.4517L74.5516 49.1647L73.6529 52.6872L72.9551 54.3372L70.1801 53.814L68.1271 53.8872H68.1274Z" fill="#DCBA5A"/>
<path fill-rule="evenodd" clip-rule="evenodd" d="M69.1868 52.9305L69.532 52.4983V52.191C69.532 52.191 69.915 52.0885 70.3283 51.6675C70.7415 51.2465 71.3143 50.4387 71.8188 50.488C72.3233 50.545 72.3725 51.584 72.3915 51.8763C72.4105 52.1685 72.475 52.8318 72.5773 53.1885C72.691 53.545 71.3485 54.895 71.3485 54.895L70.4368 55.5891L69.1868 52.9305Z" fill="#E9CE77"/>
<path fill-rule="evenodd" clip-rule="evenodd" d="M70.2551 56.5285C70.2551 56.5285 70.5359 56.0885 70.3301 55.9938C70.4514 55.7208 70.6751 55.4325 70.6751 55.4325C70.6751 55.4325 70.8344 55.0383 71.3501 54.5528C71.8658 54.0673 72.1846 53.7448 72.2681 53.4188C72.3195 53.2063 72.3475 52.9888 72.3516 52.7703C72.4073 52.8158 72.467 52.8564 72.5298 52.8915C72.6133 52.9295 73.0076 53.2555 72.9508 53.9118C72.8941 54.568 72.6508 54.841 72.6508 54.841C72.6508 54.841 72.4158 55.076 72.2491 55.1975C72.0706 55.3188 72.0063 55.459 71.7066 55.4705C71.7374 55.446 71.772 55.4268 71.8091 55.4135C71.8091 55.4135 71.4981 55.3758 71.3311 55.5273C71.1641 55.6788 70.8091 56.1455 70.6309 56.286C70.4526 56.3998 70.2559 56.5288 70.2559 56.5288L70.2551 56.5285Z" fill="#CDAE50"/>
<path fill-rule="evenodd" clip-rule="evenodd" d="M82.8652 49.1527C82.4171 48.9894 81.9463 48.8973 81.4697 48.8797C80.6732 48.8532 79.509 48.8987 78.3675 48.9062C77.1387 48.9137 76.0238 48.4852 74.4765 48.4095C74.2225 48.2577 73.5765 47.5939 71.5601 49.001C71.6813 48.9935 73.024 48.69 73.4903 49.2742C73.9605 49.8545 73.8278 50.8405 73.7635 51.0755C73.642 51.599 73.2475 52.3612 73.0885 52.896C72.9295 53.4307 72.967 53.7117 72.8533 54.0868C72.7395 54.4618 72.4893 54.648 72.637 55.0803C72.8343 54.959 72.937 54.959 73.2665 54.2195C73.596 53.48 73.5283 52.9527 74.0745 52.327C74.6093 51.6975 75.4995 50.8365 75.838 50.6202C76.1765 50.404 78.8642 49.0085 81.6785 50.3397C82.3572 50.2677 82.8654 49.1525 82.8654 49.1525L82.8652 49.1527Z" fill="#D2A83E"/>
<path fill-rule="evenodd" clip-rule="evenodd" d="M72.6933 48.6366C72.6905 48.6081 72.6842 48.58 72.6745 48.5531C72.6482 48.4976 72.6137 48.4465 72.572 48.4013C72.572 48.4013 71.9045 48.2801 71.567 48.3178C70.9753 48.3823 70.4406 49.1143 70.1903 49.4898C69.9401 49.8653 69.6291 50.4454 69.2916 50.7451C69.2953 50.7159 69.2885 50.6863 69.2726 50.6616C69.2726 50.6616 69.2916 50.6881 69.2538 50.7261C69.2161 50.7641 69.2158 50.7829 69.2348 50.8011L69.2918 50.8579C69.3106 50.8579 69.8341 50.6226 70.5471 49.9579C71.3055 49.2638 71.8858 48.9078 72.1893 48.7858C72.3511 48.7171 72.5203 48.667 72.6935 48.6366H72.6933Z" fill="#C29637"/>
<path fill-rule="evenodd" clip-rule="evenodd" d="M85.6413 45.7844C85.6413 45.7844 85.5198 45.9359 85.368 46.1029C85.0305 46.4594 84.5905 46.8612 84.215 47.2747C83.8588 47.6692 83.4568 47.9764 83.0053 48.4922C82.5538 49.0079 82.0303 49.5804 81.8978 49.7474C81.7765 49.9144 81.6818 50.1874 81.6818 50.3277C81.6173 50.2822 81.5415 50.2329 81.5415 50.2329C81.5734 50.2925 81.6115 50.3485 81.6553 50.3999C81.75 50.5327 81.8978 50.7 81.9738 50.802C82.067 50.9318 82.1339 51.0786 82.1708 51.2342C82.2163 51.2417 82.5083 51.2987 82.8725 50.6995C83.2368 50.1002 83.7143 49.4442 83.7143 49.4442L84.4728 48.3177L84.9508 47.3622L85.5508 46.2927L85.642 45.7844H85.6413Z" fill="#AC8132"/>
<path fill-rule="evenodd" clip-rule="evenodd" d="M86.4186 45.0188C86.4186 45.0188 85.9596 45.3938 85.7814 45.6188C85.6031 45.8438 85.1814 46.4343 85.1814 46.4343L85.3331 46.4153L86.1031 45.7328L86.4031 45.1981L86.4184 45.0198L86.4186 45.0188Z" fill="#A88F33"/>
<path fill-rule="evenodd" clip-rule="evenodd" d="M86.2779 75.158C86.2779 75.158 86.2704 74.847 86.4449 74.6612C86.6231 74.4752 87.0744 74.2023 87.5144 73.1783C87.9544 72.1543 88.0034 71.923 88.0034 71.923C88.0034 71.923 87.2146 72.598 86.7284 72.7572C86.8421 72.522 86.9066 72.3552 86.9636 72.2337C86.8991 72.177 86.6261 72.1125 86.5996 72.0822C86.7511 71.9305 86.8346 71.5588 87.1419 71.3123C87.5364 71.0122 88.2569 70.4967 88.8169 70.0372C89.3769 69.5777 90.4779 68.509 90.6184 68.198C90.7019 68.3192 90.7206 68.395 90.7206 68.395C90.7206 68.395 90.1671 69.1157 89.8789 69.5745C89.6246 69.969 89.6436 70.1927 89.6436 70.1927L90.1671 69.9677C90.1671 69.9677 90.3186 70.529 89.6324 71.3825C89.9324 71.2687 90.0534 71.337 90.2239 71.242C89.9431 71.4205 89.5564 71.6632 89.1924 72.3305C88.8359 72.998 88.3504 73.7755 87.5314 74.2607C86.7349 74.7727 86.2759 75.1558 86.2759 75.1558L86.2779 75.158Z" fill="#A67A2E"/>
<path fill-rule="evenodd" clip-rule="evenodd" d="M84.2225 49.5476C84.2225 49.5476 83.9115 50.1958 83.866 50.7003C83.8585 50.8218 83.828 50.9165 83.828 51.0568C83.8205 51.508 83.8545 52.0125 83.753 52.2475C83.715 52.1528 83.696 52.0883 83.658 52.0505C83.6013 52.2098 83.4988 52.7065 83.4153 52.8923C83.3776 52.771 83.2941 52.35 83.3018 51.8533C83.3096 51.3565 83.3206 51.2615 83.3206 51.1593C83.3018 51.3108 83.1993 51.5158 83.1613 51.637C83.1046 51.5348 83.0401 51.402 82.9641 51.292C82.9186 51.367 82.8618 51.4778 82.8126 51.5348C82.8048 51.4893 82.7861 51.3678 82.7746 51.1973C82.7671 51 82.7556 50.7461 82.7671 50.6928C82.7858 50.5906 82.9453 50.1886 83.2828 49.8206C83.6848 49.3806 84.0983 48.5351 84.2195 48.2733C84.3408 48.0116 84.8565 46.9233 84.8565 46.9233H85.251L84.6783 48.2278C84.6783 48.2278 84.3333 48.9408 84.155 49.2028C83.9768 49.4648 83.6013 50.2156 83.4343 50.5076C83.5556 50.3483 83.658 50.2648 83.7795 50.1131C83.897 50.0068 84.223 49.5481 84.223 49.5481L84.2225 49.5476Z" fill="#8C6228"/>
<path fill-rule="evenodd" clip-rule="evenodd" d="M86.4263 44.97C86.3619 45.1683 86.26 45.3525 86.1263 45.5125C85.8911 45.7932 85.3866 46.1685 85.1404 46.468C84.9154 46.76 84.4654 47.5565 84.6699 48.5007C84.7449 48.296 84.8861 47.8902 85.2616 47.4312C85.6371 46.9722 86.0391 46.4452 86.2366 46.0357C86.4336 45.6222 86.4601 45.2962 86.4601 45.2962L86.535 45.2015L86.4895 44.9852L86.4251 44.97H86.4263Z" fill="#CBA94C"/>
<path fill-rule="evenodd" clip-rule="evenodd" d="M94.1062 70.1253C94.1062 70.1253 93.9544 69.712 93.9089 69.3365C93.8634 68.961 93.9839 68.8865 93.8444 68.4568C93.7609 68.195 93.6094 68.2318 93.5714 68.195C93.5334 68.1583 93.5069 67.7628 93.5144 67.5465C93.5219 67.3303 93.5069 67.0498 93.4689 66.9283C93.4122 66.8828 93.3742 66.8448 93.2907 66.5643C93.1959 66.2835 93.1504 66.1433 93.1049 66.06C93.0594 65.9768 92.9264 65.9008 92.9264 65.8173C92.9264 65.6503 93.0782 65.5633 93.0782 65.5173C93.0707 65.4225 92.9569 65.4985 92.9264 65.4718C92.8887 65.4263 93.0214 65.1533 92.9722 65.1153C92.9532 65.0965 92.8204 65.2558 92.7862 65.2103C92.7482 65.1645 92.7027 64.7133 92.6344 64.4138C92.5702 64.1218 92.5017 63.9095 92.4942 63.8223C92.4867 63.7388 91.9707 62.2673 91.8456 61.9108C91.7449 61.6095 91.6601 61.3032 91.5916 60.993C91.5536 60.8148 91.5271 60.4505 91.5081 60.4885C91.4891 60.5265 91.5006 60.7123 91.4701 60.7048C91.4436 60.697 91.3489 60.0488 91.3186 59.9463C91.2921 59.8438 91.1326 59.4963 91.0936 59.2448C91.0556 58.9905 90.9724 58.3268 90.9154 57.8755C90.8584 57.4243 90.8319 57.2385 90.8319 57.1255C90.8412 56.8491 90.826 56.5725 90.7864 56.2988C90.7114 55.8208 90.5614 55.2405 90.4299 54.9033C90.1759 54.266 89.5006 52.6353 89.3799 52.2295C89.3799 52.127 89.5126 52.184 89.5126 52.184C89.5126 52.184 89.8424 53.0108 90.0851 53.6478C90.3204 54.285 90.5441 54.8463 90.6011 54.9033C90.6466 54.96 91.0031 55.5858 91.1624 56.6098C91.3216 57.6338 91.3784 58.578 91.4734 59.2075C91.5189 59.5075 91.5569 59.8258 91.6516 60.1443C91.7539 60.4895 91.9132 60.846 92.1219 61.392C92.3002 61.851 92.4329 62.234 92.5049 62.564C92.5884 62.985 92.5884 63.3035 92.6377 63.5123C92.6834 63.6905 92.7514 64.0468 92.9109 64.5623C93.0704 65.0778 93.3052 65.7418 93.4644 66.155C93.7757 66.9818 93.9144 67.672 93.9614 68.04C94.0029 68.4193 94.1434 69.7315 94.1054 70.1258L94.1062 70.1253Z" fill="#A88F33"/>
<path fill-rule="evenodd" clip-rule="evenodd" d="M86.4454 44.9235L86.4264 44.969C86.4264 44.969 86.4831 44.988 86.4719 45.064C86.4727 45.168 86.4663 45.2719 86.4529 45.375C86.4341 45.5077 86.3961 45.61 86.3886 45.6935C86.3886 45.8717 86.4151 46.0765 86.1636 46.5847C86.0886 46.725 86.0424 46.8462 86.0044 46.9297C85.9096 47.1345 85.8906 47.165 85.8071 47.2598C85.9399 47.1848 86.4179 46.8847 86.6603 46.9297C86.4936 47.0245 86.2394 47.2105 86.0801 47.4533C86.1181 47.4608 86.2774 47.4913 86.5301 47.4533C86.9511 47.3888 87.4213 47.237 87.8346 47.2673C88.286 47.2938 88.1078 46.725 88.1078 46.725L87.5868 45.5797L86.6009 44.886L86.4454 44.9237V44.9235Z" fill="#BE9C44"/>
<path fill-rule="evenodd" clip-rule="evenodd" d="M89.0165 53.5031C89.0165 53.5031 88.5765 53.0631 88.3982 51.5531C88.22 50.0361 88.258 47.8031 88.258 47.8031L87.9015 46.9309C87.9015 46.9309 87.8265 46.3506 87.6397 46.1346C87.453 45.9186 87.0862 45.5544 86.9192 45.3761C86.7522 45.1979 86.5627 44.9551 86.449 44.9171C86.5057 44.8224 86.76 44.2876 87.7345 44.2801C88.709 44.2726 89.0095 44.8149 89.1112 45.0121C89.213 45.2094 89.6725 46.0621 89.843 47.6871C90.0022 49.3101 90.01 49.4316 89.9835 49.9929C89.9645 50.3039 89.862 51.0244 89.6835 51.7941C89.5205 52.4466 89.3422 53.1749 89.016 53.5046L89.0165 53.5031Z" fill="#A17C34"/>
<path fill-rule="evenodd" clip-rule="evenodd" d="M87.6367 54.7957C87.7833 54.8063 87.9298 54.7733 88.0577 54.7007C88.198 54.6932 88.7063 54.7577 89.0968 54.261C89.1233 54.3745 89.1918 54.682 89.0133 54.955C89.1083 54.86 89.2485 54.8222 89.2675 54.7957C89.275 54.936 89.4078 55.3682 88.8465 56.4187C88.998 56.252 89.1763 56.2595 89.3356 56.2405C89.3433 56.4377 89.4493 57.1012 89.1688 57.458C88.983 57.7007 88.6795 57.6247 88.6795 57.6247C88.6839 57.5717 88.6839 57.5184 88.6795 57.4655C88.672 57.363 88.634 57.2607 88.6608 57.1925C88.5141 57.1255 88.3805 57.033 88.2662 56.9192C87.9362 56.6082 87.5077 56.0775 87.4774 55.683C87.4394 55.243 87.834 55.1482 87.834 55.1482C87.8009 55.1187 87.7727 55.0841 87.7505 55.0457C87.7315 54.9815 87.7124 54.879 87.6367 54.7957Z" fill="#8C6228"/>
<path fill-rule="evenodd" clip-rule="evenodd" d="M84.7121 50.0248C84.7121 50.0248 84.6931 49.9983 84.5908 50.1195C84.6098 49.9983 84.6288 49.8843 84.6363 49.7743C84.6847 49.6724 84.7473 49.578 84.8223 49.4938C84.7653 49.6073 84.7273 49.7098 84.7273 49.7098C84.7273 49.7098 84.8678 49.448 85.0726 49.2888C85.2128 49.175 85.391 49.122 85.4668 49.0158C85.5503 48.902 85.5313 48.883 85.5503 48.864C85.5503 48.864 85.7363 48.7428 86.0208 48.386C86.0585 48.3405 86.1155 48.2913 86.1535 48.2458C86.2178 48.2193 86.3695 48.151 86.5478 48.0598C86.7338 47.9575 86.9423 47.8173 87.0713 47.7598C87.3252 47.646 87.5947 47.6575 87.7197 47.479C87.8145 47.4525 87.9167 47.168 87.898 46.9255C88.0382 46.9823 88.7587 47.4298 89.0055 48.4083C89.1837 49.1023 88.865 50.1718 88.7322 50.6878C88.5995 51.2038 88.5807 51.5865 88.3947 51.8215C88.1595 52.1328 87.4012 52.5715 87.2153 52.7888C87.056 52.967 86.5783 53.4183 86.597 53.7443C86.616 53.987 86.9155 54.1193 86.9803 54.1653C87.045 54.2113 87.0445 54.2678 87.166 54.2403C87.2875 54.2128 87.3327 54.1568 87.3822 54.1568C87.439 54.1643 87.439 54.1758 87.4655 54.1758C87.4847 54.1752 87.5038 54.1726 87.5225 54.168C87.5225 54.168 87.5035 54.5133 86.6958 54.618C86.6388 54.6258 86.582 54.6445 86.5098 54.656C86.6048 54.6105 86.6615 54.6105 86.764 54.4703C86.6503 54.4513 86.324 54.4323 86.2405 54.4058C86.267 54.3603 86.3543 54.2388 86.4263 54.182C86.4908 54.1253 86.4188 54.107 86.362 54.1365C86.2643 54.203 86.1706 54.2751 86.0813 54.3525C85.9865 54.436 85.903 54.5498 85.7513 54.6525C85.7058 54.5008 85.7133 54.2125 85.8918 54.004C85.846 54.0115 85.7588 54.1443 85.6755 54.1178C85.6605 53.9795 85.6695 53.8396 85.702 53.7043C85.7475 53.5335 85.994 53.234 85.994 53.234L87.1848 51.1063L87.4387 49.4945L84.7121 50.0243V50.0248Z" fill="#92723A"/>
<path fill-rule="evenodd" clip-rule="evenodd" d="M84.6475 50.116C84.6475 50.116 84.583 50.1615 84.712 50.2488C84.693 50.2753 84.6475 50.37 84.5905 50.4345C84.5262 50.5095 84.4577 50.556 84.4312 50.6205C84.3745 50.7533 84.329 50.8443 84.329 50.9013C84.329 50.9583 84.31 51.3223 84.1507 51.5573C84.0937 51.6408 84.0292 51.781 83.9837 51.8758C83.889 52.0425 83.8055 52.1758 83.7865 52.2508C83.7487 52.3835 83.7222 52.7475 83.7222 52.7475C83.7222 52.7475 83.8057 52.645 83.836 52.6073C83.7902 52.702 83.7409 52.8043 83.6689 52.8803C83.7144 52.8423 83.8472 52.7475 84.071 52.5503C84.382 52.2888 84.8675 51.8488 85.4593 51.5003C85.2808 51.5648 85.1293 51.5648 85.008 51.5838C85.1028 51.489 85.9561 50.4878 86.4036 50.393C86.4308 50.3586 86.4443 50.3153 86.4416 50.2715L86.0583 50.2338L85.2808 50.4005L85.1673 49.8005L84.6475 50.1153V50.116Z" fill="#B18E3E"/>
<path fill-rule="evenodd" clip-rule="evenodd" d="M85.8841 53.529C85.8841 53.529 85.7816 53.6312 85.6868 53.8855C85.6139 53.8093 85.5514 53.7238 85.5008 53.6312C85.3606 53.3962 85.1446 53.0965 84.6401 53.2672C84.6326 53.108 84.6211 53.0245 84.6401 52.9107C84.7236 52.892 84.9776 52.6872 85.2316 52.3875C85.4101 52.1827 85.5768 51.9475 85.6906 51.648C85.7656 51.591 85.8953 51.4962 86.0656 51.3862C86.3083 51.2195 86.6003 50.9917 86.6458 50.7377C86.5321 50.7832 86.2893 50.897 85.9251 50.8782C86.0656 50.8137 86.2816 50.7455 86.2551 50.4647C86.3121 50.4267 86.3576 50.4002 86.3576 50.4002C86.3148 50.386 86.2699 50.3795 86.2248 50.3812C86.2171 50.3547 86.2058 50.317 86.1413 50.3357C86.0768 50.3545 86.0663 50.3547 86.0578 50.3812C86.0313 50.389 85.9441 50.3812 85.8796 50.427C85.8151 50.4727 85.6368 50.624 85.5686 50.6505C85.5951 50.605 85.6328 50.537 85.6328 50.537C85.6328 50.537 85.4471 50.5557 85.3143 50.612C85.0716 50.6955 84.7911 50.8472 84.5066 50.995C84.5331 50.9495 84.5446 50.92 84.5633 50.9115C84.5821 50.903 84.6278 50.8927 84.6278 50.885C84.6278 50.8772 84.6091 50.81 84.6203 50.7827C84.7054 50.6025 84.8058 50.43 84.9203 50.267C85.0531 50.0885 85.0796 49.8345 85.0796 49.8345L85.6598 49.5425L87.2906 49.1675L88.3488 49.232L88.2161 49.964L87.5911 51.242L87.0563 52.4062L86.4456 53.1195L85.8843 53.529H85.8841Z" fill="#543E26"/>
<path fill-rule="evenodd" clip-rule="evenodd" d="M88.5275 50.3609C88.5275 50.3609 87.8903 51.1496 87.712 51.2711C87.8258 51.0284 88.5275 49.5834 88.7815 49.1814C88.7248 49.1359 88.6488 49.1359 88.827 48.4314C88.6755 48.7876 88.6223 48.9736 88.4973 49.0684C88.3723 49.1631 88.3568 49.1329 88.2723 49.1329C88.2882 49.104 88.2948 49.0709 88.291 49.0381C88.291 49.0381 87.7563 48.9736 87.391 48.9736C87.0257 48.9736 86.3027 49.1709 85.9005 49.3301C85.582 49.4629 85.4037 49.4629 85.2899 49.5461C85.1762 49.6409 85.1117 49.7434 85.0547 49.7699C85.0092 49.7964 84.7932 49.8646 84.7437 49.9366C84.6982 50.0116 84.6224 50.0959 84.6224 50.1149C84.6224 50.1339 84.6034 50.1606 84.6604 50.1414C84.6792 50.1339 84.8197 50.0579 84.9789 49.9631C85.1949 49.8419 85.4567 49.7016 85.6465 49.6181C86.1887 49.4019 86.3595 49.4399 86.602 49.3944C86.856 49.3489 87.2202 49.2426 87.4628 49.2426C87.7055 49.2351 88.1645 49.2426 88.2708 49.2616C88.2253 49.2996 88.1873 49.3451 88.2063 49.5044C88.2063 49.5499 88.1683 49.5991 88.1313 49.7091C88.0178 50.0201 87.8015 50.5359 87.6813 50.7976C87.5145 51.1539 87.325 51.4536 87.2312 51.6394C87.1375 51.8251 86.9312 52.3144 86.727 52.5761C86.5227 52.8379 86.416 52.9971 86.352 53.0541C86.288 53.1111 85.8285 53.4484 85.8627 53.5699C85.9462 53.5434 86.4735 53.3449 86.8562 52.9139C87.239 52.4829 87.3152 52.2199 87.6148 51.9846C87.9143 51.7494 88.1495 51.3551 88.2898 51.0291C88.4073 50.7256 88.3808 50.6309 88.5285 50.3616L88.5275 50.3609Z" fill="#806031"/>
<path fill-rule="evenodd" clip-rule="evenodd" d="M74.7947 56.2484C74.7947 56.2484 74.7112 56.5934 74.5215 56.7642C74.3357 56.9312 74.0057 57.0752 73.9679 57.3559C73.9224 57.6364 74.2979 57.7769 74.2979 57.7769C74.2979 57.7769 74.0929 58.1144 74.0929 58.3684C74.0929 58.6302 74.0854 58.6794 74.1119 58.9297C74.0819 58.949 74.0563 58.9746 74.0369 59.0047C74.0369 59.0047 74.0557 59.2474 74.2417 59.3989C74.4277 59.5504 74.5867 59.6417 74.6815 59.6037C74.6959 59.6346 74.7086 59.6663 74.7195 59.6987C74.7195 59.6987 74.86 59.3422 74.9547 59.0312C75.0495 58.7127 75.133 58.7579 75.1707 58.3294C75.2085 57.9009 75.6207 57.1652 75.6207 57.1652L75.902 56.5364L75.4432 56.1799L74.7947 56.2482V56.2484Z" fill="#B6903C"/>
<path fill-rule="evenodd" clip-rule="evenodd" d="M75.648 56.866C75.5534 56.9631 75.4661 57.067 75.3867 57.177C75.2655 57.344 75.1707 57.4955 74.9925 57.5602C74.8142 57.625 74.7005 57.6245 74.7117 57.803C74.723 57.9815 74.89 58.057 74.9847 58.148C75.0872 58.2427 75.1707 58.402 75.1252 58.5805C75.182 58.554 75.2845 58.5235 75.3792 58.3187C75.474 58.114 76.1367 56.8662 76.1367 56.8662H75.648V56.866Z" fill="#685026"/>
<path fill-rule="evenodd" clip-rule="evenodd" d="M78.2617 53.9878C78.2617 53.9878 78.3184 53.8363 78.2617 53.7263C78.2047 53.6126 77.8597 53.5746 77.6889 53.4456C77.5107 53.3128 77.2944 53.2206 77.1162 53.2788C77.1427 53.2143 77.2489 53.0738 77.1617 53.0436C77.0782 53.0171 76.7674 53.1573 76.6839 53.2218C76.6004 53.2863 76.4107 53.3621 76.3729 53.4078C76.3352 53.4536 76.2704 53.5406 76.2324 53.5026C76.1944 53.4761 76.1757 53.4078 76.1112 53.4456C76.0467 53.4833 75.7362 53.7376 75.6789 53.8856C75.6217 54.0336 75.4929 54.3636 75.1062 54.7388C74.7194 55.1141 74.5524 55.3571 74.6662 55.4973C74.7799 55.6376 74.8332 55.5353 74.8522 55.6566C74.8668 55.7756 74.8604 55.8963 74.8332 56.0131C74.7877 56.2103 74.7119 56.3961 74.8142 56.4341C75.0759 56.5175 75.3302 56.3591 75.3869 56.4076C75.5007 56.5098 75.3224 56.8778 75.5917 56.9498C75.8649 57.0248 76.1342 56.8853 76.1342 56.8853L77.1277 56.3506L78.0834 55.8463L78.5724 54.8791L78.3102 54.0713L78.2602 53.9878H78.2617Z" fill="#D4B968"/>
<path fill-rule="evenodd" clip-rule="evenodd" d="M77.3241 56.2969C77.3241 56.2969 77.1571 56.0429 77.3621 55.8189C77.5671 55.5949 77.8589 55.5004 77.9726 55.3602C77.951 55.3335 77.9219 55.3137 77.8891 55.3034C77.9646 55.1683 78.0798 55.0597 78.2191 54.9922C78.1624 54.9354 78.0864 54.8899 78.0031 54.8899C77.8171 54.8899 77.7031 55.0037 77.5326 55.0037C77.3659 55.0037 77.3469 54.9202 77.3469 54.9202C77.3469 54.9202 77.6276 54.8937 77.6009 54.7684C77.5744 54.6357 77.5259 54.6357 77.5259 54.6357C77.5259 54.6357 78.0681 54.4107 78.1629 54.2907C78.2576 54.1707 78.2464 54.029 78.2654 53.9722C78.3296 53.9722 78.7051 53.775 78.8568 53.8585C79.0086 53.942 78.9023 54.1695 78.9023 54.1695C78.9023 54.1695 79.3616 53.8242 79.5956 53.4857C79.8003 53.5047 79.8956 53.3455 80.0456 53.3455C80.2316 53.3455 80.5236 53.5995 80.5803 54.1417C80.6183 54.4527 80.6751 54.6309 80.6183 55.1809C80.5918 55.4919 80.5993 56.1559 80.6933 56.4854C80.7576 56.7472 80.9093 56.7207 80.9093 56.7207C80.886 56.8004 80.8399 56.8716 80.7766 56.9254C80.6741 57.0202 80.6628 57.2707 80.6741 57.3654C80.6892 57.4347 80.7082 57.5031 80.7311 57.5702C80.7311 57.5702 80.6098 57.7104 80.5793 57.8054C80.5528 57.9002 80.4278 57.9647 80.3366 57.9647C80.2453 57.9647 80.2911 57.9569 80.1698 57.9647C80.0486 57.9724 80.0106 57.9912 79.9346 57.9647C79.8586 57.9382 79.8018 57.9077 79.8323 57.6647C79.8588 57.4219 78.8956 56.8569 78.8956 56.8569L77.3206 56.2957L77.3241 56.2969Z" fill="#CCA849"/>
<path fill-rule="evenodd" clip-rule="evenodd" d="M75.5152 58.6948C75.5152 58.6948 75.8602 59.1538 77.2787 59.1538C77.9537 59.1538 78.1889 59.0893 78.3287 59.0513C78.4804 59.0133 79.0492 58.7898 79.6219 58.1145C80.1377 57.504 80.0239 57.2538 80.0239 57.2538L79.7239 57.2083L78.7489 57.341L75.8639 58.5698L75.5139 58.6948H75.5152Z" fill="#585136"/>
<path fill-rule="evenodd" clip-rule="evenodd" d="M76.573 58.808C76.573 58.808 75.3442 59.0812 75.3442 58.3038C75.3442 57.5453 76.1027 56.7488 76.2925 56.6086C76.4897 56.4681 76.96 56.3086 76.96 56.3086H78.094L78.31 56.8813L78.2152 58.1175L76.573 58.8078V58.808Z" fill="#252211"/>
<path fill-rule="evenodd" clip-rule="evenodd" d="M77.7073 56.5404C77.7073 56.5404 77.4723 56.3241 76.9375 56.6154C76.4028 56.9066 75.9703 57.5154 75.9438 58.0681C75.9173 58.5571 76.3458 58.9214 77.0133 58.9404C77.51 58.9592 77.8098 58.9024 77.9616 58.8654C77.9236 58.8199 77.7263 58.5734 77.7263 58.5734L77.7076 56.5406L77.7073 56.5404Z" fill="#C3B378"/>
<path fill-rule="evenodd" clip-rule="evenodd" d="M77.4759 56.6613C77.4759 56.6613 77.4191 56.6158 77.2509 56.7068C77.1106 56.7818 76.9059 56.98 76.7467 57.1203C76.6442 57.2038 76.5797 57.2415 76.5217 57.306C76.2864 57.5867 76.0892 58.0457 76.2032 58.2732C76.3172 58.5007 76.6924 58.7624 77.6481 58.5842L77.4731 56.6615L77.4759 56.6613Z" fill="#E6D89C"/>
<path fill-rule="evenodd" clip-rule="evenodd" d="M77.165 57.132C77.165 57.132 77.0132 57.3672 77.0132 57.7427C77.0132 58.1257 77.2295 58.7362 78.0259 58.7817C78.6364 58.8197 79.0459 57.902 79.4896 57.5455C79.8271 57.2725 80.0319 57.2647 80.0319 57.2647C80.0319 57.2647 79.6869 56.8897 78.7654 56.4039C77.8552 55.9147 76.835 55.8502 76.2812 56.6012C76.543 56.5822 77.3887 56.3659 77.3887 56.3659L77.8022 56.4987L77.165 57.1322V57.132Z" fill="#252211"/>
<path fill-rule="evenodd" clip-rule="evenodd" d="M78.3556 57.6284C78.3291 57.5716 78.3101 57.4956 78.4201 57.4769C78.5301 57.4581 78.5793 57.4691 78.6173 57.5519C78.6553 57.6346 78.6923 57.7036 78.6361 57.7379C78.5793 57.7681 78.4313 57.7379 78.3554 57.6279L78.3556 57.6284ZM78.1774 57.0936C78.1774 57.0936 78.1394 57.1201 78.1584 57.0671C78.1659 57.0029 78.2154 56.8889 78.3366 56.9156C78.4578 56.9424 78.4316 57.0749 78.4116 57.1129C78.3916 57.1509 78.2904 57.2151 78.2144 57.1879C78.2048 57.1854 78.1958 57.1807 78.1884 57.1741C78.1809 57.1676 78.1751 57.1594 78.1714 57.1501C78.1677 57.1409 78.1662 57.1309 78.1671 57.121C78.1679 57.1111 78.1711 57.1016 78.1764 57.0931L78.1774 57.0936Z" fill="#6F674D"/>
<path fill-rule="evenodd" clip-rule="evenodd" d="M67.9119 57.3366C67.9119 57.3366 68.2119 57.5616 68.5604 57.5528C68.9054 57.5451 69.3491 57.1888 69.5539 56.9611C69.6751 56.8283 69.7789 56.6881 69.8914 56.5781C69.9864 56.4833 70.0506 56.4378 70.0961 56.3733C70.1606 56.2983 70.2289 56.1573 70.2631 56.1116C70.1796 56.1761 70.0584 56.2901 69.9331 56.3658C69.8119 56.4408 69.5501 56.5818 69.4439 56.6198C69.3416 56.6578 68.2796 57.2198 68.2796 57.2198L67.9119 57.3366Z" fill="#AC924C"/>
<path fill-rule="evenodd" clip-rule="evenodd" d="M68.3701 54.5346C68.3701 54.5346 68.5369 54.4208 68.8594 54.3486C69.1704 54.2736 69.7961 54.2158 69.7961 54.2158L70.3119 54.4408L70.5166 55.2183L70.1416 56.0263L69.6639 56.3263L69.1214 55.4541L68.3714 54.5361L68.3701 54.5346Z" fill="#9F8E57"/>
<path fill-rule="evenodd" clip-rule="evenodd" d="M67.6951 55.2286L67.5166 55.3618C67.5166 55.3618 67.5624 55.2783 67.6001 55.0243C67.6379 54.7703 67.8354 54.1521 68.1236 53.7956C68.4119 53.439 68.4044 53.458 68.4044 53.458C68.3778 53.4532 68.3506 53.4541 68.3244 53.4606C68.2982 53.4671 68.2738 53.4791 68.2526 53.4958C68.2906 53.4118 68.5334 53.1118 68.7761 52.9618C69.0189 52.8118 69.1136 52.7645 69.3676 52.8868C69.6216 53.009 69.6861 53.0725 69.8721 53.065C70.0581 53.0575 70.2171 52.8603 70.2171 52.8603C70.2171 52.8603 70.2551 52.9815 70.1149 53.2623C69.9746 53.5431 69.4209 54.1156 69.4209 54.1156L68.2679 54.9043L67.6951 55.2293V55.2286Z" fill="#EAC970"/>
<path fill-rule="evenodd" clip-rule="evenodd" d="M68.5484 54.439C68.5484 54.439 69.3829 54.5528 69.6369 54.3178C69.6444 54.3443 69.6749 54.3443 69.6749 54.3633C69.6728 54.3776 69.6661 54.3909 69.6559 54.401C69.6835 54.3966 69.7114 54.3941 69.7394 54.3935C69.7728 54.4035 69.8071 54.4098 69.8419 54.4125C69.8698 54.4119 69.8977 54.4093 69.9254 54.4048C69.9227 54.4236 69.9163 54.4418 69.9065 54.4581C69.8967 54.4744 69.8838 54.4886 69.8684 54.4998C69.9064 54.4998 69.9434 54.5073 69.9434 54.5375C69.9434 54.5678 69.9509 54.659 69.9054 54.678C69.8677 54.6885 69.8275 54.6857 69.7916 54.6703C69.7946 54.7421 69.8141 54.8122 69.8486 54.8753C69.9236 55.0155 70.0836 55.1753 70.2986 55.1293C70.2986 55.1293 70.4121 55.4023 69.9344 56.009C69.8701 56.0925 69.8016 56.2063 69.7184 56.301C69.6855 56.3727 69.6603 56.4477 69.6434 56.5248C69.6434 56.5248 70.4514 56.2138 70.6826 55.5045C70.9179 54.7915 70.9634 54.09 70.9179 53.434C70.9101 53.248 70.8799 53.1155 70.8344 53.0205C70.7206 52.7853 70.4019 52.8233 70.2731 52.956C70.0871 53.142 69.7761 53.6045 69.3439 53.923C68.9039 54.2415 68.8851 54.298 68.5474 54.439H68.5484Z" fill="#D7BC6B"/>
<path fill-rule="evenodd" clip-rule="evenodd" d="M67.5473 55.4636C67.5473 55.4636 67.388 55.5583 67.3045 55.9136C67.221 56.2776 67.3795 56.7213 67.4713 56.8616C67.563 57.0018 67.7713 57.3851 68.2033 57.4041C68.3102 57.4035 68.416 57.3816 68.5143 57.3396C68.6651 57.2704 68.8066 57.1825 68.9353 57.0778C69.1213 56.9376 69.2728 56.8163 69.2538 56.8048C69.2083 56.7858 68.1086 55.8756 68.1086 55.8756L67.695 55.4141L67.547 55.4641L67.5473 55.4636Z" fill="#585136"/>
<path fill-rule="evenodd" clip-rule="evenodd" d="M68.587 56.9725C68.587 56.9725 68.8108 56.9538 68.9435 56.8703C69.0763 56.7868 68.166 55.8843 68.166 55.8843L68.2305 56.8593L68.587 56.9725Z" fill="#453A25"/>
<path fill-rule="evenodd" clip-rule="evenodd" d="M67.619 55.3945C67.619 55.3945 67.5052 55.6107 67.5052 55.6677C67.4862 55.8535 67.5432 56.4375 67.5887 56.6232C67.6342 56.8205 67.8807 57.12 68.1995 57.12C68.3965 57.12 68.6697 56.9987 68.6697 56.9685C68.6697 56.9305 68.389 56.8935 68.3132 56.7522C68.2677 56.6772 68.2487 56.4907 68.2382 56.3022C68.2307 56.181 68.2307 56.0482 68.2762 56.0022C68.3787 55.8885 68.3975 55.5622 68.3975 55.5622L68.7615 54.886H68.2827L67.71 55.2425L67.619 55.3945Z" fill="#84754B"/>
<path fill-rule="evenodd" clip-rule="evenodd" d="M67.4792 55.6039C67.4792 55.6039 67.8542 55.1072 68.1922 54.9932C68.5302 54.8792 68.6815 54.9477 68.6815 54.9477L68.4842 55.4522L68.2035 55.7632L68.2225 55.9224C68.2225 55.9224 68.1767 56.3434 68.4575 56.6354C68.7382 56.9274 68.9467 56.9161 69.0682 56.9161C69.1897 56.9161 69.5384 56.8136 69.7167 56.3926C69.8759 55.9984 70.0087 55.4927 69.6902 54.9857C69.379 54.4812 68.8292 54.4617 68.723 54.4617C68.6167 54.4617 67.7825 54.5034 67.4792 55.6032V55.6039Z" fill="#252211"/>
<path fill-rule="evenodd" clip-rule="evenodd" d="M77.1078 57.2917C76.9675 57.2272 77.1003 56.833 77.2405 56.7115C77.3808 56.59 77.559 56.45 77.8703 56.4307C77.9838 56.4232 78.0938 56.4952 78.075 56.5712C78.0485 56.7115 77.8513 56.9087 77.673 57.049C77.4265 57.2425 77.267 57.3637 77.1078 57.2917Z" fill="#F7F7E7"/>
<path fill-rule="evenodd" clip-rule="evenodd" d="M69.523 55.1404C69.6255 55.1329 69.7583 55.2154 69.7848 55.3264C69.8113 55.4476 69.7203 55.6904 69.523 55.6904C69.3638 55.6904 69.2803 55.4931 69.2803 55.4364C69.2821 55.3897 69.2951 55.3442 69.3183 55.3036C69.3258 55.2921 69.3448 55.1594 69.523 55.1404Z" fill="#F8F6DE"/>
<path fill-rule="evenodd" clip-rule="evenodd" d="M68.044 55.2285C68.044 55.2285 67.7822 55.3498 67.661 55.6035C67.5743 55.7909 67.5481 56.0005 67.586 56.2035C67.605 56.2982 67.6997 56.5332 67.7642 56.6167C67.8287 56.7002 67.916 56.7572 67.9805 56.7494C68.045 56.7417 68.1775 56.5712 68.1775 56.469C68.1775 56.3667 68.1852 55.9342 68.3102 55.699C68.4202 55.464 68.0447 55.2288 68.0447 55.2288L68.044 55.2285Z" fill="#D4C38B"/>
<path fill-rule="evenodd" clip-rule="evenodd" d="M68.082 55.2086C68.0365 55.2351 67.9607 55.2731 67.9795 55.3224C67.9985 55.3679 68.1577 55.3974 68.2147 55.5084C68.2792 55.6221 68.2792 55.7434 68.2602 55.8004C68.3098 55.7768 68.3547 55.7447 68.393 55.7054C68.4765 55.6106 68.5787 55.4819 68.666 55.4819C68.723 55.4819 68.7797 55.5084 68.833 55.5084C68.9165 55.5084 68.9997 55.4819 69.0112 55.3946C69.03 55.2809 68.852 55.1784 68.7495 55.1974C68.7685 55.1224 68.795 55.0117 68.7115 54.9357C68.628 54.8597 68.3665 54.9927 68.3095 55.0306C68.2525 55.0686 68.082 55.2089 68.082 55.2089V55.2086Z" fill="#E2D59D"/>
<path fill-rule="evenodd" clip-rule="evenodd" d="M74.1082 63.1775L74.6694 63.0117L74.8287 63.1255C74.8287 63.1255 74.9422 63.3682 75.1207 63.3985C75.0637 63.5197 74.9157 63.6235 74.9234 63.7095C74.9312 63.7955 75.0069 63.8612 75.0069 63.8612C75.0069 63.8612 74.5024 64.6955 75.4962 65.5362C75.2609 65.631 74.9614 65.7612 74.8022 65.8362C74.9157 65.8627 75.1584 65.9112 75.2609 66.0032C75.3634 66.0952 75.3634 66.1245 75.4582 66.1815C75.5529 66.2385 75.6097 66.3142 75.5909 66.3482C75.5264 66.3102 75.3102 66.1967 75.2724 66.3027C75.2347 66.4087 74.3357 66.3672 74.3357 66.3672L72.8187 66.6592C72.8187 66.6592 72.8754 66.5075 72.7162 66.3672C72.5304 66.2005 72.3029 66.3747 72.0602 66.189C71.7417 65.9462 71.7302 65.6655 71.6279 65.5595C71.7302 65.495 71.9389 65.4002 72.4357 65.3345C72.4167 65.2965 72.3522 65.1827 72.3902 65.0805C72.4357 64.9477 72.6252 64.8642 72.5684 64.7055C72.6519 64.6865 72.6897 64.6865 72.8984 64.4247C73.0957 64.163 73.2169 64.1062 73.3687 64.0872C73.5204 64.0682 73.6114 64.0872 73.8922 63.8255C74.0892 63.6397 74.0249 63.4805 74.0249 63.4805C74.0249 63.4805 74.1537 63.4387 74.1084 63.177L74.1082 63.1775Z" fill="#CBAC5A"/>
<path fill-rule="evenodd" clip-rule="evenodd" d="M72.4513 63.2618C72.4588 63.2239 72.4893 63.2049 72.694 63.2239C72.8988 63.2429 74.1958 63.1026 74.5486 63.0836C74.9051 63.0571 76.1603 63.0759 76.7711 63.2049C77.3818 63.3338 77.9998 63.4856 78.2993 63.5613C78.5993 63.6448 78.6938 63.6748 78.6823 63.7128C78.6748 63.7508 78.6073 63.7878 78.5686 63.7773C78.5308 63.7698 77.5371 63.4663 77.2301 63.4023C76.9231 63.3383 75.8608 63.1671 75.2801 63.1774C74.7378 63.1851 74.5216 63.1699 74.0628 63.2229C73.6038 63.2798 72.8453 63.3556 72.6178 63.3253C72.3928 63.2988 72.4393 63.2988 72.4508 63.2609L72.4513 63.2618Z" fill="#D6BC6F"/>
<path fill-rule="evenodd" clip-rule="evenodd" d="M75.5036 66.2344C75.5036 66.2344 76.2811 66.6554 76.5618 67.1712C76.7666 67.5541 76.4406 67.7439 76.4406 67.7439C76.4406 67.7439 76.8806 67.7439 76.8236 67.9866C76.7971 68.1381 76.0651 68.5476 75.5758 68.7639C75.0791 68.9801 75.0981 68.9689 74.8553 69.0066C74.6201 69.0446 73.9753 68.9316 73.8426 69.1204C73.7098 69.3091 73.7676 69.5036 73.8046 69.5339C73.8426 69.5604 74.1498 69.5984 74.1498 69.5984C74.1498 69.5984 74.0853 69.7766 73.4484 69.7956C72.8114 69.8146 72.6519 69.8599 72.6139 69.9284C72.5759 69.9926 72.7351 69.9549 73.0274 70.0034C73.3194 70.0489 73.7288 70.0784 73.7288 70.0784C73.7288 70.0784 73.5961 70.1921 73.2511 70.2831C72.8566 70.3854 72.2384 70.4804 72.0526 70.5941C72.1474 70.6586 72.2879 70.7533 72.3526 70.7608C72.1934 70.7988 71.9694 70.8823 71.9316 70.9126C71.9884 70.9506 72.0644 70.9961 72.0644 70.9961C72.0644 70.9961 71.7456 71.3791 71.5599 71.4741C71.3741 71.5691 70.3046 72.0656 69.9366 71.9708C69.0189 71.7281 68.9051 70.7231 68.6814 70.6474C68.3439 70.5336 68.1846 70.7608 67.8849 70.6016C68.0176 70.5069 68.0899 70.4501 68.2301 70.3856C68.0784 70.3106 67.2934 69.8129 67.2934 69.8129C67.2113 69.6339 67.1202 69.4593 67.0204 69.2896C66.8686 69.0279 66.6454 68.6789 66.4779 68.3716C66.1139 67.6966 66.0949 67.3856 65.7649 67.0027C65.8219 66.9277 66.0189 66.9382 66.0189 66.9382L68.7839 67.8484L73.6866 67.9904L74.9616 66.1702L75.5038 66.2347L75.5036 66.2344Z" fill="#DFC677"/>
<path fill-rule="evenodd" clip-rule="evenodd" d="M68.2415 69.0097C68.271 69.0426 68.3055 69.0708 68.3437 69.0932C68.4387 69.1577 68.579 69.2337 68.6737 69.3472C68.7117 69.2904 68.8065 69.1879 68.9737 69.3472C69.141 69.5064 69.3487 69.3929 69.478 69.4307C69.6107 69.4764 69.6182 69.4952 69.6182 69.4952C69.6182 69.4952 69.6932 69.4307 69.861 69.3624C69.9635 69.3244 70.0847 69.2979 70.2175 69.2602C70.3387 69.2337 70.4715 69.1957 70.5627 69.1957C70.6462 69.2524 70.9457 69.5707 72.148 69.1009C73.282 68.6609 73.5435 68.6117 73.7332 68.6797C73.7522 68.6342 73.7712 68.5469 74.0632 68.5584C74.0632 68.4372 73.8205 68.0237 73.8205 68.0237L72.4817 67.5649H71.7495L69.5537 67.9669L68.337 68.6612L68.2422 69.0112L68.2415 69.0097Z" fill="#C4A859"/>
<path fill-rule="evenodd" clip-rule="evenodd" d="M67.5093 68.2401C67.5093 68.2401 67.5358 68.4448 67.8393 68.6611C68.1393 68.8771 68.2335 69.0061 68.2335 69.0061C68.2335 69.0061 68.2905 68.9311 68.336 68.8546C68.3815 68.7711 68.4195 68.6763 68.4953 68.6498C68.647 68.5853 68.992 68.7066 69.068 68.6876C69.1325 68.6688 69.1135 68.5361 69.1818 68.5361C69.341 68.5283 69.4433 68.6383 69.5003 68.6383C69.5573 68.6383 69.6973 68.6308 69.7163 68.6006C69.7353 68.5703 69.7428 68.2553 69.959 68.1036C70.1943 67.9368 70.4825 68.0088 70.559 68.0468C70.559 68.1036 70.5665 68.2441 70.7183 68.2516C70.87 68.2591 70.885 68.2326 71.0183 68.2781C71.1515 68.3236 71.3103 68.2706 71.3823 68.4941C71.4468 68.4753 71.5985 68.4563 71.5605 68.2401C71.6355 68.1833 71.701 68.1453 71.8605 67.9216C71.8985 67.8648 71.9628 67.8003 72.0123 67.7168C72.145 67.7168 72.3043 67.6903 72.5165 67.8761C72.452 67.9216 72.414 67.9511 72.3953 67.9973C72.4508 68.0523 72.5015 68.1119 72.5468 68.1756C72.6038 68.2506 72.6418 68.3426 72.7138 68.3616C72.873 68.4071 73.1348 68.3426 73.4268 68.3616C73.7075 68.3806 73.9425 68.4828 74.045 68.5473C74.083 68.5286 74.083 68.5208 74.1778 68.5398C74.2725 68.5588 74.3445 68.5663 74.2423 68.4451C74.299 68.4716 74.3635 68.5286 74.4205 68.4716C74.4775 68.4146 74.5228 68.3313 74.682 68.3123C74.8413 68.2933 74.8983 68.3198 74.9628 68.1531C75.0463 67.9483 74.758 67.9483 74.758 67.9483C74.758 67.9483 74.8908 67.8268 75.0388 67.6676C75.217 67.5008 75.4218 67.2846 75.471 67.0191C75.5545 66.5298 75.0768 66.4656 75.0768 66.4656L72.7595 67.1786L69.9265 67.0381L67.5108 68.2403L67.5093 68.2401Z" fill="#927D49"/>
<path fill-rule="evenodd" clip-rule="evenodd" d="M65.4272 61.546C65.4272 61.546 65.3522 61.6408 65.3059 61.8645C65.2597 62.0883 65.2794 62.0618 65.2414 62.221C65.2034 62.3803 64.7367 63.9656 64.9117 64.5003C65.0867 65.0351 65.3897 65.2324 65.5792 65.6646C65.6172 65.7594 65.6542 65.8164 65.6739 65.8999C65.7384 66.1804 65.6817 66.3966 65.7574 66.6774C65.7839 66.7722 65.8524 66.8822 65.9547 66.9959C66.1797 67.2309 66.5464 67.4547 66.7047 67.6139C66.9282 67.8492 67.2469 68.3272 67.6527 68.3724C67.8689 68.3989 68.1762 68.3079 68.4302 68.1564C68.6552 68.0159 68.7941 67.8189 69.0301 67.7064C69.1969 67.6229 69.3751 67.5927 69.5344 67.5547C69.8644 67.4902 70.1641 67.4797 70.3424 67.5167C70.6154 67.5737 71.2601 67.7709 71.6174 67.7709C71.8965 67.7664 72.1741 67.7282 72.4441 67.6572C72.9864 67.4979 73.6424 67.2247 74.0749 67.1034C74.3289 67.0284 74.5336 67.0087 74.7424 66.9632C75.0989 66.8797 75.3984 66.7659 75.5691 66.5496C75.4554 66.4169 75.3151 66.2121 74.5564 66.2196C73.6956 66.2386 72.7019 66.7164 72.2126 66.7924C71.7234 66.8684 71.5111 66.9327 70.9649 66.7354C70.4294 66.5361 70.4116 66.4044 70.4116 66.4044C70.4116 66.4044 69.8494 66.0111 69.6141 65.0086C69.3789 64.0061 69.6141 63.2756 70.2249 62.5813C70.3841 62.403 70.3461 62.2438 70.3461 62.2438C70.3461 62.2438 70.7481 61.7015 70.6381 61.1938C70.5169 60.6893 69.7394 60.7918 69.7394 60.7918L65.4274 61.546H65.4272Z" fill="#6E6342"/>
<path fill-rule="evenodd" clip-rule="evenodd" d="M66.0756 63.2349C66.0421 63.2977 66.0264 63.3685 66.0301 63.4396C66.0376 63.5419 66.0681 63.6746 66.3751 63.9743C66.6368 64.2358 66.5798 64.5278 66.5798 64.5278C66.5798 64.5278 66.7116 64.5543 67.0691 64.3871C67.3498 64.2543 67.4441 64.4896 67.4441 64.4896C67.5258 64.4467 67.6144 64.4185 67.7058 64.4061C67.7887 64.3984 67.8688 64.3728 67.9408 64.3311C67.9408 64.3311 68.2708 64.6686 68.559 64.8278C68.8208 64.9683 68.9725 65.0631 69.1015 64.9683C69.2228 64.8848 69.2228 64.7141 69.215 64.6383C69.185 64.5684 69.1469 64.5022 69.1015 64.4411C69.018 64.3198 68.8853 64.1793 68.8765 64.0661C68.8575 63.8046 69.0738 63.4934 69.028 63.4176C68.9823 63.3419 68.812 63.3229 68.391 63.4746C67.9551 63.6186 66.0738 63.2356 66.0738 63.2356L66.0756 63.2349Z" fill="#39331F"/>
<path fill-rule="evenodd" clip-rule="evenodd" d="M67.0691 64.9298C67.0691 64.9298 66.8532 64.725 66.9289 63.7313C67.0206 63.73 67.1121 63.7389 67.2018 63.7578C67.2018 63.7578 67.3196 64.5278 67.0691 64.9298Z" fill="#292311"/>
<path fill-rule="evenodd" clip-rule="evenodd" d="M65.5296 60.7885C65.5597 60.7662 65.5877 60.7411 65.6131 60.7135C65.5381 60.8538 65.1918 61.415 65.4726 62.2987C65.7533 63.1785 66.4586 63.8345 67.3271 63.865C68.1956 63.8955 68.6521 63.4705 69.1741 62.8335C69.3788 62.5795 69.6141 62.2607 69.8226 62.0447C70.1336 61.707 70.3763 61.6123 70.3763 61.2863C70.3763 60.6188 69.6936 60.319 68.6886 60.0195C67.6836 59.72 66.7771 59.757 66.3068 59.962C65.8481 60.1855 65.6508 60.4208 65.5293 60.7888L65.5296 60.7885Z" fill="#252211"/>
<path fill-rule="evenodd" clip-rule="evenodd" d="M68.7569 65.2289L68.8318 65.1909C68.8318 65.1909 68.8506 64.8908 68.9721 64.8988C69.0933 64.9178 69.1503 65.0773 69.1388 65.1341C69.1313 65.1909 69.1011 65.2859 68.9796 65.2744C68.8203 65.2781 68.7561 65.2289 68.7561 65.2289H68.7569Z" fill="#3F3824"/>
<path fill-rule="evenodd" clip-rule="evenodd" d="M68.4194 63.9545C68.4194 63.9545 68.4944 63.928 68.5862 64.019C68.6612 64.019 68.9882 63.981 69.0907 64.0455C69.1932 64.11 69.2234 64.1667 69.2234 64.1667C69.2234 64.1667 68.8404 64.2502 68.6317 64.1667C68.4194 64.0947 68.4194 63.9545 68.4194 63.9545Z" fill="#2D2815"/>
<path fill-rule="evenodd" clip-rule="evenodd" d="M70.107 64.0109C70.107 63.9919 69.9023 63.8517 69.6861 63.806C69.6481 63.7985 69.6403 63.825 69.6111 63.825C69.5921 63.8175 69.5846 63.7605 69.5846 63.7605L69.4616 63.8252C69.4616 63.8252 69.4426 63.8517 69.5071 63.9002C69.5638 63.9457 69.6588 63.9837 69.6853 64.0594C69.7118 64.1352 69.7118 64.1616 69.7233 64.1731C69.7308 64.1806 69.8635 64.1731 69.928 64.1352C69.9925 64.0972 70.114 64.0352 70.1063 64.0102L70.107 64.0109Z" fill="#82764F"/>
<path fill-rule="evenodd" clip-rule="evenodd" d="M68.1921 64.7809C68.1921 64.7809 68.2299 64.5194 68.4841 64.5079C68.7456 64.4888 68.7951 64.7429 68.7951 64.7429L68.6434 64.8946C68.6434 64.8909 68.5296 64.7316 68.1934 64.7809H68.1921Z" fill="#2D2816"/>
<path fill-rule="evenodd" clip-rule="evenodd" d="M69.8419 63.6552C69.8419 63.6552 69.7014 63.807 69.3907 63.8526C69.3642 63.8146 69.3072 63.7388 69.3907 63.6175C69.4741 63.4962 69.5689 63.4582 69.6636 63.4959C69.7054 63.5027 69.7444 63.5213 69.776 63.5495C69.8076 63.5778 69.8305 63.6144 69.8419 63.6552Z" fill="#574F35"/>
<path fill-rule="evenodd" clip-rule="evenodd" d="M70.4141 63.8407C70.4219 63.8027 70.3954 63.7952 70.4141 63.7762C70.4329 63.7572 70.5356 63.7195 70.5546 63.7382C70.5621 63.746 70.5546 63.7762 70.5546 63.8132C70.5546 63.8502 70.5546 63.8882 70.5356 63.9155C70.5091 63.9535 70.4334 63.9725 70.3954 63.9612C70.3574 63.95 70.3499 63.8967 70.3499 63.8862C70.3686 63.8787 70.4141 63.8597 70.4141 63.8407ZM71.0616 63.4313C71.0616 63.4123 71.1261 63.3743 71.1641 63.3743C71.2209 63.3743 71.2209 63.4198 71.2286 63.4313C71.2474 63.4388 71.2474 63.4235 71.2664 63.4578C71.2854 63.492 71.3121 63.5525 71.2929 63.5905C71.2736 63.6285 71.1981 63.6547 71.1794 63.6472C71.1529 63.6282 71.0694 63.4578 71.0616 63.4313Z" fill="#82764F"/>
<path fill-rule="evenodd" clip-rule="evenodd" d="M69.7581 63.9285C69.7581 63.9285 69.8416 63.9472 69.9553 64.0422C69.9173 64.0687 69.8603 64.099 69.8603 64.099C69.8603 64.099 69.8528 64.0117 69.7581 63.9282V63.9285Z" fill="#6E6342"/>
<path fill-rule="evenodd" clip-rule="evenodd" d="M69.5726 63.0932C69.5536 63.0744 69.6293 63.0289 69.6748 63.0364C69.7203 63.0439 69.7393 63.0744 69.7886 63.0819C69.8378 63.0894 69.8456 63.0629 69.8636 63.0439C69.8816 63.0249 69.9471 63.0364 69.9583 63.0439C69.9653 63.0522 69.9717 63.0611 69.9773 63.0704C69.9781 63.056 69.9819 63.0419 69.9884 63.029C69.9949 63.0161 70.004 63.0046 70.0151 62.9954C70.0296 62.9847 70.0464 62.9775 70.0642 62.9742C70.0819 62.9709 70.1002 62.9716 70.1176 62.9764C70.1251 63.0029 70.1631 63.0977 70.1556 63.1167C70.1481 63.1357 70.0343 63.1624 70.0151 63.1432C70.0341 63.1889 70.1176 63.2837 70.1288 63.3024C70.1401 63.3212 70.0453 63.3669 70.0076 63.3594C69.9546 63.3557 69.6283 63.1659 69.5716 63.0939L69.5726 63.0932ZM70.0693 62.4636C70.0623 62.4445 70.0489 62.4284 70.0313 62.4181C70.0048 62.4106 69.9176 62.4181 69.9176 62.4636C69.9176 62.5091 69.9926 62.7636 70.0768 62.8961C70.1718 63.0289 70.2361 63.1387 70.3006 63.1692C70.3209 63.1784 70.3438 63.1796 70.365 63.1725C70.3861 63.1655 70.4037 63.1507 70.4144 63.1312C70.4219 63.1122 70.4409 62.9719 70.4334 62.6419C70.4259 62.3118 70.4144 61.9933 70.3954 61.9743C70.3764 61.9553 70.3006 61.9556 70.2741 61.9933C70.2476 62.0311 70.0768 62.4069 70.0691 62.4636H70.0693Z" fill="#585136"/>
<path fill-rule="evenodd" clip-rule="evenodd" d="M69.7316 64.4063C69.7316 64.4063 69.5988 64.3228 69.4698 64.3798C69.3485 64.4367 69.356 64.6604 69.356 64.6604C69.3833 64.6711 69.4128 64.6749 69.4419 64.6716C69.471 64.6683 69.4989 64.658 69.5231 64.6414C69.6066 64.5847 69.7126 64.49 69.7316 64.4065V64.4063Z" fill="#574F35"/>
<path fill-rule="evenodd" clip-rule="evenodd" d="M69.982 64.7052C69.9745 64.6302 69.907 64.6302 69.907 64.5915C69.9116 64.5729 69.9224 64.5565 69.9375 64.5448C69.9526 64.5331 69.9711 64.5268 69.9902 64.527C70.0282 64.527 70.0652 64.5725 70.1117 64.602C70.1572 64.6285 70.2255 64.677 70.233 64.7347C70.2405 64.7925 70.158 64.9507 70.0662 64.9507C69.9745 64.9507 70.0017 64.78 69.9827 64.7042L69.982 64.7052ZM70.714 64.6027C70.714 64.6027 70.5622 64.6482 70.5735 64.6027C70.5847 64.5572 70.6192 64.546 70.6685 64.546C70.6935 64.5198 70.7272 64.5035 70.7632 64.5002C70.7839 64.4992 70.8041 64.506 70.82 64.5192C70.82 64.5192 70.9225 64.4737 70.9527 64.5002C70.983 64.5267 70.9605 64.5267 70.9792 64.5572C71.0031 64.5911 71.0188 64.63 71.025 64.671C71.025 64.7012 70.9112 64.7657 70.82 64.7545C70.714 64.7317 70.7327 64.6217 70.714 64.6027ZM71.5975 64.432C71.5975 64.432 71.643 64.4585 71.6052 64.489C71.5787 64.5155 71.446 64.564 71.332 64.5725C71.2182 64.5725 71.116 64.5912 71.116 64.5535C71.116 64.5157 71.2107 64.4397 71.2675 64.4207C71.2789 64.4065 71.2933 64.395 71.3098 64.3871C71.3262 64.3792 71.3442 64.3751 71.3625 64.3752C71.408 64.3752 71.586 64.3562 71.6355 64.3487C71.681 64.341 71.719 64.3675 71.6922 64.4055C71.681 64.432 71.5975 64.432 71.5975 64.432ZM71.8592 63.2609C71.8592 63.2609 71.8022 63.3822 71.738 63.3822C71.6735 63.3747 71.6735 63.3557 71.6735 63.3367C71.6735 63.3102 71.738 63.2419 71.7302 63.2229C71.7115 63.2229 71.6657 63.2229 71.6735 63.1774C71.6735 63.1394 71.738 63.0939 71.7947 63.1024C71.8376 63.0672 71.891 63.0472 71.9465 63.0457C72.011 63.0457 72.0677 63.0644 72.0677 63.1024C72.0677 63.1404 71.9927 63.2237 71.9652 63.2429C71.935 63.2732 71.897 63.2929 71.8592 63.2617V63.2609ZM70.9945 65.5022C70.9945 65.5022 70.9195 65.51 70.9195 65.5477C70.9195 65.5667 70.9382 65.5667 70.965 65.5555C70.9804 65.5546 70.9957 65.552 71.0105 65.5477C71.018 65.5555 71.018 65.5933 71.075 65.5933C71.1218 65.5869 71.1669 65.5715 71.2077 65.5477C71.2532 65.529 71.2912 65.5097 71.2912 65.4727C71.2722 65.4082 71.2342 65.3777 71.1775 65.3777C71.1484 65.3759 71.1194 65.3825 71.094 65.3967C71.094 65.3967 71.075 65.3587 71.0105 65.3967C70.946 65.4347 70.9535 65.4347 70.9725 65.4537C71.0065 65.484 70.9952 65.5037 70.9952 65.5037L70.9945 65.5022ZM70.566 65.8968C70.566 65.8778 70.6607 65.8398 70.6872 65.8513C70.7137 65.8588 70.7895 66.0028 70.7895 66.018C70.7895 66.037 70.6947 66.0825 70.6567 66.0825C70.6187 66.0825 70.5545 66.018 70.5545 66.0075C70.5545 66 70.6 65.9888 70.6 65.981C70.6112 65.9623 70.566 65.9165 70.566 65.8975V65.8968ZM70.266 65.343C70.285 65.3355 70.285 65.3165 70.3115 65.2975C70.3198 65.292 70.3292 65.2884 70.3391 65.2871C70.349 65.2858 70.359 65.2868 70.3685 65.29C70.3752 65.2781 70.3844 65.2678 70.3956 65.2599C70.4067 65.2519 70.4195 65.2466 70.433 65.2442C70.4785 65.2367 70.5165 65.2442 70.508 65.2632C70.508 65.3202 70.546 65.358 70.546 65.4035C70.546 65.449 70.5195 65.506 70.4247 65.544C70.33 65.5705 70.201 65.5705 70.182 65.563C70.163 65.5555 70.144 65.4795 70.163 65.4415C70.182 65.4035 70.235 65.362 70.2655 65.343H70.266Z" fill="#82764F"/>
<path fill-rule="evenodd" clip-rule="evenodd" d="M70.3869 65.3689C70.3869 65.3689 70.3223 65.4069 70.3223 65.4259C70.3166 65.4442 70.3141 65.4634 70.3148 65.4826C70.3148 65.4939 70.3984 65.4751 70.4096 65.4636C70.4134 65.4561 70.3869 65.3886 70.3869 65.3689Z" fill="#6E6342"/>
<path fill-rule="evenodd" clip-rule="evenodd" d="M69.8224 65.191C69.8602 65.1987 69.9247 65.191 69.9739 65.21C70.0119 65.229 70.0384 65.2669 70.0004 65.3124C69.9624 65.3579 69.9254 65.4261 69.8412 65.4146C69.7464 65.4071 69.6554 65.3579 69.6554 65.3199C69.6538 65.2959 69.657 65.2718 69.6648 65.249C69.6727 65.2262 69.6849 65.2052 69.7009 65.1872C69.7389 65.157 69.7577 65.176 69.8222 65.191H69.8224Z" fill="#585136"/>
<path fill-rule="evenodd" clip-rule="evenodd" d="M69.777 65.2295C69.777 65.2295 69.6558 65.3242 69.6253 65.37C69.5873 65.4155 69.4015 65.6505 69.3448 65.6997C69.3636 65.6665 69.3851 65.6348 69.409 65.605C69.334 65.653 69.2778 65.7252 69.2498 65.8097C69.2042 65.9502 69.504 66.026 69.701 66.083C69.898 66.14 69.9743 66.158 69.9743 66.158C69.9017 66.049 69.8395 65.9335 69.7883 65.813C69.7133 65.6347 69.6745 65.6157 69.7238 65.5322C69.7618 65.4487 69.8188 65.392 69.8188 65.3275C69.796 65.2675 69.777 65.2295 69.777 65.2295Z" fill="#574F35"/>
<path fill-rule="evenodd" clip-rule="evenodd" d="M65.4536 65.5288C65.4812 65.5339 65.5095 65.5339 65.5371 65.5288C65.5939 65.5211 66.1856 65.3038 66.8039 65.3428C67.2667 65.3708 67.7254 65.4462 68.1729 65.5678C68.9504 65.7726 69.9173 66.1784 70.5431 66.4099C70.7098 66.4741 70.8731 66.5881 70.9931 66.6334C71.4711 66.8194 71.4898 66.8194 71.7706 66.8686C72.1006 66.9141 72.4381 66.8041 72.7908 66.7284C73.2231 66.6334 73.9626 66.5879 74.6111 66.4931C74.8208 66.4641 75.0276 66.4171 75.2293 66.3529C75.2293 66.3529 74.7136 66.8686 73.4771 67.0544C72.9773 67.1303 72.4694 67.1367 71.9678 67.0734C71.5733 67.0354 71.3118 66.9784 71.1146 66.9216C70.8908 66.8571 70.4318 66.6864 69.8668 66.5466C69.4724 66.4441 69.0324 66.3684 68.5281 66.2736C67.2841 66.0459 65.9341 65.7843 65.4531 65.5303L65.4536 65.5288Z" fill="#252211"/>
<path fill-rule="evenodd" clip-rule="evenodd" d="M64.058 63.1843C63.758 63.4383 63.4398 63.6811 63.129 63.9161L62.1923 64.6358C61.8738 64.8708 61.5628 65.1136 61.244 65.3488C60.9253 65.5841 60.607 65.8076 60.269 66.0238C60.569 65.7698 60.8873 65.5346 61.2058 65.3033C61.5243 65.0721 61.8545 64.8453 62.1618 64.6108L63.0985 63.8901C63.4208 63.6551 63.7318 63.4123 64.058 63.1848V63.1843ZM62.4008 65.8391C62.4008 65.8391 62.7383 65.5583 63.1593 65.1641C63.6825 64.6751 64.3235 64.0491 64.5283 63.9356L62.4005 65.8393L62.4008 65.8391Z" fill="#CFB66C"/>
<path fill-rule="evenodd" clip-rule="evenodd" d="M62.4006 65.8397C62.5676 65.673 62.7459 65.51 62.9241 65.3505L63.1971 65.1155C63.2806 65.0405 63.3756 64.9562 63.4589 64.8727C63.6256 64.706 63.7889 64.5275 63.9556 64.357C64.0383 64.2712 64.1257 64.1902 64.2174 64.1142C64.2632 64.0736 64.3142 64.0392 64.3689 64.0117C64.4146 63.9852 64.4639 63.9367 64.5281 63.9282C64.4904 63.9852 64.4449 64.0117 64.4069 64.061C64.3614 64.099 64.3234 64.1445 64.2856 64.1822C64.2021 64.2657 64.1074 64.3415 64.0239 64.4175C63.8456 64.5692 63.6599 64.7175 63.4816 64.8762C63.3034 65.035 63.1366 65.2062 62.9581 65.3655C62.7649 65.5287 62.5866 65.688 62.4006 65.8405V65.8397ZM64.6686 64.3227C64.6686 64.3227 63.4324 65.5327 63.1781 65.7297L64.6686 64.3227Z" fill="#CFB66C"/>
<path fill-rule="evenodd" clip-rule="evenodd" d="M64.6687 64.3218C64.5575 64.4505 64.4383 64.5721 64.3117 64.6858L63.9367 65.0423C63.8155 65.1635 63.7015 65.285 63.5727 65.4063C63.44 65.52 63.3187 65.6313 63.1782 65.7363L63.5422 65.3798C63.6637 65.2585 63.7965 65.1563 63.9255 65.0348L64.2895 64.6783C64.4145 64.5533 64.536 64.4318 64.6687 64.3218ZM64.7255 64.9778C64.6115 65.2958 64.4772 65.6062 64.3235 65.907C64.005 66.5443 63.5272 67.3405 63.3185 67.7465L64.7255 64.9778Z" fill="#CFB66C"/>
<path fill-rule="evenodd" clip-rule="evenodd" d="M64.7255 64.979C64.7255 65.1193 64.6875 65.2408 64.642 65.362C64.5977 65.4834 64.5471 65.6023 64.4905 65.7185C64.4335 65.8323 64.369 65.9538 64.3045 66.0638C64.24 66.1738 64.1643 66.2873 64.1073 66.4013L63.7243 67.0763C63.5915 67.3013 63.4625 67.5275 63.3223 67.7438C63.417 67.501 63.546 67.2735 63.6675 67.0498C63.8003 66.8248 63.9215 66.5998 64.0425 66.367C64.1016 66.251 64.1547 66.1321 64.2018 66.0108C64.2585 65.8893 64.3153 65.7755 64.361 65.6655C64.4178 65.5443 64.4633 65.4303 64.5203 65.3205C64.5845 65.2028 64.6378 65.089 64.725 64.979H64.7255Z" fill="#CFB66C"/>
<path fill-rule="evenodd" clip-rule="evenodd" d="M66.0757 68.0881C66.0757 68.0881 65.7007 68.5849 65.7382 69.2144C65.8405 68.8846 65.9695 68.3801 66.0757 68.0881ZM66.4322 68.5861C66.4322 68.5861 66.2995 69.9361 66.1895 70.5999C66.345 69.8326 66.3752 69.8971 66.4322 68.5861ZM68.9162 70.6796C68.9162 70.6796 68.3549 72.3296 68.3434 72.7881C68.4649 72.3166 68.6999 71.3534 68.9162 70.6784V70.6796Z" fill="#DEC270"/>
<path fill-rule="evenodd" clip-rule="evenodd" d="M70.2288 67.9863C70.2288 67.9863 71.139 69.4881 71.8218 70.7698C71.637 70.1248 71.212 68.9418 70.2288 67.9863Z" fill="#CBAF59"/>
<path fill-rule="evenodd" clip-rule="evenodd" d="M72.675 70.1975C73.1748 71.0809 73.6255 71.9912 74.025 72.9243C73.9493 72.2795 73.7443 71.176 72.675 70.1975Z" fill="#E3C677"/>
<path fill-rule="evenodd" clip-rule="evenodd" d="M79.8649 72.4106C80.0164 72.3158 80.3162 71.7998 80.5779 71.6711C80.8394 71.5383 81.0367 71.5118 81.2719 71.2501C81.5069 70.9768 81.5719 70.8101 82.0872 70.5941C82.8079 70.2828 82.3122 69.8808 82.3122 69.8808C82.3916 69.8029 82.4765 69.7307 82.5662 69.6648C82.7522 69.5246 82.9682 69.3538 82.9494 69.0541C82.9229 68.5498 82.8282 67.8178 82.4147 67.3931C82.8167 67.3096 83.5864 67.2528 84.0647 67.1316C84.6182 66.9911 84.8724 66.7938 84.8724 66.7938C84.8724 66.7938 84.5539 66.2516 85.0697 65.7056C85.5854 65.1596 86.0064 64.8333 86.3174 64.2226C85.9609 64.1771 85.4174 63.9876 84.0304 64.5146C84.1053 64.5498 84.1776 64.5903 84.2467 64.6358C84.2467 64.6358 83.3934 64.8711 83.0824 65.1328C82.5399 65.5916 82.4717 65.9671 81.8839 66.2478C81.2962 66.5286 80.7044 66.4526 80.2154 66.6801C79.7265 66.9076 79.6542 67.1011 79.4757 67.1846C79.5137 67.2301 79.4682 67.3058 79.5402 67.3703C79.4947 67.4348 79.2292 67.8671 78.96 67.8671C78.9865 67.9696 79.214 68.0453 79.214 68.0453C79.214 68.0453 79.0472 68.1668 78.6225 68.1971C78.8385 68.4221 79.0435 68.6673 79.6085 69.0238C79.563 69.1186 79.3732 69.2591 79.4492 69.4373C79.5327 69.6156 79.7492 69.8583 80.6134 70.0556C80.1734 70.0743 79.658 70.1768 78.9635 70.0821C78.2695 69.9986 78.1557 69.9493 77.7272 70.0556C77.7727 70.1011 77.894 70.1011 78.0002 70.2223C77.8865 70.2298 77.1735 70.1388 76.9307 70.4576C76.6767 70.7873 76.5667 71.3298 76.5857 71.6938C76.453 71.7583 76.324 71.8721 76.3885 72.1073C76.453 72.3426 76.7905 72.4183 77.0067 72.5661C77.2227 72.7253 77.2417 72.7821 77.4467 72.7443C77.6627 72.6988 77.9812 72.4828 78.1672 72.4828C78.3532 72.4828 78.4857 72.6231 78.4857 72.6231C78.4857 72.6231 78.9902 72.3803 79.0395 72.4258C79.085 72.4713 79.047 72.7633 79.0962 72.8088C79.1462 72.8431 79.7145 72.5056 79.8662 72.4106H79.8649Z" fill="#ECD592"/>
<path fill-rule="evenodd" clip-rule="evenodd" d="M90.8901 57.2347C88.5199 51.1137 82.6604 49.9797 82.6604 49.9797H65.9431L66.0076 56.2145H69.3369V70.1367H65.9429V76.3602H82.1976C86.1151 76.3602 89.2554 72.4235 89.2554 72.4235C94.2841 65.2862 90.8899 57.2347 90.8899 57.2347H90.8901ZM82.2849 68.229C82.2849 68.229 81.0099 70.0685 79.6226 70.0685H76.8476L76.7819 56.2297H80.3431C80.3431 56.2297 81.9931 56.5747 83.1459 59.84C83.1459 59.84 84.6741 64.515 82.2849 68.229Z" fill="white" fill-opacity="0.8"/>
</g>
<defs>
<filter id="filter0_d_70_125471" x="0.5" y="0.5" width="155" height="155" filterUnits="userSpaceOnUse" color-interpolation-filters="sRGB">
<feFlood flood-opacity="0" result="BackgroundImageFix"/>
<feColorMatrix in="SourceAlpha" type="matrix" values="0 0 0 0 0 0 0 0 0 0 0 0 0 0 0 0 0 0 127 0" result="hardAlpha"/>
<feOffset dy="15"/>
<feGaussianBlur stdDeviation="8.75"/>
<feComposite in2="hardAlpha" operator="out"/>
<feColorMatrix type="matrix" values="0 0 0 0 0.0352941 0 0 0 0 0.0470588 0 0 0 0 0.0627451 0 0 0 0.04 0"/>
<feBlend mode="normal" in2="BackgroundImageFix" result="effect1_dropShadow_70_125471"/>
<feBlend mode="normal" in="SourceGraphic" in2="effect1_dropShadow_70_125471" result="shape"/>
</filter>
</defs>
</svg>
