<svg width="156" height="156" viewBox="0 0 156 156" fill="none" xmlns="http://www.w3.org/2000/svg">
<g filter="url(#filter0_d_70_125467)">
<rect x="18" y="3" width="120" height="120" rx="60" fill="white" shape-rendering="crispEdges"/>
<path d="M63.8253 70.7132C64.0823 70.4675 64.4308 70.3294 64.7941 70.3294H98.3132C98.9238 70.3294 99.2294 71.0361 98.7975 71.4491L92.1742 77.7829C91.9172 78.0287 91.5688 78.1668 91.2055 78.1667H57.6863C57.0758 78.1667 56.7701 77.4601 57.202 77.047L63.8253 70.7132Z" fill="url(#paint0_linear_70_125467)"/>
<path d="M63.8253 47.0506C64.0823 46.8048 64.4307 46.6667 64.7941 46.6667H98.3132C98.9238 46.6667 99.2294 47.3734 98.7975 47.7865L92.1742 54.1203C91.9172 54.366 91.5688 54.5041 91.2055 54.5041H57.6863C57.0758 54.5041 56.7701 53.7974 57.202 53.3844L63.8253 47.0506Z" fill="url(#paint1_linear_70_125467)"/>
<path d="M92.1742 58.8065C91.9172 58.5608 91.5688 58.4228 91.2055 58.4228H57.6863C57.0758 58.4228 56.7701 59.1294 57.202 59.5424L63.8253 65.8762C64.0823 66.122 64.4307 66.2601 64.7941 66.2601H98.3132C98.9238 66.2601 99.2294 65.5534 98.7975 65.1403L92.1742 58.8065Z" fill="url(#paint2_linear_70_125467)"/>
</g>
<defs>
<filter id="filter0_d_70_125467" x="0.5" y="0.5" width="155" height="155" filterUnits="userSpaceOnUse" color-interpolation-filters="sRGB">
<feFlood flood-opacity="0" result="BackgroundImageFix"/>
<feColorMatrix in="SourceAlpha" type="matrix" values="0 0 0 0 0 0 0 0 0 0 0 0 0 0 0 0 0 0 127 0" result="hardAlpha"/>
<feOffset dy="15"/>
<feGaussianBlur stdDeviation="8.75"/>
<feComposite in2="hardAlpha" operator="out"/>
<feColorMatrix type="matrix" values="0 0 0 0 0.0352941 0 0 0 0 0.0470588 0 0 0 0 0.0627451 0 0 0 0.04 0"/>
<feBlend mode="normal" in2="BackgroundImageFix" result="effect1_dropShadow_70_125467"/>
<feBlend mode="normal" in="SourceGraphic" in2="effect1_dropShadow_70_125467" result="shape"/>
</filter>
<linearGradient id="paint0_linear_70_125467" x1="85.3942" y1="38.0262" x2="63.7565" y2="81.3311" gradientUnits="userSpaceOnUse">
<stop stop-color="#00FFA3"/>
<stop offset="1" stop-color="#DC1FFF"/>
</linearGradient>
<linearGradient id="paint1_linear_70_125467" x1="85.3942" y1="38.0262" x2="63.7565" y2="81.3311" gradientUnits="userSpaceOnUse">
<stop stop-color="#00FFA3"/>
<stop offset="1" stop-color="#DC1FFF"/>
</linearGradient>
<linearGradient id="paint2_linear_70_125467" x1="85.3942" y1="38.0262" x2="63.7565" y2="81.3311" gradientUnits="userSpaceOnUse">
<stop stop-color="#00FFA3"/>
<stop offset="1" stop-color="#DC1FFF"/>
</linearGradient>
</defs>
</svg>
