<svg width="156" height="156" viewBox="0 0 156 156" fill="none" xmlns="http://www.w3.org/2000/svg">
<g filter="url(#filter0_d_70_125473)">
<rect x="18" y="3" width="120" height="120" rx="60" fill="white" shape-rendering="crispEdges"/>
<path fill-rule="evenodd" clip-rule="evenodd" d="M63.1514 42.8152L54.6008 60.7721C54.5666 60.8371 54.5549 60.9116 54.5673 60.9841C54.5798 61.0565 54.6158 61.1228 54.6698 61.1727L77.7515 83.3015C77.8179 83.3613 77.9042 83.3945 77.9936 83.3945C78.083 83.3945 78.1692 83.3613 78.2356 83.3015L101.331 61.1727C101.385 61.1225 101.42 61.0562 101.433 60.9839C101.445 60.9116 101.434 60.8373 101.4 60.7721L92.8495 42.8152C92.8268 42.7527 92.7849 42.699 92.7299 42.6617C92.6749 42.6245 92.6095 42.6055 92.5431 42.6076H63.4548C63.3892 42.6094 63.3256 42.6299 63.2713 42.6666C63.217 42.7034 63.1743 42.755 63.1484 42.8152H63.1514Z" fill="#50AF95"/>
<path fill-rule="evenodd" clip-rule="evenodd" d="M80.971 62.6095C80.8056 62.6233 79.9491 62.6785 78.0424 62.6785C76.5234 62.6785 75.4455 62.6371 75.0587 62.6095C69.1885 62.3475 64.8098 61.3249 64.8098 60.1091C64.8098 58.8934 69.1885 57.8577 75.0587 57.5957V61.5876C75.4417 61.6152 76.5372 61.6841 78.0562 61.6841C79.8794 61.6841 80.791 61.6014 80.9572 61.5876V57.5957C86.8136 57.8577 91.1924 58.8804 91.1924 60.0954C91.1924 61.3103 86.8259 62.3475 80.971 62.6095ZM80.971 57.1951V53.6169H89.1486V48.1611H66.8819V53.6169H75.0587V57.1951C68.4148 57.5015 63.4148 58.8107 63.4148 60.3995C63.4148 61.9883 68.4148 63.2867 75.0587 63.6038V75.0555H80.971V63.6038C87.6011 63.2974 92.5881 61.9875 92.5881 60.4133C92.5881 58.839 87.6011 57.4985 80.971 57.1959V57.1951Z" fill="white"/>
</g>
<defs>
<filter id="filter0_d_70_125473" x="0.5" y="0.5" width="155" height="155" filterUnits="userSpaceOnUse" color-interpolation-filters="sRGB">
<feFlood flood-opacity="0" result="BackgroundImageFix"/>
<feColorMatrix in="SourceAlpha" type="matrix" values="0 0 0 0 0 0 0 0 0 0 0 0 0 0 0 0 0 0 127 0" result="hardAlpha"/>
<feOffset dy="15"/>
<feGaussianBlur stdDeviation="8.75"/>
<feComposite in2="hardAlpha" operator="out"/>
<feColorMatrix type="matrix" values="0 0 0 0 0.0352941 0 0 0 0 0.0470588 0 0 0 0 0.0627451 0 0 0 0.04 0"/>
<feBlend mode="normal" in2="BackgroundImageFix" result="effect1_dropShadow_70_125473"/>
<feBlend mode="normal" in="SourceGraphic" in2="effect1_dropShadow_70_125473" result="shape"/>
</filter>
</defs>
</svg>
