<svg width="156" height="156" viewBox="0 0 156 156" fill="none" xmlns="http://www.w3.org/2000/svg">
<g filter="url(#filter0_d_70_125461)">
<rect x="18" y="3" width="120" height="120" rx="60" fill="white" shape-rendering="crispEdges"/>
<path d="M65.8239 44.3013C67.115 44.6535 68.406 44.8882 69.6971 45.2403C70.9882 45.5924 72.2793 45.8272 73.5703 46.1793C73.9225 46.2967 74.0398 46.1793 74.1572 45.8272C74.6267 43.8319 75.0962 41.9539 75.5657 39.9586C75.683 39.6065 75.8004 39.4891 76.1525 39.6065C77.3262 39.9586 78.3826 40.1934 79.5563 40.4281C79.9084 40.5455 79.9084 40.6629 79.791 40.8976C79.3215 42.7755 78.852 44.7708 78.3826 46.6488C78.3826 46.7661 78.3826 46.8835 78.2652 47.1182C79.2042 47.353 80.2605 47.5877 81.1995 47.8225C81.3168 47.8225 81.4342 47.5877 81.5516 47.4704C81.9037 45.9445 82.2558 44.5361 82.7253 43.0103C82.8426 42.5408 82.96 42.0713 83.0774 41.6018C83.0774 41.3671 83.1948 41.2497 83.4295 41.3671C84.6032 41.7192 85.7769 41.9539 87.068 42.306C87.1854 42.306 87.1854 42.4234 87.3027 42.4234C86.9506 43.9492 86.5985 45.3577 86.2464 46.7661C86.129 47.353 86.0117 47.9398 85.7769 48.5267C85.6595 48.8788 85.7769 48.9962 86.129 49.1136C87.4201 49.7004 88.7112 50.2873 90.0023 50.8741C91.176 51.5783 92.2323 52.5173 93.0539 53.691C94.1102 55.4516 94.2276 57.3295 93.7581 59.2075C93.406 60.4985 92.9365 61.6722 91.9976 62.6112C91.2934 63.3154 90.3544 63.7849 89.4154 64.137C89.298 64.137 89.1807 64.2544 88.9459 64.2544C89.4154 64.6065 89.8849 64.8413 90.3544 65.1934C91.7628 66.2497 92.7018 67.5408 93.1713 69.184C93.406 70.4751 93.2887 71.8835 92.9365 73.1746C92.4671 74.8178 91.8802 76.2262 90.8239 77.5173C89.5328 79.0431 87.8896 79.8647 86.0117 80.0995C83.5469 80.4516 81.1995 80.2168 78.852 79.8647C78.4999 79.7474 78.2652 79.8647 78.1478 80.2168C77.6783 82.0948 77.2088 84.0901 76.7394 85.968C76.622 86.4375 76.622 86.5549 76.0351 86.3201C74.9788 86.0854 73.8051 85.7333 72.7488 85.4985C72.3966 85.3812 72.3966 85.2638 72.514 85.029C72.9835 83.0337 73.453 81.0384 74.0398 79.1605C74.0398 78.9258 74.1572 78.8084 73.9225 78.691C72.9835 78.4563 72.0445 78.2215 70.9882 77.9868C70.7534 79.0431 70.4013 80.0995 70.1666 81.1558C69.9318 82.2121 69.5797 83.2685 69.345 84.3248C69.2276 84.5596 69.2276 84.6769 68.8755 84.5596C67.7018 84.2075 66.5281 83.9727 65.3544 83.738C65.0023 83.6206 65.0023 83.5032 65.1196 83.2685C65.5891 81.2732 66.0586 79.2779 66.6455 77.3999C66.6455 77.2826 66.7628 77.1652 66.7628 76.9305C64.0633 76.2262 61.3638 75.522 58.5469 74.8178C58.7816 74.3483 58.899 73.9962 59.1337 73.5267C59.6032 72.4704 60.0727 71.414 60.4248 70.4751C60.5422 70.1229 60.6596 70.1229 61.0117 70.1229C61.8333 70.3577 62.7722 70.5924 63.5938 70.7098C64.5328 70.9445 65.237 70.4751 65.3544 69.6535C66.8802 63.6675 68.406 57.6816 69.8145 51.5783C70.0492 50.6394 69.4624 49.583 68.406 49.2309C67.3497 48.8788 66.2934 48.6441 65.3544 48.4093C65.1196 48.4093 65.0023 48.292 65.1196 48.0572C65.4718 46.7661 65.8239 45.3577 66.176 44.0666C65.7065 44.4187 65.7065 44.4187 65.8239 44.3013ZM71.8098 73.292C71.9272 73.292 72.0445 73.4093 72.0445 73.4093C73.9225 73.8788 75.9178 74.4657 77.9131 74.583C79.3215 74.7004 80.6126 74.7004 81.9037 74.2309C84.1337 73.5267 85.0727 70.5924 83.7816 68.7145C83.1948 67.7755 82.2558 67.1887 81.3168 66.6018C79.2041 65.4281 76.7394 64.9586 74.3919 64.4891C74.0398 64.3718 74.0398 64.4891 73.9225 64.8413C73.6877 66.015 73.3356 67.0713 73.1009 68.245C72.6314 69.8882 72.2793 71.5314 71.8098 73.292ZM81.6689 61.3201C81.9037 61.3201 82.4905 61.2028 82.96 61.0854C85.1901 60.6159 86.3638 58.0337 85.1901 56.0384C84.6032 54.9821 83.5469 54.2779 82.4905 53.8084C80.8473 53.1042 79.2041 52.7521 77.4436 52.2826C77.0915 52.1652 76.9741 52.2826 76.8567 52.6347C76.2699 55.0995 75.683 57.4469 74.9788 59.9117C74.8614 60.1464 74.9788 60.2638 75.2135 60.3812C75.683 60.4985 76.0351 60.6159 76.5046 60.7333C78.2652 60.968 79.791 61.3201 81.6689 61.3201Z" fill="#F5B300"/>
</g>
<defs>
<filter id="filter0_d_70_125461" x="0.5" y="0.5" width="155" height="155" filterUnits="userSpaceOnUse" color-interpolation-filters="sRGB">
<feFlood flood-opacity="0" result="BackgroundImageFix"/>
<feColorMatrix in="SourceAlpha" type="matrix" values="0 0 0 0 0 0 0 0 0 0 0 0 0 0 0 0 0 0 127 0" result="hardAlpha"/>
<feOffset dy="15"/>
<feGaussianBlur stdDeviation="8.75"/>
<feComposite in2="hardAlpha" operator="out"/>
<feColorMatrix type="matrix" values="0 0 0 0 0.0352941 0 0 0 0 0.0470588 0 0 0 0 0.0627451 0 0 0 0.04 0"/>
<feBlend mode="normal" in2="BackgroundImageFix" result="effect1_dropShadow_70_125461"/>
<feBlend mode="normal" in="SourceGraphic" in2="effect1_dropShadow_70_125461" result="shape"/>
</filter>
</defs>
</svg>
