<svg width="156" height="156" viewBox="0 0 156 156" fill="none" xmlns="http://www.w3.org/2000/svg">
<g filter="url(#filter0_d_70_125465)">
<rect x="18" y="3" width="120" height="120" rx="60" fill="white" shape-rendering="crispEdges"/>
<path d="M77.9117 39.5627L57.6096 51.2815V74.719L77.9117 86.4377L98.2139 74.719V51.2815L77.9117 39.5627Z" fill="url(#paint0_linear_70_125465)"/>
<path d="M77.9117 39.5627L57.6096 51.2815V74.719L77.9117 86.4377V39.5627Z" fill="url(#paint1_linear_70_125465)"/>
<path d="M85.8269 49.689H69.8936L68.0432 57.8099H87.78L85.8269 49.689ZM72.7204 68.9633V63.5665L67.9919 60.5854L62.6465 64.543L69.945 77.2384H72.8746L76.3183 74.0003V72.407L72.7204 68.9633Z" fill="white"/>
<path d="M83.0515 59.0432H72.772L74.4681 63.5662L73.9541 68.6545H81.8694L81.3554 63.5662L83.0515 59.0432Z" fill="white"/>
<path d="M87.7804 60.5332L83.1031 63.5657V68.9624L79.5566 72.4061V73.9994L83.0003 77.1861H85.8786L93.1258 64.5422L87.7804 60.5332Z" fill="white"/>
</g>
<defs>
<filter id="filter0_d_70_125465" x="0.5" y="0.5" width="155" height="155" filterUnits="userSpaceOnUse" color-interpolation-filters="sRGB">
<feFlood flood-opacity="0" result="BackgroundImageFix"/>
<feColorMatrix in="SourceAlpha" type="matrix" values="0 0 0 0 0 0 0 0 0 0 0 0 0 0 0 0 0 0 127 0" result="hardAlpha"/>
<feOffset dy="15"/>
<feGaussianBlur stdDeviation="8.75"/>
<feComposite in2="hardAlpha" operator="out"/>
<feColorMatrix type="matrix" values="0 0 0 0 0.0352941 0 0 0 0 0.0470588 0 0 0 0 0.0627451 0 0 0 0.04 0"/>
<feBlend mode="normal" in2="BackgroundImageFix" result="effect1_dropShadow_70_125465"/>
<feBlend mode="normal" in="SourceGraphic" in2="effect1_dropShadow_70_125465" result="shape"/>
</filter>
<linearGradient id="paint0_linear_70_125465" x1="77.8938" y1="39.5627" x2="77.8938" y2="86.409" gradientUnits="userSpaceOnUse">
<stop stop-color="#25376C"/>
<stop offset="1" stop-color="#1F1F49"/>
</linearGradient>
<linearGradient id="paint1_linear_70_125465" x1="67.753" y1="86.409" x2="67.753" y2="39.5627" gradientUnits="userSpaceOnUse">
<stop stop-color="#25376C"/>
<stop offset="1" stop-color="#1F1F49"/>
</linearGradient>
</defs>
</svg>
