<svg width="156" height="156" viewBox="0 0 156 156" fill="none" xmlns="http://www.w3.org/2000/svg">
<g filter="url(#filter0_d_70_125475)">
<rect x="18" y="3" width="120" height="120" rx="60" fill="white" shape-rendering="crispEdges"/>
<path d="M78 86.4375C90.9442 86.4375 101.438 75.9442 101.438 63C101.438 50.0558 90.9442 39.5625 78 39.5625C65.0558 39.5625 54.5625 50.0558 54.5625 63C54.5625 75.9442 65.0558 86.4375 78 86.4375Z" fill="#F00500"/>
<path d="M86.9474 64.4976C86.9327 64.5797 86.694 64.8228 86.4537 65.0015C85.7506 65.5157 84.4923 65.9947 83.2135 66.2247C82.4855 66.3565 81.7574 66.377 81.5377 66.2701C81.3956 66.1983 81.3751 66.1426 81.4264 65.9595C81.5333 65.5787 81.8805 65.1597 82.4195 64.7672C82.6949 64.5694 83.8111 63.8912 84.3297 63.6055C85.1852 63.1368 85.878 62.8585 86.3468 62.7911C86.4947 62.7706 86.6735 62.7647 86.7277 62.7911C86.8214 62.8262 86.9225 63.0972 86.962 63.4224C86.984 63.5953 86.9737 64.3599 86.9474 64.4976ZM74.9459 66.1837C74.9166 66.2452 74.7628 66.3111 74.59 66.336C74.4156 66.3624 73.8868 66.3463 73.5865 66.3111C72.5055 66.1675 71.36 65.8365 70.525 65.4293C70.0563 65.2008 69.7194 64.9708 69.4703 64.7217L69.3268 64.5738L69.3121 64.3804C69.2858 64.0435 69.2916 63.5147 69.3326 63.3258C69.3591 63.1683 69.4127 63.0167 69.4908 62.8775C69.5304 62.8262 69.5304 62.8262 69.715 62.8262C69.9391 62.8262 70.1266 62.8614 70.4327 62.9581C71.0597 63.1529 71.9913 63.6216 73.128 64.3043C74.0655 64.8638 74.4171 65.1392 74.6866 65.5157C74.8697 65.7501 74.9913 66.0811 74.9459 66.1837ZM82.1603 73.275C82.1603 73.2896 82.0987 73.5342 82.0226 73.8243C81.9735 74.0022 81.9276 74.1809 81.8849 74.3604C81.8278 74.3648 81.7779 74.3707 81.7208 74.3648H81.5597L81.3341 74.8951C81.2125 75.1851 81.0997 75.4547 81.0851 75.4957L81.0543 75.5675L80.9474 75.3931L80.8404 75.2203V73.8096L80.7994 73.8199C80.7115 73.8404 80.0963 73.9224 79.8268 73.9473C78.7122 74.0585 77.5884 74.0344 76.4796 73.8756C76.3681 73.8563 76.2556 73.8426 76.1427 73.8345C76.1383 73.8404 76.1427 74.1656 76.1529 74.5684L76.1676 75.2921L76.0826 75.4239C76.0358 75.4957 75.9903 75.5557 75.9903 75.5616C75.9757 75.5762 75.9244 75.4957 75.8072 75.2613C75.6812 75.0154 75.5853 74.7552 75.5216 74.4864L75.4864 74.3399L75.3282 74.3487L75.17 74.3648L75.129 74.1759C75.1067 74.0613 75.0881 73.946 75.0734 73.8301L75.0587 73.6676L74.9269 73.5504L74.7584 73.4068C74.732 73.3863 74.7218 73.3511 74.7218 73.3204V73.2589L75.359 73.2647L75.9962 73.2691L76.0153 73.335L76.0358 73.4024L76.2555 73.4127L77.111 73.4376L77.7482 73.4522L77.9108 73.1988L78.0792 72.9439H78.2931L78.2887 72.4136L78.2828 71.8834L78.003 71.7618C77.1007 71.3648 76.5719 70.9122 76.3727 70.3614C76.3317 70.2486 76.3317 70.2076 76.3214 69.6993C76.317 69.1939 76.317 69.1485 76.3522 69.0357C76.3866 68.911 76.4531 68.7974 76.5451 68.7064C76.6372 68.6154 76.7514 68.5502 76.8766 68.5172C76.9645 68.4908 77.193 68.4908 78.3956 68.4908L79.8107 68.4967L79.9689 68.5728C80.1213 68.6355 80.2532 68.7395 80.3497 68.8731C80.4728 69.0357 80.5094 69.1632 80.5094 69.4737C80.5094 69.9176 80.4786 70.2999 80.4332 70.4522C80.3657 70.6618 80.2659 70.8595 80.1373 71.0382C79.8824 71.3648 79.4195 71.69 78.9947 71.838L78.8732 71.8834L78.879 72.4195L78.8834 72.9542L78.9962 72.9644L79.1075 72.9747L79.2613 73.2032L79.4078 73.4332H80.0919C80.4684 73.4332 80.7994 73.4376 80.8302 73.442C80.8815 73.4537 80.8917 73.4478 80.9415 73.3614L81.003 73.2691H81.589C82.0284 73.2486 82.1603 73.2589 82.1603 73.275Z" fill="black"/>
<path d="M79.4692 74.7361C79.3726 74.7917 79.3066 74.8167 79.292 74.8079C79.2773 74.802 79.2041 74.7405 79.1279 74.6848L78.9902 74.5735L78.8481 74.7258C78.5376 75.0627 78.5259 75.0774 78.4351 75.0818C78.293 75.0964 78.2622 75.0715 78.0894 74.8123C77.9971 74.6804 77.9268 74.5676 77.9268 74.5676C77.9268 74.5676 77.8594 74.5574 77.7832 74.553L77.6411 74.5383L77.5752 74.6746L77.5078 74.8123L77.3906 74.7771C77.2988 74.7468 77.2088 74.7111 77.1211 74.6702L76.9688 74.594V74.3025L78.3237 74.3083L79.6787 74.3127L79.6831 74.4504C79.689 74.613 79.6934 74.6086 79.4692 74.7361Z" fill="black"/>
<path d="M92.2047 68.5229C92.2003 68.501 92.2003 68.4644 92.196 68.4102C90.7733 68.2754 89.3381 68.4235 87.973 68.8459C86.6079 69.2683 85.3398 69.9565 84.2419 70.8711C84.2419 70.8711 83.1989 66.0811 78.3092 66.0811C73.4167 66.0811 71.6046 70.8711 71.6046 70.8711C68.8639 67.9209 65.196 68.1348 63.8703 68.3281L63.8659 68.4248C63.8249 69.1631 63.8454 69.5146 63.9684 69.9775C64.3493 71.4307 65.527 73.0303 67.3712 74.5991C70.3918 77.167 74.4875 79.02 77.59 79.2353C80.8244 79.4551 85.5983 77.564 88.777 74.8027C89.2751 74.3603 89.7438 73.8916 90.1833 73.3921C90.4982 73.0259 90.9669 72.3931 90.9318 72.3931C90.9215 72.3931 90.9318 72.3828 90.9523 72.3726C90.9669 72.3623 90.9816 72.3477 90.9728 72.3374C90.967 72.3315 90.9772 72.3169 90.9933 72.3125C91.008 72.3066 91.0182 72.2978 91.0138 72.2861C91.008 72.2759 91.0138 72.2656 91.0343 72.2612C91.049 72.2554 91.0548 72.2407 91.049 72.2305C91.0431 72.2202 91.049 72.21 91.0592 72.21C91.0695 72.21 91.0797 72.1953 91.0797 72.1851C91.0797 72.1748 91.09 72.1587 91.1003 72.1587C91.1105 72.1587 91.1208 72.1484 91.1208 72.1382C91.1377 72.0965 91.1598 72.0571 91.1867 72.021C91.2629 71.9038 91.5675 71.3589 91.61 71.2681C91.9001 70.6103 92.0832 70.0244 92.1696 69.4385C92.2003 69.1587 92.2253 68.6445 92.2047 68.5215V68.5229ZM79.4694 74.7368C79.3727 74.7925 79.3068 74.8174 79.2921 74.8086C79.2775 74.8027 79.2043 74.7412 79.1281 74.6855L78.9904 74.5742L78.8483 74.7266C78.5378 75.0635 78.526 75.0781 78.4352 75.0825C78.2931 75.0972 78.2624 75.0723 78.0895 74.813C77.9972 74.6811 77.9269 74.5684 77.9269 74.5684C77.9269 74.5684 77.8595 74.5581 77.7834 74.5537L77.6413 74.5391L77.5753 74.6753L77.508 74.813L77.3908 74.7778C77.2989 74.7475 77.2089 74.7118 77.1212 74.6709L76.9689 74.5947V74.3032L78.3239 74.3091L79.6789 74.3135L79.6833 74.4512C79.6891 74.6138 79.6935 74.6094 79.4694 74.7368ZM82.0182 73.8198C81.9692 73.9973 81.9228 74.1756 81.8791 74.3545C81.8234 74.3589 81.7721 74.3647 81.7165 74.3589H81.5539L81.3341 74.895C81.2126 75.1851 81.0998 75.4546 81.0851 75.4956L81.0544 75.5674L80.9474 75.3931L80.8405 75.2202V73.8096L80.7995 73.8198C80.7116 73.8403 80.0963 73.9224 79.8268 73.9473C78.7123 74.0584 77.5884 74.0343 76.4796 73.8755C76.3681 73.8563 76.2556 73.8426 76.1427 73.8345C76.1383 73.8403 76.1427 74.1655 76.153 74.5684L76.1676 75.292L76.0827 75.4238C76.0358 75.4956 75.9904 75.5557 75.9904 75.5615C75.9757 75.5762 75.9245 75.4956 75.8073 75.2612C75.6813 75.0153 75.5854 74.7552 75.5216 74.4863L75.4865 74.3398L75.3283 74.3501L75.1701 74.3647L75.1291 74.1758C75.1067 74.0612 75.0881 73.9459 75.0734 73.8301L75.0587 73.6675L74.9269 73.5503C74.8719 73.5011 74.8157 73.4533 74.7585 73.4067C74.7321 73.3862 74.7218 73.3511 74.7218 73.3203V73.2588L75.359 73.2646L75.9962 73.269L76.0153 73.335L76.0358 73.4023L76.2555 73.4126L77.111 73.4375L77.7482 73.4521L77.9108 73.1987L78.0793 72.9438H78.2931L78.2887 72.4136L78.2829 71.8833L78.0031 71.7617C77.1007 71.3647 76.5719 70.9121 76.3727 70.3613C76.3317 70.2485 76.3317 70.2075 76.3214 69.6992C76.317 69.1938 76.317 69.1484 76.3522 69.0356C76.3866 68.9109 76.4532 68.7973 76.5452 68.7064C76.6372 68.6154 76.7515 68.5501 76.8766 68.5171C76.9645 68.4907 77.193 68.4907 78.3957 68.4907L79.8107 68.4966L79.9689 68.5728C80.1213 68.6355 80.2532 68.7395 80.3498 68.873C80.4728 69.0356 80.5094 69.1631 80.5094 69.4736C80.5094 69.9175 80.4787 70.2998 80.4333 70.4521C80.3658 70.6617 80.2659 70.8594 80.1374 71.0381C79.8825 71.3647 79.4196 71.6899 78.9948 71.8379L78.8732 71.8833L78.8791 72.4194L78.8835 72.9541L78.9962 72.9644L79.1076 72.9746L79.2614 73.2031L79.4079 73.4331H80.092C80.4684 73.4331 80.7995 73.4375 80.8302 73.4419C80.8815 73.4536 80.8918 73.4478 80.9416 73.3613L81.0031 73.269H81.589C82.0431 73.269 82.175 73.2749 82.175 73.2895C82.1603 73.2852 82.0929 73.5342 82.0168 73.8198H82.0182Z" fill="white"/>
<path d="M92.165 68.0027C92.1547 67.766 92.1391 67.5296 92.1182 67.2937C91.8984 64.9807 91.3081 63.091 90.1875 61.0886C90.1456 61.0199 90.1084 60.9485 90.0762 60.8747C90.0659 60.8601 90.0615 60.8454 90.0557 60.8352C90.2139 60.3606 90.8613 58.3786 91.374 56.1125C92.0728 53.0363 92.5166 49.4387 91.1616 48.3591C91.1616 48.3591 88.8179 48.1862 85.6802 51.2624C84.8291 52.112 84.0498 53.0349 83.3569 54.0178L83.1372 53.9475C81.8764 53.5346 80.5689 53.2812 79.2451 53.1931C78.8481 53.1638 77.3657 53.1638 76.8823 53.1931C75.4204 53.2898 74.2983 53.5095 73.0254 53.9519C72.9786 53.9704 72.9312 53.9875 72.8833 54.0031C72.1652 53.0225 71.3623 52.1068 70.4839 51.2668C67.2173 48.176 64.7871 48.3547 64.7871 48.3547C63.3516 49.4694 63.8408 53.2297 64.582 56.4084C64.9501 57.9681 65.389 59.5102 65.8975 61.03C65.8809 61.0681 65.8623 61.1052 65.8418 61.1413C64.6553 63.5466 64.0122 65.864 63.8599 68.3293C65.1885 68.136 68.8521 67.9162 71.5972 70.8708C71.5972 70.8708 73.4106 66.0822 78.3018 66.0822C83.1914 66.0822 84.2358 70.8723 84.2358 70.8723C85.3343 69.9591 86.6023 69.2716 87.9669 68.8493C89.3316 68.4271 90.7662 68.2782 92.1885 68.4113L92.1636 68.0027H92.165ZM66.8613 59.1081C66.8613 59.1081 64.957 54.3444 65.4448 51.6228C65.5269 51.1657 65.6792 50.7629 65.9194 50.4582C65.9194 50.4582 68.0786 50.6721 71.5635 54.5437C71.5635 54.5437 70.9014 54.8645 70.0151 55.5471C70.0151 55.5471 70.0093 55.5515 70.0049 55.5515C68.7351 56.5207 67.6672 57.7289 66.8613 59.1081ZM74.9473 66.1833C74.915 66.2448 74.7627 66.3108 74.5898 66.3357C74.4155 66.362 73.8867 66.3459 73.5864 66.3108C72.5054 66.1672 71.3599 65.8362 70.5249 65.4289C70.0562 65.2004 69.7192 64.9704 69.4702 64.7214L69.3267 64.5735L69.312 64.3801C69.2856 64.0432 69.2915 63.5144 69.3325 63.3254C69.359 63.168 69.4125 63.0163 69.4907 62.8772C69.5303 62.8259 69.5303 62.8259 69.7148 62.8259C69.939 62.8259 70.1265 62.8611 70.4326 62.9577C71.0596 63.1526 71.9912 63.6213 73.1279 64.3039C74.0654 64.8635 74.417 65.1389 74.6865 65.5153C74.8696 65.7497 74.9912 66.0808 74.9458 66.1833H74.9473ZM86.9473 64.4973C86.9326 64.5793 86.6938 64.8225 86.4536 65.0012C85.7505 65.5153 84.4922 65.9944 83.2134 66.2243C82.4854 66.3562 81.7573 66.3767 81.5376 66.2697C81.3955 66.198 81.375 66.1423 81.4263 65.9592C81.5332 65.5783 81.8804 65.1594 82.4194 64.7668C82.6948 64.5676 83.811 63.8908 84.3296 63.6052C85.1851 63.1364 85.8779 62.8581 86.3467 62.7907C86.4946 62.7702 86.6733 62.7644 86.729 62.7907C86.8213 62.8259 86.9224 63.0969 86.9634 63.4221C86.9839 63.5949 86.9736 64.3596 86.9487 64.4973H86.9473ZM86.1021 55.5471L86.0918 55.5412C85.6257 55.1601 85.1244 54.8241 84.5947 54.5378C87.9624 50.6662 90.0439 50.4524 90.0439 50.4524C90.2739 50.7629 90.4219 51.1599 90.5039 51.6184C90.977 54.3386 89.1387 59.1067 89.1387 59.1067C88.367 57.7344 87.3356 56.5254 86.1021 55.5471Z" fill="#FFA409"/>
<path d="M90.5098 51.6184C90.1113 51.5686 88.2319 51.5583 86.1021 55.5471L86.0918 55.5413C85.6257 55.1601 85.1244 54.8241 84.5947 54.5378C87.9624 50.6663 90.0439 50.4524 90.0439 50.4524C90.2783 50.7629 90.4277 51.1599 90.5083 51.6184H90.5098Z" fill="#FF9300"/>
<path d="M89.1431 59.1082C88.3713 57.7343 87.3382 56.5245 86.1021 55.5472C88.2319 51.5584 90.1069 51.5686 90.5083 51.6184C90.9829 54.3445 89.1431 59.1082 89.1431 59.1082ZM90.5845 51.6331L90.5083 51.6184L90.5845 51.6331Z" fill="#FF8300"/>
<path d="M71.5635 54.5378C71.5635 54.5378 70.9014 54.8601 70.0151 55.5413C70.0151 55.5413 70.0093 55.5471 70.0049 55.5471C67.7988 51.5525 65.8564 51.5686 65.4404 51.6184C65.521 51.1599 65.6748 50.7585 65.9136 50.4524C65.9194 50.4524 68.0786 50.6663 71.5635 54.5393V54.5378Z" fill="#FF9300"/>
<path d="M70.0091 55.5472C68.7368 56.5161 67.6673 57.7255 66.8612 59.1067C66.8612 59.1067 64.9569 54.3445 65.4447 51.6184C65.8578 51.5686 67.8031 51.5584 70.0091 55.5472Z" fill="#FF8300"/>
<path d="M65.4463 51.6177L65.3643 51.6323L65.4448 51.6177H65.4463Z" fill="#FF8300"/>
<path d="M83.9883 61.7516C83.9883 61.7516 82.3579 61.8527 82.5616 60.5797C82.7666 59.3053 84.0396 59.153 84.3955 59.2028C84.753 59.2541 86.1783 59.7638 85.9248 60.8346C85.67 61.904 85.3125 61.6989 85.1089 61.7516C84.9053 61.8014 83.9883 61.7516 83.9883 61.7516ZM71.9649 61.7516C71.9649 61.7516 70.336 61.8527 70.5396 60.5797C70.7447 59.3053 72.0161 59.153 72.3736 59.2028C72.7295 59.2541 74.1563 59.7638 73.9014 60.8346C73.6465 61.904 73.2906 61.6989 73.087 61.7516C72.8819 61.8014 71.9663 61.7516 71.9663 61.7516H71.9649Z" fill="white"/>
</g>
<defs>
<filter id="filter0_d_70_125475" x="0.5" y="0.5" width="155" height="155" filterUnits="userSpaceOnUse" color-interpolation-filters="sRGB">
<feFlood flood-opacity="0" result="BackgroundImageFix"/>
<feColorMatrix in="SourceAlpha" type="matrix" values="0 0 0 0 0 0 0 0 0 0 0 0 0 0 0 0 0 0 127 0" result="hardAlpha"/>
<feOffset dy="15"/>
<feGaussianBlur stdDeviation="8.75"/>
<feComposite in2="hardAlpha" operator="out"/>
<feColorMatrix type="matrix" values="0 0 0 0 0.0352941 0 0 0 0 0.0470588 0 0 0 0 0.0627451 0 0 0 0.04 0"/>
<feBlend mode="normal" in2="BackgroundImageFix" result="effect1_dropShadow_70_125475"/>
<feBlend mode="normal" in="SourceGraphic" in2="effect1_dropShadow_70_125475" result="shape"/>
</filter>
</defs>
</svg>
