<svg width="156" height="156" viewBox="0 0 156 156" fill="none" xmlns="http://www.w3.org/2000/svg">
<g filter="url(#filter0_d_70_125463)">
<rect x="18" y="3" width="120" height="120" rx="60" fill="white" shape-rendering="crispEdges"/>
<path d="M78.2923 39.6663V56.8441C78.2923 56.917 78.2194 56.99 78.1465 56.99C77.636 57.2129 77.1985 57.4337 76.6881 57.6546C76.0318 57.9483 75.3026 58.2442 74.6463 58.6129L72.24 59.7172L70.2711 60.6026L67.8648 61.7089C67.2085 62.0048 66.5522 62.2985 65.823 62.6673C65.3126 62.8881 64.7292 63.184 64.2188 63.4048C64.1458 63.4048 64.1458 63.4777 64.0729 63.4048H64C64.2188 63.0361 64.4375 62.7402 64.6563 62.3735C65.823 60.3818 67.0626 58.3921 68.2294 56.4003C69.469 54.2648 70.7816 52.1252 72.0212 49.9876C73.1879 47.9979 74.3546 46.0082 75.5213 44.0915C76.3964 42.6143 77.2714 41.2163 78.0735 39.7392C78.2194 39.7392 78.2194 39.6663 78.2923 39.6663C78.2923 39.6663 78.2194 39.6663 78.2923 39.6663Z" fill="#8C8C8C"/>
<path d="M92.4386 63.4045C91.3448 64.1421 90.1781 64.8046 89.0843 65.4671C85.5112 67.6068 82.0111 69.6715 78.438 71.8091C78.3651 71.8091 78.3651 71.882 78.2922 71.882C78.2192 71.882 78.2192 71.8091 78.2192 71.8091V56.9897C78.2192 56.9167 78.2922 56.9167 78.3651 56.9167C78.6568 57.0626 78.9484 57.2126 79.313 57.3584C80.1881 57.8022 81.136 58.171 82.0111 58.6127C82.8132 58.9814 83.5424 59.3502 84.3445 59.644C85.1466 60.0127 85.8758 60.3815 86.678 60.7503C87.3342 61.0461 88.0634 61.3399 88.7197 61.7086C89.376 62.0045 90.1052 62.2982 90.7615 62.667C91.2719 62.8878 91.7823 63.1837 92.3657 63.4045C92.3657 63.3316 92.3657 63.4045 92.4386 63.4045Z" fill="#141414"/>
<path d="M78.2921 86.3324C78.2192 86.3324 78.2921 86.3324 78.2921 86.3324C78.2192 86.3324 78.2192 86.3324 78.1463 86.2574C76.6879 84.1948 75.3024 82.2031 73.844 80.1384L69.4688 73.9465C68.0834 71.9568 66.625 69.9671 65.2395 67.9004L64.1457 66.3524C64.1457 66.2795 64.0728 66.2795 64.0728 66.2065C64.1457 66.2065 64.1457 66.2795 64.2186 66.2795C66.1874 67.4587 68.2292 68.6379 70.198 69.8171C72.4585 71.2193 74.792 72.5464 77.0525 73.9465C77.4171 74.1673 77.8546 74.3882 78.2192 74.609C78.2921 74.609 78.2921 74.684 78.2921 74.7569V86.3324Z" fill="#8C8C8C"/>
<path d="M64 62.6331C64 62.5602 64 62.5602 64 62.6331C64.7292 62.2644 65.4584 61.9706 66.1876 61.6018L69.0315 60.2747C69.7607 59.9059 70.4899 59.6122 71.2191 59.2434C72.24 58.7267 73.3338 58.285 74.3546 57.7683C75.0838 57.4725 75.813 57.1037 76.5422 56.81C77.0527 56.5891 77.5631 56.3683 78.0735 56.0724C78.1465 56.0724 78.1465 55.9995 78.2194 55.9995V71.0377C78.1465 71.1127 78.1465 71.0377 78.0735 71.0377C77.8548 70.8918 77.636 70.8168 77.4902 70.6689L64.1458 62.7081C64.0729 62.6331 64 62.6331 64 62.6331ZM92.22 65.3624C92.22 65.4354 92.22 65.4353 92.1471 65.5083C87.9177 71.5544 83.6884 77.5255 79.459 83.5716C79.0215 84.2341 78.584 84.8237 78.1465 85.4883V73.7649C79.0944 73.1753 80.0424 72.5857 80.9903 72.0711L92.1471 65.4353C92.1471 65.3624 92.22 65.3624 92.22 65.3624Z" fill="#3C3C3B"/>
<path d="M78.2922 56.9173V39.7437L92.2929 63.1864C92.3658 63.2593 92.4387 63.3322 92.4387 63.4072C92.147 63.2614 91.8553 63.1114 91.4907 62.9655C91.1261 62.8176 90.7615 62.5968 90.3969 62.4488C90.1782 62.3759 89.9594 62.228 89.6677 62.153C89.3031 62.0071 88.8656 61.7842 88.501 61.6384C88.2823 61.5634 88.0635 61.4175 87.8447 61.3425L86.3134 60.68C86.0218 60.5321 85.803 60.4592 85.5113 60.3112C85.1467 60.1633 84.7821 59.9425 84.4175 59.7945C84.1988 59.7216 83.98 59.5737 83.7612 59.5008L82.2299 58.8362C81.9382 58.6903 81.7195 58.6153 81.4278 58.4674C81.0632 58.3216 80.6986 58.0986 80.334 57.9507C80.1152 57.8049 79.8236 57.7299 79.6048 57.584L78.2922 56.9194V56.9173Z" fill="#343434"/>
</g>
<defs>
<filter id="filter0_d_70_125463" x="0.5" y="0.5" width="155" height="155" filterUnits="userSpaceOnUse" color-interpolation-filters="sRGB">
<feFlood flood-opacity="0" result="BackgroundImageFix"/>
<feColorMatrix in="SourceAlpha" type="matrix" values="0 0 0 0 0 0 0 0 0 0 0 0 0 0 0 0 0 0 127 0" result="hardAlpha"/>
<feOffset dy="15"/>
<feGaussianBlur stdDeviation="8.75"/>
<feComposite in2="hardAlpha" operator="out"/>
<feColorMatrix type="matrix" values="0 0 0 0 0.0352941 0 0 0 0 0.0470588 0 0 0 0 0.0627451 0 0 0 0.04 0"/>
<feBlend mode="normal" in2="BackgroundImageFix" result="effect1_dropShadow_70_125463"/>
<feBlend mode="normal" in="SourceGraphic" in2="effect1_dropShadow_70_125463" result="shape"/>
</filter>
</defs>
</svg>
