<svg width="264" height="223" viewBox="0 0 264 223" fill="none" xmlns="http://www.w3.org/2000/svg">
<g clip-path="url(#clip0_70_119649)">
<path d="M0 0H264V223H0V0Z" fill="white"/>
<path d="M22.1621 44.2899V32.3739H28.6581C29.2951 32.3739 29.8621 32.4949 30.3601 32.7379C30.8701 32.9819 31.2691 33.3229 31.5581 33.7629C31.8481 34.2029 31.9931 34.7179 31.9931 35.3089C31.9931 35.7609 31.9061 36.1719 31.7321 36.5419C31.5656 36.9025 31.3226 37.2226 31.0201 37.4799C30.7301 37.7229 30.4001 37.9079 30.0301 38.0359V38.1059C30.4701 38.1979 30.8641 38.3769 31.2111 38.6439C31.5581 38.8989 31.8311 39.2279 32.0271 39.6339C32.2241 40.0269 32.3231 40.4839 32.3231 41.0059C32.3231 41.7459 32.1551 42.3609 31.8191 42.8459C31.4956 43.3321 31.0367 43.7128 30.4991 43.9409C29.9551 44.1729 29.3411 44.2879 28.6581 44.2879H22.1621V44.2899ZM24.4201 42.3619H28.3631C28.8371 42.3619 29.2251 42.2339 29.5261 41.9789C29.8391 41.7129 29.9961 41.3019 29.9961 40.7459C29.9961 40.4219 29.9321 40.1379 29.8041 39.8959C29.6744 39.6504 29.4669 39.4548 29.2141 39.3399C28.9591 39.1999 28.6291 39.1309 28.2241 39.1309H24.4201V42.3619ZM24.4201 37.2379H28.0671C28.4151 37.2379 28.7041 37.1739 28.9361 37.0469C29.1791 36.9199 29.3581 36.7459 29.4741 36.5259C29.602 36.3041 29.6679 36.052 29.6651 35.7959C29.6651 35.2859 29.5261 34.9099 29.2481 34.6669C28.9821 34.4239 28.6281 34.3029 28.1881 34.3029H24.4201V37.2379ZM36.3181 44.4979C36.0631 44.4979 35.7681 44.4629 35.4321 44.3939C35.0967 44.3317 34.7739 44.2141 34.4771 44.0459C34.1652 43.8614 33.9075 43.5979 33.7301 43.2819C33.5331 42.9349 33.4351 42.4829 33.4351 41.9269C33.4351 41.3019 33.5741 40.7869 33.8521 40.3819C34.1415 39.9552 34.5448 39.6181 35.0161 39.4089C35.5261 39.1659 36.1271 38.9979 36.8221 38.9049C37.5873 38.7968 38.3593 38.7446 39.1321 38.7489V38.0019C39.1321 37.7359 39.0921 37.4979 39.0101 37.2899C38.9253 37.0776 38.7646 36.9043 38.5591 36.8039C38.3501 36.6759 38.0321 36.6129 37.6031 36.6129C37.1751 36.6129 36.8391 36.6649 36.5961 36.7689C36.3531 36.8729 36.1861 37.0009 36.0931 37.1509C36.0031 37.2909 35.9546 37.4535 35.9531 37.6199V37.8629H33.9041C33.8928 37.806 33.8871 37.748 33.8871 37.6899V37.4809C33.8871 36.9599 34.0431 36.5079 34.3561 36.1259C34.6681 35.7439 35.1021 35.4549 35.6581 35.2579C36.2141 35.0489 36.8571 34.9449 37.5861 34.9449C38.4201 34.9449 39.1031 35.0609 39.6361 35.2929C40.1801 35.5239 40.5861 35.8539 40.8511 36.2829C41.1181 36.7109 41.2511 37.2329 41.2511 37.8459V42.1529C41.2511 42.3729 41.3151 42.5299 41.4411 42.6229C41.5618 42.7131 41.7085 42.7615 41.8591 42.7609H42.4151V44.2199C42.2502 44.2816 42.082 44.3336 41.9111 44.3759C41.6911 44.4459 41.4191 44.4809 41.0951 44.4809C40.8149 44.4847 40.5369 44.4313 40.2781 44.3239C40.0509 44.2341 39.8486 44.0911 39.6881 43.9069C39.523 43.7166 39.4039 43.4907 39.3401 43.2469H39.2361C39.0302 43.4985 38.7906 43.7206 38.5241 43.9069C38.2581 44.0929 37.9391 44.2369 37.5691 44.3419C37.1618 44.4523 36.74 44.5048 36.3181 44.4979ZM36.9611 42.7609C37.3081 42.7609 37.6151 42.7089 37.8811 42.6049C38.1374 42.5143 38.3694 42.3658 38.5591 42.1709C38.7481 41.9797 38.8907 41.7478 38.9761 41.4929C39.0801 41.2269 39.1321 40.9369 39.1321 40.6249V40.2079C38.4951 40.2079 37.9051 40.2479 37.3601 40.3299C36.8281 40.4099 36.4001 40.5609 36.0751 40.7809C35.7621 41.0009 35.6061 41.3139 35.6061 41.7189C35.6061 41.9269 35.6531 42.1129 35.7461 42.2749C35.8491 42.4249 36.0001 42.5469 36.1961 42.6389C36.4061 42.7199 36.6601 42.7609 36.9611 42.7609ZM43.3641 44.2889V31.7319H45.4831V44.2899L43.3641 44.2889ZM49.8241 44.4979C49.5691 44.4979 49.2741 44.4629 48.9381 44.3939C48.6027 44.3317 48.2799 44.2141 47.9831 44.0459C47.6712 43.8614 47.4136 43.5979 47.2361 43.2819C47.0391 42.9349 46.9411 42.4829 46.9411 41.9269C46.9411 41.3019 47.0801 40.7869 47.3581 40.3819C47.6475 39.9552 48.0508 39.6181 48.5221 39.4089C49.0321 39.1659 49.6331 38.9979 50.3281 38.9049C51.0933 38.7968 51.8653 38.7446 52.6381 38.7489V38.0019C52.6381 37.7359 52.5981 37.4979 52.5161 37.2899C52.4314 37.0775 52.2706 36.9043 52.0651 36.8039C51.8561 36.6759 51.5381 36.6129 51.1091 36.6129C50.6811 36.6129 50.3451 36.6649 50.1021 36.7689C49.8591 36.8729 49.6921 37.0009 49.5981 37.1509C49.5085 37.2911 49.4604 37.4536 49.4591 37.6199V37.8629H47.4101C47.3988 37.806 47.3931 37.748 47.3931 37.6899V37.4809C47.3931 36.9599 47.5491 36.5079 47.8621 36.1259C48.1741 35.7439 48.6081 35.4549 49.1641 35.2579C49.7201 35.0489 50.3631 34.9449 51.0921 34.9449C51.9261 34.9449 52.6091 35.0609 53.1421 35.2929C53.6861 35.5239 54.0921 35.8539 54.3571 36.2829C54.6241 36.7109 54.7571 37.2329 54.7571 37.8459V42.1529C54.7571 42.3729 54.8211 42.5299 54.9471 42.6229C55.0678 42.7131 55.2145 42.7615 55.3651 42.7609H55.9201V44.2199C55.7556 44.2815 55.5876 44.3336 55.4171 44.3759C55.1971 44.4459 54.9251 44.4809 54.6001 44.4809C54.3001 44.4809 54.0271 44.4279 53.7841 44.3239C53.5569 44.2341 53.3546 44.0911 53.1941 43.9069C53.0291 43.7165 52.91 43.4907 52.8461 43.2469H52.7421C52.5362 43.4985 52.2966 43.7206 52.0301 43.9069C51.7641 44.0929 51.4451 44.2369 51.0751 44.3419C50.6678 44.4523 50.246 44.5048 49.8241 44.4979ZM50.4671 42.7609C50.8141 42.7609 51.1211 42.7089 51.3871 42.6049C51.6434 42.5143 51.8754 42.3658 52.0651 42.1709C52.2541 41.9797 52.3967 41.7478 52.4821 41.4929C52.5861 41.2269 52.6381 40.9369 52.6381 40.6249V40.2079C52.0011 40.2079 51.4111 40.2479 50.8661 40.3299C50.3341 40.4099 49.9061 40.5609 49.5811 40.7809C49.2681 41.0009 49.1121 41.3139 49.1121 41.7189C49.1121 41.9269 49.1581 42.1129 49.2521 42.2749C49.3551 42.4249 49.5061 42.5469 49.7021 42.6389C49.9121 42.7199 50.1661 42.7609 50.4671 42.7609ZM56.8701 44.2889V35.1539H58.6421L58.8151 36.3689H58.9371C59.1451 36.0919 59.3881 35.8489 59.6671 35.6399C59.9561 35.4199 60.2801 35.2519 60.6391 35.1359C61.0091 35.0089 61.4151 34.9459 61.8551 34.9459C62.4341 34.9459 62.9431 35.0499 63.3831 35.2579C63.8351 35.4659 64.1881 35.8019 64.4431 36.2649C64.6971 36.7279 64.8251 37.3479 64.8251 38.1239V44.2889H62.6881V38.5059C62.6881 38.1819 62.6481 37.9159 62.5671 37.7059C62.4971 37.4859 62.3871 37.3129 62.2371 37.1859C62.0922 37.0437 61.9126 36.942 61.7161 36.8909C61.4894 36.8306 61.2556 36.8014 61.0211 36.8039C60.6391 36.8039 60.2911 36.8959 59.9791 37.0819C59.6749 37.2706 59.4237 37.5335 59.2491 37.8459C59.0761 38.1699 58.9891 38.5459 58.9891 38.9749V44.2889H56.8701ZM70.5561 44.4979C69.6061 44.4979 68.8131 44.3299 68.1761 43.9939C67.5511 43.6469 67.0821 43.1199 66.7701 42.4139C66.4571 41.7069 66.3001 40.8099 66.3001 39.7219C66.3001 38.6219 66.4571 37.7239 66.7701 37.0289C67.0941 36.3229 67.5691 35.8019 68.1941 35.4659C68.8311 35.1189 69.6181 34.9459 70.5561 34.9459C71.1701 34.9459 71.7141 35.0209 72.1891 35.1709C72.6631 35.3209 73.0691 35.5529 73.4041 35.8659C73.7521 36.1659 74.0121 36.5429 74.1861 36.9949C74.3601 37.4459 74.4461 37.9729 74.4461 38.5749H72.2931C72.2931 38.1469 72.2291 37.7939 72.1021 37.5149C71.9823 37.2457 71.7742 37.0256 71.5121 36.8909C71.2571 36.7399 70.9271 36.6649 70.5221 36.6649C70.0461 36.6649 69.6591 36.7749 69.3581 36.9949C69.0561 37.2149 68.8311 37.5449 68.6801 37.9849C68.5411 38.4129 68.4721 38.9569 68.4721 39.6169V39.8429C68.4721 40.4919 68.5421 41.0359 68.6801 41.4759C68.8301 41.9159 69.0621 42.2459 69.3751 42.4659C69.6881 42.6739 70.0991 42.7779 70.6081 42.7779C71.0021 42.7779 71.3261 42.7079 71.5811 42.5699C71.8471 42.4199 72.0501 42.1999 72.1891 41.9099C72.3281 41.6199 72.3971 41.2729 72.3971 40.8679H74.4471C74.4471 41.4349 74.3601 41.9449 74.1861 42.3959C74.0231 42.832 73.7617 43.2245 73.4221 43.5429C73.0861 43.8549 72.6751 44.0929 72.1891 44.2549C71.7141 44.4169 71.1691 44.4979 70.5561 44.4979ZM79.9161 44.4979C78.9431 44.4979 78.1321 44.3299 77.4841 43.9939C76.8351 43.6469 76.3491 43.1199 76.0241 42.4139C75.7011 41.7069 75.5391 40.8099 75.5391 39.7219C75.5391 38.6219 75.7011 37.7239 76.0251 37.0289C76.3491 36.3229 76.8351 35.8019 77.4841 35.4659C78.1321 35.1189 78.9431 34.9459 79.9151 34.9459C80.7951 34.9459 81.5311 35.1129 82.1211 35.4489C82.7231 35.7729 83.1751 36.2769 83.4761 36.9599C83.7771 37.6429 83.9271 38.5289 83.9271 39.6169V40.2429H77.7101C77.7331 40.8099 77.8201 41.2899 77.9701 41.6839C78.1201 42.0659 78.3521 42.3559 78.6651 42.5529C78.9891 42.7379 79.4121 42.8309 79.9331 42.8309C80.1991 42.8309 80.4481 42.7959 80.6801 42.7259C80.9111 42.6559 81.1141 42.5529 81.2871 42.4139C81.4611 42.2639 81.5941 42.0779 81.6871 41.8579C81.7952 41.618 81.8485 41.357 81.8431 41.0939H83.9271C83.9271 41.6729 83.8231 42.1759 83.6151 42.6039C83.4181 43.0339 83.1351 43.3859 82.7641 43.6639C82.3854 43.9515 81.9549 44.1637 81.4961 44.2889C80.9817 44.4318 80.4499 44.5021 79.9161 44.4979ZM77.7441 38.7479H81.7221C81.7295 38.4184 81.6822 38.09 81.5821 37.7759C81.5131 37.5309 81.3885 37.3051 81.2181 37.1159C81.0707 36.9447 80.878 36.8185 80.6621 36.7519C80.4223 36.6674 80.1694 36.6261 79.9151 36.6299C79.4641 36.6299 79.0821 36.7049 78.7691 36.8559C78.4691 37.0059 78.2371 37.2379 78.0741 37.5499C77.9121 37.8629 77.8021 38.2619 77.7441 38.7479Z" fill="#202020"/>
<path d="M225.711 20.8418H163.921C154.285 20.8418 146.474 28.6531 146.474 38.2888V38.2898C146.474 47.9255 154.285 55.7368 163.921 55.7368H225.711C235.347 55.7368 243.158 47.9255 243.158 38.2898V38.2888C243.158 28.6531 235.347 20.8418 225.711 20.8418Z" fill="#FFD100"/>
<path d="M168.604 42.7898V33.9468H171.756C172.441 33.9468 173.009 34.0648 173.461 34.3008C173.916 34.5368 174.256 34.8638 174.48 35.2808C174.705 35.6958 174.817 36.1748 174.817 36.7188C174.817 37.2598 174.703 37.7368 174.476 38.1488C174.243 38.5644 173.887 38.8974 173.457 39.1018C173.005 39.3298 172.436 39.4428 171.751 39.4428H169.364V38.2948H171.631C172.062 38.2948 172.413 38.2328 172.684 38.1088C172.957 37.9858 173.157 37.8058 173.284 37.5688C173.411 37.3338 173.474 37.0498 173.474 36.7188C173.474 36.3848 173.409 36.0958 173.28 35.8508C173.148 35.6023 172.937 35.4051 172.68 35.2908C172.409 35.1578 172.054 35.0908 171.613 35.0908H169.938V42.7888L168.604 42.7898ZM172.969 38.7998L175.154 42.7898H173.634L171.492 38.7998H172.969ZM179.039 42.9228C178.385 42.9228 177.823 42.7828 177.351 42.5038C176.881 42.2216 176.503 41.8093 176.263 41.3168C176.009 40.8048 175.883 40.2048 175.883 39.5168C175.883 38.8368 176.009 38.2388 176.263 37.7208C176.5 37.2247 176.87 36.8046 177.333 36.5078C177.794 36.2168 178.332 36.0708 178.948 36.0708C179.322 36.0708 179.685 36.1328 180.036 36.2568C180.387 36.3808 180.702 36.5748 180.981 36.8398C181.261 37.1048 181.481 37.4488 181.642 37.8718C181.803 38.2918 181.884 38.8028 181.884 39.4048V39.8618H176.612V38.8948H180.619C180.619 38.5548 180.55 38.2548 180.412 37.9928C180.279 37.7344 180.077 37.5177 179.829 37.3668C179.566 37.2097 179.264 37.13 178.957 37.1368C178.594 37.1368 178.277 37.2268 178.007 37.4058C177.743 37.5773 177.528 37.8152 177.385 38.0958C177.24 38.3807 177.166 38.6962 177.169 39.0158V39.7718C177.169 40.2148 177.247 40.5918 177.402 40.9018C177.561 41.2138 177.781 41.4518 178.063 41.6148C178.345 41.7758 178.675 41.8568 179.052 41.8568C179.296 41.8568 179.519 41.8218 179.721 41.7528C179.918 41.6857 180.098 41.5752 180.246 41.4295C180.395 41.2838 180.509 41.1065 180.58 40.9108L181.802 41.1308C181.707 41.4848 181.526 41.8098 181.275 42.0768C181.025 42.3448 180.709 42.5528 180.33 42.7028C179.917 42.8558 179.479 42.9304 179.039 42.9228ZM188.213 37.7768L187.043 37.9838C186.991 37.8287 186.912 37.6841 186.809 37.5568C186.697 37.4137 186.552 37.2995 186.386 37.2238C186.176 37.1306 185.947 37.0862 185.717 37.0938C185.352 37.0938 185.046 37.1768 184.802 37.3408C184.557 37.5018 184.435 37.7108 184.435 37.9668C184.435 38.1878 184.517 38.3668 184.681 38.5018C184.845 38.6378 185.11 38.7478 185.475 38.8348L186.529 39.0768C187.139 39.2168 187.594 39.4348 187.893 39.7278C188.192 40.0218 188.342 40.4028 188.342 40.8728C188.342 41.2698 188.227 41.6228 187.997 41.9348C187.769 42.2428 187.451 42.4848 187.043 42.6598C186.637 42.8358 186.166 42.9228 185.631 42.9228C184.888 42.9228 184.282 42.7648 183.813 42.4478C183.344 42.1278 183.056 41.6758 182.95 41.0878L184.197 40.8978C184.275 41.2238 184.435 41.4698 184.677 41.6368C184.918 41.8008 185.234 41.8828 185.622 41.8828C186.045 41.8828 186.383 41.7948 186.637 41.6188C186.89 41.4408 187.017 41.2238 187.017 40.9678C187.019 40.8688 186.999 40.7706 186.958 40.6803C186.918 40.5899 186.858 40.5095 186.783 40.4448C186.631 40.3048 186.396 40.1978 186.08 40.1248L184.957 39.8798C184.338 39.7378 183.881 39.5138 183.584 39.2058C183.291 38.8978 183.144 38.5078 183.144 38.0358C183.144 37.6438 183.253 37.3018 183.472 37.0078C183.707 36.7018 184.021 36.4649 184.379 36.3218C184.764 36.1548 185.206 36.0718 185.704 36.0718C186.421 36.0718 186.985 36.2268 187.397 36.5378C187.808 36.8458 188.08 37.2578 188.213 37.7768ZM192.547 42.9228C191.893 42.9228 191.331 42.7828 190.859 42.5038C190.389 42.2216 190.011 41.8093 189.771 41.3168C189.517 40.8048 189.391 40.2048 189.391 39.5168C189.391 38.8368 189.517 38.2388 189.771 37.7208C190.008 37.2247 190.378 36.8046 190.841 36.5078C191.302 36.2168 191.84 36.0708 192.456 36.0708C192.83 36.0708 193.193 36.1328 193.544 36.2568C193.895 36.3808 194.21 36.5748 194.489 36.8398C194.769 37.1048 194.989 37.4488 195.15 37.8718C195.311 38.2918 195.392 38.8028 195.392 39.4048V39.8618H190.12V38.8948H194.127C194.127 38.5548 194.058 38.2548 193.92 37.9928C193.787 37.7344 193.585 37.5177 193.337 37.3668C193.074 37.2097 192.772 37.13 192.465 37.1368C192.102 37.1368 191.785 37.2268 191.515 37.4058C191.251 37.5773 191.036 37.8152 190.893 38.0958C190.748 38.3807 190.674 38.6962 190.677 39.0158V39.7718C190.677 40.2148 190.755 40.5918 190.91 40.9018C191.069 41.2138 191.289 41.4518 191.571 41.6148C191.853 41.7758 192.183 41.8568 192.56 41.8568C192.804 41.8568 193.027 41.8218 193.229 41.7528C193.426 41.6857 193.606 41.5752 193.754 41.4295C193.903 41.2838 194.017 41.1065 194.088 40.9108L195.31 41.1308C195.215 41.4848 195.034 41.8098 194.783 42.0768C194.533 42.3448 194.217 42.5528 193.838 42.7028C193.425 42.8558 192.987 42.9304 192.547 42.9228ZM196.751 42.7888V36.1578H197.999V37.2108H198.068C198.189 36.8538 198.402 36.5738 198.707 36.3688C199.012 36.1618 199.36 36.0588 199.752 36.0588C199.933 36.0588 200.096 36.0798 200.24 36.1228C200.384 36.1668 200.51 36.2248 200.62 36.2998L200.205 37.3798C200.121 37.3401 200.033 37.3095 199.942 37.2888C199.832 37.2614 199.719 37.2483 199.605 37.2498C199.306 37.2498 199.038 37.3148 198.802 37.4438C198.573 37.5668 198.38 37.7487 198.245 37.9708C198.11 38.1958 198.042 38.4508 198.042 38.7398V42.7898L196.751 42.7888ZM207.279 36.1578L204.874 42.7888H203.492L201.083 36.1578H202.469L204.148 41.2608H204.218L205.893 36.1578H207.279ZM211.051 42.9228C210.398 42.9228 209.835 42.7828 209.363 42.5038C208.893 42.2214 208.516 41.8091 208.275 41.3168C208.022 40.8048 207.895 40.2048 207.895 39.5168C207.895 38.8368 208.022 38.2388 208.275 37.7208C208.512 37.2244 208.883 36.8043 209.346 36.5078C209.807 36.2168 210.345 36.0708 210.961 36.0708C211.335 36.0708 211.698 36.1328 212.049 36.2568C212.4 36.3808 212.715 36.5748 212.994 36.8398C213.273 37.1048 213.494 37.4488 213.655 37.8718C213.816 38.2918 213.897 38.8028 213.897 39.4048V39.8618H208.625V38.8948H212.632C212.632 38.5548 212.563 38.2548 212.424 37.9928C212.292 37.7342 212.09 37.5174 211.842 37.3668C211.578 37.2095 211.276 37.1298 210.969 37.1368C210.607 37.1368 210.29 37.2268 210.02 37.4058C209.756 37.5773 209.541 37.8152 209.398 38.0958C209.253 38.3807 209.179 38.6962 209.182 39.0158V39.7718C209.182 40.2148 209.26 40.5918 209.415 40.9018C209.573 41.2138 209.794 41.4518 210.076 41.6148C210.358 41.7758 210.687 41.8568 211.064 41.8568C211.309 41.8568 211.532 41.8218 211.734 41.7528C211.931 41.6857 212.111 41.5752 212.259 41.4295C212.408 41.2838 212.522 41.1065 212.593 40.9108L213.815 41.1308C213.72 41.4848 213.539 41.8098 213.288 42.0768C213.023 42.3536 212.7 42.5675 212.342 42.7028C211.965 42.8498 211.535 42.9228 211.051 42.9228ZM217.739 42.9188C217.231 42.9269 216.732 42.7842 216.305 42.5088C215.888 42.2328 215.56 41.8388 215.321 41.3298C215.085 40.8178 214.967 40.2028 214.967 39.4868C214.967 38.7698 215.086 38.1568 215.325 37.6468C215.567 37.1368 215.898 36.7468 216.318 36.4768C216.738 36.2068 217.215 36.0718 217.747 36.0718C218.159 36.0718 218.49 36.1408 218.74 36.2788C218.993 36.4138 219.189 36.5718 219.327 36.7538C219.468 36.9348 219.578 37.0938 219.655 37.2328H219.733V33.9468H221.024V42.7888H219.763V41.7578H219.655C219.557 41.9282 219.445 42.0898 219.319 42.2408C219.175 42.4218 218.976 42.5808 218.723 42.7158C218.47 42.8508 218.141 42.9188 217.739 42.9188ZM218.023 41.8178C218.395 41.8178 218.708 41.7198 218.965 41.5248C219.235 41.3108 219.438 41.0248 219.552 40.6998C219.687 40.3488 219.755 39.9398 219.755 39.4738C219.755 39.0138 219.689 38.6098 219.556 38.2638C219.443 37.9447 219.24 37.6647 218.973 37.4568C218.717 37.2648 218.401 37.1678 218.023 37.1678C217.635 37.1678 217.311 37.2678 217.052 37.4698C216.783 37.6846 216.58 37.9704 216.465 38.2948C216.335 38.6428 216.271 39.0358 216.271 39.4738C216.271 39.9168 216.337 40.3158 216.469 40.6698C216.602 41.0238 216.797 41.3038 217.056 41.5108C217.318 41.7158 217.641 41.8178 218.023 41.8178Z" fill="#202020"/>
<path d="M20.842 76.145H243.158" stroke="#EBECEF" stroke-width="0.868"/>
<path d="M26.0099 106.645V103.352H27.0739V106.645H26.0099ZM26.0099 119.442V115.983H27.0739V119.442H26.0099ZM26.4699 117.004C25.6769 117.004 24.9829 116.92 24.3849 116.754C23.7879 116.573 23.2869 116.33 22.8849 116.024C22.5027 115.743 22.1889 115.38 21.9669 114.961C21.771 114.537 21.6717 114.074 21.6759 113.607V113.419C21.6872 113.378 21.6939 113.336 21.6959 113.294H24.1979V113.461C24.2119 113.836 24.3299 114.141 24.5519 114.378C24.7739 114.6 25.0659 114.76 25.4269 114.857C26.1371 115.035 26.8784 115.05 27.5949 114.899C27.8895 114.833 28.1667 114.706 28.4079 114.524C28.5133 114.443 28.5983 114.339 28.6561 114.22C28.7139 114.1 28.743 113.969 28.7409 113.836C28.7409 113.475 28.6019 113.197 28.3239 113.002C28.0469 112.808 27.6779 112.648 27.2199 112.523C26.7749 112.398 26.2959 112.266 25.7819 112.127C25.3195 112.001 24.8606 111.862 24.4059 111.71C23.9672 111.567 23.5475 111.37 23.1559 111.126C22.7937 110.889 22.4876 110.576 22.2589 110.209C22.0369 109.834 21.9259 109.369 21.9259 108.813C21.9259 108.271 22.0439 107.799 22.2799 107.396C22.5159 106.993 22.8429 106.659 23.2599 106.395C23.6769 106.117 24.1699 105.909 24.7399 105.77C25.3477 105.627 25.9704 105.556 26.5949 105.561C27.2469 105.561 27.8379 105.631 28.3659 105.77C28.8627 105.889 29.335 106.094 29.7619 106.374C30.1649 106.624 30.4719 106.937 30.6799 107.312C30.9556 107.761 31.066 108.292 30.9919 108.813V108.98H28.5119V108.834C28.5188 108.588 28.4291 108.348 28.2619 108.167C28.1089 107.972 27.8799 107.819 27.5739 107.708C27.2819 107.597 26.9139 107.541 26.4689 107.541C26.1751 107.537 25.8817 107.565 25.5939 107.625C25.375 107.669 25.1642 107.746 24.9689 107.854C24.8284 107.939 24.7075 108.053 24.6139 108.188C24.5312 108.311 24.4877 108.456 24.4889 108.604C24.4889 108.868 24.5939 109.077 24.8019 109.23C25.0109 109.383 25.2879 109.515 25.6359 109.626C25.9969 109.737 26.3859 109.855 26.8029 109.98C27.3029 110.119 27.8169 110.265 28.3449 110.418C28.8491 110.548 29.3384 110.729 29.8049 110.96C30.2487 111.17 30.6294 111.493 30.9089 111.897C31.1869 112.3 31.3259 112.835 31.3259 113.502C31.3259 114.141 31.2009 114.69 30.9509 115.149C30.713 115.595 30.3602 115.969 29.9289 116.233C29.4989 116.497 28.9839 116.691 28.3869 116.816C27.756 116.946 27.1141 117.009 26.4699 117.004ZM37.8079 118.671C36.9879 118.671 36.2519 118.553 35.5979 118.317C34.9603 118.082 34.3937 117.687 33.9519 117.171C33.4929 116.629 33.1459 115.913 32.9099 115.024C32.6739 114.121 32.5559 113.009 32.5559 111.689C32.5559 110.202 32.6659 108.959 32.8889 107.958C33.1249 106.958 33.4589 106.159 33.8889 105.561C34.3339 104.964 34.8759 104.533 35.5149 104.269C36.1549 104.005 36.8839 103.873 37.7039 103.873C38.7459 103.873 39.5939 104.075 40.2459 104.478C40.878 104.844 41.3805 105.398 41.6839 106.062C41.9899 106.729 42.1429 107.486 42.1429 108.333H39.5589C39.5589 107.833 39.4889 107.409 39.3499 107.062C39.2249 106.701 39.0169 106.43 38.7249 106.249C38.4329 106.055 38.0579 105.957 37.5989 105.957C36.9189 105.957 36.4049 106.145 36.0569 106.52C35.7099 106.881 35.4729 107.403 35.3479 108.083C35.2379 108.764 35.1749 109.577 35.1609 110.522C35.2439 110.411 35.4179 110.258 35.6809 110.063C35.9599 109.855 36.3209 109.667 36.7659 109.501C37.2099 109.334 37.7179 109.251 38.2869 109.251C39.2869 109.251 40.1069 109.459 40.7469 109.876C41.3799 110.272 41.8748 110.855 42.1639 111.543C42.4689 112.252 42.6219 113.058 42.6219 113.961C42.6219 114.92 42.4139 115.753 41.9969 116.462C41.5919 117.159 40.9999 117.73 40.2879 118.108C39.5659 118.484 38.7379 118.671 37.8079 118.671ZM37.6829 116.587C38.2109 116.587 38.6419 116.469 38.9749 116.233C39.3219 115.996 39.5789 115.677 39.7459 115.274C39.9129 114.871 39.9959 114.426 39.9959 113.94C39.9959 113.426 39.9129 112.974 39.7459 112.585C39.5933 112.199 39.3236 111.871 38.9749 111.647C38.6409 111.411 38.2109 111.293 37.6829 111.293C37.1549 111.293 36.7169 111.411 36.3699 111.647C36.0212 111.871 35.7516 112.199 35.5989 112.585C35.4319 112.974 35.3489 113.433 35.3489 113.961C35.3489 114.447 35.4319 114.892 35.5989 115.295C35.7543 115.684 36.0224 116.018 36.3689 116.253C36.7169 116.476 37.1549 116.587 37.6829 116.587ZM48.8789 118.671C48.0999 118.671 47.4059 118.56 46.7939 118.338C46.1732 118.094 45.6322 117.683 45.2309 117.15C44.8009 116.594 44.4739 115.844 44.2509 114.899C44.0289 113.94 43.9179 112.731 43.9179 111.272C43.9179 109.813 44.0289 108.611 44.2519 107.667C44.4739 106.708 44.7999 105.951 45.2319 105.395C45.6619 104.839 46.1829 104.45 46.7939 104.228C47.4059 103.991 48.0999 103.873 48.8789 103.873C49.6569 103.873 50.3439 103.991 50.9419 104.228C51.5529 104.45 52.0739 104.839 52.5049 105.395C52.9349 105.951 53.2619 106.708 53.4849 107.667C53.7069 108.611 53.8179 109.813 53.8179 111.272C53.8179 112.731 53.7069 113.94 53.4849 114.899C53.2619 115.844 52.9349 116.594 52.5049 117.15C52.1037 117.683 51.5627 118.094 50.9419 118.338C50.3439 118.56 49.6569 118.671 48.8789 118.671ZM48.8789 116.587C49.5319 116.587 50.0179 116.413 50.3379 116.066C50.6709 115.705 50.8929 115.177 51.0039 114.482C51.1299 113.773 51.1919 112.898 51.1919 111.856V110.772C51.1919 109.702 51.1289 108.813 51.0039 108.104C50.8939 107.382 50.6709 106.847 50.3379 106.499C50.0179 106.138 49.5319 105.957 48.8779 105.957C48.2389 105.957 47.7459 106.138 47.3979 106.499C47.0649 106.847 46.8359 107.375 46.7109 108.083C46.5999 108.778 46.5439 109.653 46.5439 110.709V111.793C46.5439 112.849 46.5999 113.739 46.7109 114.461C46.8359 115.17 47.0649 115.705 47.3989 116.066C47.7459 116.413 48.2389 116.587 48.8789 116.587ZM55.8859 121.818V120.755C56.2329 120.7 56.5109 120.561 56.7189 120.339C56.9279 120.116 57.0799 119.838 57.1779 119.505C57.2914 119.155 57.3474 118.789 57.3439 118.421H56.0519V115.753H58.6779V118.192C58.6779 118.998 58.5459 119.651 58.2819 120.151C58.0319 120.651 57.6919 121.026 57.2619 121.276C56.8414 121.542 56.3746 121.726 55.8859 121.818ZM61.9049 118.421V116.337H65.3439V107.333H61.8839V105.77C62.3775 105.713 62.8655 105.615 63.3429 105.478C63.9129 105.311 64.4889 105.11 65.0729 104.874C65.6159 104.657 66.1449 104.406 66.6569 104.123H67.9069V116.337H71.0749V118.421H61.9049ZM72.3089 118.421V117.733C72.3089 117.108 72.4189 116.538 72.6419 116.024C72.8624 115.513 73.1651 115.041 73.5379 114.628C73.9139 114.197 74.3299 113.794 74.7879 113.419C75.2609 113.03 75.7339 112.662 76.2059 112.314C76.7899 111.884 77.3389 111.453 77.8529 111.022C78.3358 110.613 78.7568 110.135 79.1029 109.605C79.4224 109.093 79.5889 108.5 79.5829 107.896C79.5829 107.604 79.5129 107.312 79.3739 107.02C79.2217 106.714 78.9823 106.461 78.6859 106.291C78.3809 106.096 77.9639 105.999 77.4359 105.999C76.9079 105.999 76.4699 106.089 76.1229 106.27C75.7887 106.424 75.5116 106.68 75.3309 107C75.1639 107.319 75.0809 107.715 75.0809 108.188V109.042H72.5379C72.5193 108.938 72.5053 108.834 72.4959 108.729C72.4808 108.556 72.4741 108.382 72.4759 108.208C72.4759 107.18 72.7049 106.353 73.1629 105.728C73.6319 105.092 74.2767 104.607 75.0179 104.332C75.8221 104.021 76.6778 103.866 77.5399 103.873C78.4849 103.873 79.2559 104.012 79.8529 104.29C80.4649 104.568 80.9369 104.922 81.2709 105.353C81.6179 105.784 81.8539 106.242 81.9789 106.729C82.1189 107.215 82.1879 107.66 82.1879 108.063C82.1879 108.729 82.0699 109.341 81.8329 109.897C81.6008 110.456 81.2848 110.976 80.8959 111.439C80.4607 111.942 79.9788 112.403 79.4569 112.815C78.9159 113.245 78.3319 113.683 77.7069 114.128C77.3869 114.35 77.0749 114.572 76.7689 114.795C76.4842 115 76.2127 115.222 75.9559 115.461C75.753 115.659 75.5777 115.883 75.4349 116.128H82.2709V118.421H72.3089ZM89.5689 118.421V115.232H83.2749V113.148C83.8326 112.227 84.3471 111.281 84.8169 110.313C85.2899 109.341 85.7209 108.32 86.1099 107.25C86.5092 106.145 86.8431 105.017 87.1099 103.873H89.7779C89.5979 104.61 89.3679 105.367 89.0899 106.145C88.8154 106.915 88.5095 107.673 88.1729 108.417C87.8587 109.114 87.5252 109.802 87.1729 110.48C86.8773 111.039 86.5645 111.588 86.2349 112.127C85.9569 112.585 85.7349 112.926 85.5679 113.148H89.5699V109.542C89.6949 109.278 89.8199 109 89.9449 108.709C90.0699 108.403 90.1879 108.097 90.2989 107.792C90.4239 107.472 90.5349 107.166 90.6319 106.875C90.7299 106.569 90.8199 106.277 90.9029 105.999H92.1129V113.148H93.8829V115.232H92.1129V118.421H89.5689ZM95.8249 118.421V115.753H98.4719V118.421H95.8249ZM105.659 118.671C104.881 118.671 104.186 118.56 103.574 118.338C102.953 118.094 102.412 117.683 102.011 117.15C101.581 116.594 101.254 115.844 101.032 114.899C100.809 113.94 100.698 112.731 100.698 111.272C100.698 109.813 100.809 108.611 101.032 107.667C101.254 106.708 101.581 105.951 102.011 105.395C102.442 104.839 102.963 104.45 103.574 104.228C104.186 103.991 104.881 103.873 105.659 103.873C106.437 103.873 107.125 103.991 107.722 104.228C108.333 104.45 108.854 104.839 109.285 105.395C109.716 105.951 110.042 106.708 110.265 107.667C110.487 108.611 110.598 109.813 110.598 111.272C110.598 112.731 110.487 113.94 110.265 114.899C110.042 115.844 109.716 116.594 109.285 117.15C108.883 117.683 108.343 118.094 107.722 118.338C107.125 118.56 106.437 118.671 105.659 118.671ZM105.659 116.587C106.312 116.587 106.798 116.413 107.118 116.066C107.451 115.705 107.673 115.177 107.785 114.482C107.91 113.773 107.972 112.898 107.972 111.856V110.772C107.972 109.702 107.91 108.813 107.785 108.104C107.673 107.382 107.451 106.847 107.118 106.499C106.798 106.138 106.312 105.957 105.659 105.957C105.02 105.957 104.526 106.138 104.179 106.499C103.845 106.847 103.616 107.375 103.491 108.083C103.38 108.778 103.324 109.653 103.324 110.709V111.793C103.324 112.849 103.38 113.739 103.491 114.461C103.616 115.17 103.845 115.705 104.179 116.066C104.526 116.413 105.02 116.587 105.659 116.587ZM117.022 118.671C116.244 118.671 115.549 118.56 114.937 118.338C114.316 118.094 113.775 117.683 113.374 117.15C112.944 116.594 112.617 115.844 112.395 114.899C112.172 113.94 112.061 112.731 112.061 111.272C112.061 109.813 112.172 108.611 112.395 107.667C112.617 106.708 112.944 105.951 113.374 105.395C113.805 104.839 114.326 104.45 114.937 104.228C115.549 103.991 116.244 103.873 117.022 103.873C117.8 103.873 118.488 103.991 119.085 104.228C119.696 104.45 120.217 104.839 120.648 105.395C121.079 105.951 121.405 106.708 121.628 107.667C121.85 108.611 121.961 109.813 121.961 111.272C121.961 112.731 121.85 113.94 121.628 114.899C121.405 115.844 121.079 116.594 120.648 117.15C120.246 117.683 119.706 118.094 119.085 118.338C118.488 118.56 117.8 118.671 117.022 118.671ZM117.022 116.587C117.675 116.587 118.161 116.413 118.481 116.066C118.814 115.705 119.036 115.177 119.148 114.482C119.273 113.773 119.335 112.898 119.335 111.856V110.772C119.335 109.702 119.273 108.813 119.148 108.104C119.036 107.382 118.814 106.847 118.481 106.499C118.161 106.138 117.675 105.957 117.022 105.957C116.383 105.957 115.889 106.138 115.542 106.499C115.208 106.847 114.979 107.375 114.854 108.083C114.743 108.778 114.687 109.653 114.687 110.709V111.793C114.687 112.849 114.743 113.739 114.854 114.461C114.979 115.17 115.208 115.705 115.542 116.066C115.889 116.413 116.383 116.587 117.022 116.587Z" fill="#202020"/>
<path opacity="0.5" d="M95.526 139.316H24.316C22.3974 139.316 20.842 140.871 20.842 142.789C20.842 144.708 22.3974 146.263 24.316 146.263H95.526C97.4447 146.263 99 144.708 99 142.789C99 140.871 97.4447 139.316 95.526 139.316Z" fill="#FFEE32"/>
<path d="M239.684 167.105H24.316C22.3974 167.105 20.842 168.66 20.842 170.579V198.526C20.842 200.445 22.3974 202 24.316 202H239.684C241.603 202 243.158 200.445 243.158 198.526V170.579C243.158 168.66 241.603 167.105 239.684 167.105Z" fill="#FFEE32"/>
<path d="M34.7369 188.027C36.6556 188.027 38.2109 186.472 38.2109 184.553C38.2109 182.634 36.6556 181.079 34.7369 181.079C32.8183 181.079 31.2629 182.634 31.2629 184.553C31.2629 186.472 32.8183 188.027 34.7369 188.027Z" fill="#202020"/>
<path d="M45.8979 188.053V180.101H49.18C49.959 180.101 50.5699 180.296 51.0149 180.685C51.466 181.067 51.692 181.647 51.692 182.425C51.692 183.169 51.462 183.752 51.004 184.176C50.546 184.6 49.938 184.812 49.181 184.812H47.221V188.053H45.8979ZM49.0029 183.655C49.4549 183.655 49.799 183.554 50.035 183.353C50.271 183.144 50.389 182.849 50.389 182.467C50.389 182.085 50.268 181.793 50.025 181.592C49.788 181.39 49.4479 181.289 49.0029 181.289H47.221V183.655H49.0029ZM53.706 188.053H52.476V182.227H53.706V188.053ZM53.091 181.477C52.8808 181.481 52.6766 181.407 52.518 181.269C52.4436 181.2 52.3847 181.116 52.345 181.023C52.3054 180.929 52.2859 180.829 52.2879 180.727C52.2879 180.511 52.365 180.334 52.518 180.195C52.6734 180.051 52.8788 179.972 53.091 179.976C53.32 179.976 53.511 180.049 53.664 180.195C53.817 180.334 53.894 180.511 53.894 180.727C53.896 180.829 53.8765 180.929 53.8369 181.023C53.7972 181.116 53.7383 181.2 53.664 181.269C53.5066 181.409 53.3015 181.484 53.091 181.477ZM54.8419 188.053V182.227H56.0719V182.477C56.0719 182.582 56.062 182.668 56.041 182.738C56.015 182.817 55.9761 182.891 55.9259 182.957L56.0719 183.051C56.3019 182.717 56.541 182.481 56.791 182.342C57.048 182.196 57.351 182.123 57.698 182.123C58.573 182.123 59.167 182.439 59.4799 183.071C59.5979 183.301 59.67 183.533 59.698 183.77C59.726 184.006 59.74 184.298 59.74 184.645V188.053H58.5V184.645C58.5057 184.393 58.4812 184.141 58.4269 183.895C58.3973 183.725 58.3216 183.566 58.208 183.436C58.042 183.249 57.778 183.155 57.416 183.155C56.999 183.155 56.6829 183.28 56.4679 183.53C56.3279 183.69 56.228 183.902 56.166 184.166C56.103 184.43 56.0719 184.791 56.0719 185.249V188.053H54.8419ZM63.499 188.167C62.929 188.167 62.422 188.039 61.978 187.782C61.5456 187.524 61.1922 187.153 60.956 186.708C60.7088 186.232 60.5837 185.702 60.5919 185.166C60.5919 184.638 60.7 184.141 60.915 183.676C61.137 183.21 61.464 182.835 61.895 182.55C62.332 182.265 62.8569 182.123 63.4679 182.123C63.9819 182.123 64.458 182.234 64.896 182.457C65.34 182.672 65.695 183.002 65.959 183.447C66.229 183.891 66.3649 184.437 66.3649 185.083V185.395H62.5089C62.1479 185.395 61.8979 185.385 61.7589 185.364L61.7169 185.531C61.7799 185.545 61.8219 185.572 61.8419 185.614C61.8699 185.649 61.8979 185.704 61.9259 185.781C61.9879 185.927 62.026 186.014 62.04 186.041C62.18 186.368 62.3769 186.625 62.6339 186.813C62.8979 187 63.1969 187.094 63.5309 187.094C63.8849 187.094 64.1869 187.004 64.4369 186.823C64.684 186.648 64.8759 186.406 64.9899 186.125H66.26C66.0884 186.705 65.7475 187.22 65.2809 187.605C64.8159 187.98 64.221 188.167 63.499 188.167ZM61.894 184.593C61.999 184.53 62.089 184.489 62.165 184.468C62.2594 184.439 62.358 184.424 62.457 184.426H64.5199C64.6389 184.426 64.7399 184.44 64.8229 184.468C64.9129 184.489 65.0099 184.53 65.1149 184.593L65.219 184.457C65.1717 184.434 65.1293 184.403 65.094 184.364C65.0754 184.316 65.058 184.267 65.042 184.218C65.0174 184.095 64.9677 183.978 64.896 183.874C64.7634 183.638 64.5641 183.445 64.3229 183.321C64.073 183.188 63.7933 183.119 63.5099 183.123C63.2039 183.123 62.9329 183.189 62.6969 183.321C62.5227 183.414 62.369 183.542 62.2453 183.696C62.1216 183.85 62.0303 184.028 61.977 184.218C61.9664 184.265 61.9493 184.311 61.9259 184.353C61.8901 184.394 61.8479 184.429 61.8009 184.457L61.894 184.593Z" fill="#202020"/>
<path d="M229.262 181.079H194.526C192.607 181.079 191.052 182.634 191.052 184.553C191.052 186.471 192.607 188.026 194.526 188.026H229.262C231.181 188.026 232.736 186.471 232.736 184.553C232.736 182.634 231.181 181.079 229.262 181.079Z" fill="#202020"/>
</g>
<defs>
<clipPath id="clip0_70_119649">
<path d="M0 12C0 5.37259 5.37258 0 12 0H252C258.627 0 264 5.37258 264 12V211C264 217.627 258.627 223 252 223H12C5.37259 223 0 217.627 0 211V12Z" fill="white"/>
</clipPath>
</defs>
</svg>
