<svg width="228" height="167" viewBox="0 0 228 167" fill="none" xmlns="http://www.w3.org/2000/svg">
<g clip-path="url(#clip0_70_119639)">
<path d="M-36 0H228V167H-36V0Z" fill="white"/>
<path d="M-8.41906 44.4979C-10.2601 44.4979 -11.6901 44.0059 -12.7091 43.0219C-13.7281 42.0259 -14.2371 40.4619 -14.2371 38.3319C-14.2371 36.9309 -14.0001 35.7789 -13.5251 34.8759C-13.0391 33.9609 -12.3451 33.2839 -11.4411 32.8439C-10.5261 32.3919 -9.43206 32.1659 -8.15906 32.1659C-7.39406 32.1659 -6.67606 32.2529 -6.00506 32.4259C-5.33306 32.5999 -4.74306 32.8659 -4.23306 33.2259C-3.71306 33.5729 -3.30706 34.0129 -3.01706 34.5459C-2.72806 35.0779 -2.58306 35.7089 -2.58306 36.4389H-4.91106C-4.90343 36.0857 -4.9934 35.7373 -5.17106 35.4319C-5.33571 35.1281 -5.57486 34.871 -5.86606 34.6849C-6.16914 34.4702 -6.5112 34.3167 -6.87306 34.2329C-7.26962 34.1269 -7.67859 34.0745 -8.08906 34.0769C-8.72606 34.0769 -9.28706 34.1639 -9.77406 34.3369C-10.231 34.488 -10.6428 34.7509 -10.9721 35.1019C-11.2851 35.4369 -11.5221 35.8599 -11.6841 36.3699C-11.8341 36.8789 -11.9101 37.4749 -11.9101 38.1579V38.5229C-11.9101 39.4609 -11.7771 40.2309 -11.5101 40.8329C-11.2441 41.4349 -10.8451 41.8809 -10.3121 42.1699C-9.76806 42.4479 -9.09606 42.5869 -8.29706 42.5869C-7.61406 42.5869 -7.01806 42.4829 -6.50906 42.2749C-5.98706 42.0659 -5.58206 41.7649 -5.29306 41.3719C-4.99206 40.9659 -4.84106 40.4739 -4.84106 39.8949V39.7739H-8.64506V37.8979H-2.58306V44.2889H-4.20006L-4.39006 42.9689C-4.72233 43.3046 -5.09601 43.5967 -5.50206 43.8379C-5.91008 44.0632 -6.34915 44.227 -6.80506 44.3239C-7.33457 44.4459 -7.87573 44.5043 -8.41906 44.4979ZM3.56394 44.4979C2.56894 44.4979 1.73394 44.3299 1.06394 43.9939C0.396913 43.6519 -0.13565 43.0954 -0.448063 42.4139C-0.784063 41.7069 -0.952061 40.8099 -0.952061 39.7219C-0.952061 38.6219 -0.784063 37.7239 -0.448063 37.0289C-0.112062 36.3229 0.391939 35.8019 1.06294 35.4659C1.73494 35.1189 2.56794 34.9459 3.56394 34.9459C4.57194 34.9459 5.40494 35.1189 6.06494 35.4659C6.73324 35.7978 7.26683 36.3498 7.57594 37.0289C7.91194 37.7239 8.07994 38.6219 8.07994 39.7219C8.07994 40.8099 7.91194 41.7069 7.57594 42.4139C7.26404 43.095 6.73222 43.6515 6.06594 43.9939C5.40594 44.3299 4.57194 44.4979 3.56394 44.4979ZM3.56394 42.7609C4.11994 42.7609 4.56594 42.6569 4.90194 42.4479C5.24894 42.2279 5.49794 41.9039 5.64794 41.4759C5.81094 41.0359 5.89194 40.4919 5.89194 39.8429V39.5999C5.89194 38.9519 5.81094 38.4129 5.64794 37.9849C5.49794 37.5449 5.24894 37.2209 4.90194 37.0119C4.56594 36.7919 4.11994 36.6819 3.56394 36.6819C3.00794 36.6819 2.55694 36.7919 2.20894 37.0119C1.87394 37.2209 1.62494 37.5449 1.46294 37.9849C1.31294 38.4129 1.23694 38.9519 1.23694 39.5999V39.8429C1.23694 40.4919 1.31194 41.0359 1.46294 41.4759C1.62494 41.9039 1.87294 42.2279 2.20894 42.4479C2.55694 42.6569 3.00894 42.7609 3.56394 42.7609ZM11.9639 44.4979C11.7099 44.4979 11.4139 44.4629 11.0789 44.3939C10.7432 44.3318 10.4201 44.2142 10.1229 44.0459C9.81145 43.8613 9.55413 43.5977 9.37694 43.2819C9.17994 42.9349 9.08094 42.4829 9.08094 41.9269C9.08094 41.3019 9.22094 40.7869 9.49794 40.3819C9.78735 39.9552 10.1906 39.6181 10.6619 39.4089C11.1719 39.1659 11.7729 38.9979 12.4679 38.9049C13.2331 38.7968 14.0052 38.7446 14.7779 38.7489V38.0019C14.7779 37.7359 14.7379 37.4979 14.6569 37.2899C14.5719 37.0774 14.4108 36.9041 14.2049 36.8039C13.9969 36.6759 13.6779 36.6129 13.2499 36.6129C12.8209 36.6129 12.4859 36.6649 12.2419 36.7689C11.9989 36.8729 11.8319 37.0009 11.7389 37.1509C11.649 37.291 11.6005 37.4535 11.5989 37.6199V37.8629H9.54994C9.53858 37.806 9.53289 37.748 9.53294 37.6899V37.4809C9.53294 36.9599 9.68894 36.5079 10.0019 36.1259C10.3149 35.7439 10.7489 35.4549 11.3049 35.2579C11.8599 35.0489 12.5029 34.9449 13.2329 34.9449C14.0659 34.9449 14.7489 35.0609 15.2819 35.2929C15.8259 35.5239 16.2319 35.8539 16.4979 36.2829C16.7639 36.7109 16.8979 37.2329 16.8979 37.8459V42.1529C16.8979 42.3729 16.9609 42.5299 17.0879 42.6229C17.2083 42.7129 17.3547 42.7613 17.5049 42.7609H18.0609V44.2199C17.8961 44.2816 17.7278 44.3336 17.5569 44.3759C17.3369 44.4459 17.0649 44.4809 16.7409 44.4809C16.4399 44.4809 16.1679 44.4279 15.9249 44.3239C15.6977 44.2342 15.4954 44.0912 15.3349 43.9069C15.1699 43.7165 15.0508 43.4907 14.9869 43.2469H14.8819C14.676 43.4985 14.4364 43.7206 14.1699 43.9069C13.9039 44.0929 13.5859 44.2369 13.2149 44.3419C12.8076 44.4523 12.3859 44.5048 11.9639 44.4979ZM12.6069 42.7609C12.9549 42.7609 13.2609 42.7089 13.5269 42.6049C13.8059 42.5009 14.0309 42.3549 14.2049 42.1709C14.3939 41.9797 14.5365 41.7478 14.6219 41.4929C14.7259 41.2269 14.7779 40.9369 14.7779 40.6249V40.2079C14.1409 40.2079 13.5509 40.2479 13.0069 40.3299C12.4739 40.4099 12.0459 40.5609 11.7209 40.7809C11.4089 41.0009 11.2529 41.3139 11.2529 41.7189C11.2529 41.9269 11.2989 42.1129 11.3909 42.2749C11.4959 42.4249 11.6459 42.5469 11.8429 42.6389C12.0509 42.7199 12.3059 42.7609 12.6069 42.7609ZM19.0099 44.2889V31.7319H21.1299V44.2899L19.0099 44.2889ZM26.6859 44.4979C26.0259 44.4979 25.4469 44.4279 24.9499 44.2889C24.4519 44.1389 24.0349 43.9359 23.6989 43.6819C23.3809 43.4478 23.1198 43.1449 22.9349 42.7959C22.7714 42.4419 22.6884 42.0559 22.6919 41.6659V41.5109C22.7015 41.4767 22.7072 41.4415 22.7089 41.4059H24.7929V41.5459C24.8049 41.8579 24.9029 42.1129 25.0889 42.3099C25.2739 42.4949 25.5169 42.6279 25.8179 42.7089C26.1189 42.7899 26.4379 42.8299 26.7729 42.8299C27.0589 42.8318 27.3442 42.8029 27.6239 42.7439C27.8698 42.6896 28.1011 42.5828 28.3019 42.4309C28.3897 42.3637 28.4605 42.2769 28.5086 42.1774C28.5567 42.0779 28.5808 41.9684 28.5789 41.8579C28.5789 41.5569 28.4639 41.3249 28.2319 41.1629C28.0009 41.0009 27.6939 40.8679 27.3119 40.7629C26.9419 40.6599 26.5419 40.5499 26.1129 40.4329C25.7277 40.3283 25.3455 40.2126 24.9669 40.0859C24.6014 39.9663 24.2515 39.8032 23.9249 39.5999C23.6233 39.4026 23.3684 39.1419 23.1779 38.8359C22.9929 38.5229 22.8999 38.1359 22.8999 37.6719C22.8999 37.2209 22.9989 36.8269 23.1949 36.4909C23.3919 36.1549 23.6649 35.8769 24.0119 35.6569C24.3894 35.4129 24.8067 35.2369 25.2449 35.1369C25.7189 35.0199 26.2349 34.9629 26.7909 34.9629C27.3349 34.9629 27.8269 35.0199 28.2669 35.1359C28.7189 35.2519 29.1069 35.4199 29.4309 35.6399C29.7659 35.8479 30.0209 36.1089 30.1949 36.4219C30.4244 36.7956 30.5164 37.2377 30.4549 37.6719V37.8109H28.3879V37.6899C28.3937 37.4846 28.3191 37.2851 28.1799 37.1339C28.0529 36.9719 27.8619 36.8439 27.6069 36.7519C27.3639 36.6589 27.0569 36.6119 26.6869 36.6119C26.4079 36.6119 26.1649 36.6359 25.9569 36.6819C25.7745 36.7186 25.5988 36.783 25.4359 36.8729C25.3193 36.944 25.2188 37.0387 25.1409 37.1509C25.0717 37.2533 25.0351 37.3743 25.0359 37.4979C25.0359 37.7179 25.1229 37.8919 25.2959 38.0199C25.4709 38.1469 25.7019 38.2569 25.9919 38.3499L26.9639 38.6449C27.3809 38.7599 27.8099 38.8819 28.2489 39.0089C28.6889 39.1249 29.0949 39.2759 29.4649 39.4609C29.8469 39.6459 30.1549 39.9069 30.3849 40.2429C30.6169 40.5779 30.7329 41.0239 30.7329 41.5799C30.7329 42.1129 30.6289 42.5699 30.4209 42.9519C30.2239 43.3219 29.9399 43.6239 29.5689 43.8549C29.2109 44.0749 28.7819 44.2369 28.2839 44.3419C27.7582 44.45 27.2226 44.5023 26.6859 44.4979Z" fill="#002E25"/>
<path d="M203.158 20.8418H128.474C126.265 20.8418 124.474 22.6327 124.474 24.8418V51.7368C124.474 53.9459 126.265 55.7368 128.474 55.7368H203.158C205.367 55.7368 207.158 53.9459 207.158 51.7368V24.8418C207.158 22.6327 205.367 20.8418 203.158 20.8418Z" fill="#FFD100"/>
<path d="M149.453 42.7899H146.59V33.9469H149.544C150.41 33.9469 151.154 34.1239 151.776 34.4779C152.395 34.8267 152.893 35.3554 153.205 35.9939C153.539 36.6499 153.706 37.4369 153.706 38.3549C153.706 39.2769 153.537 40.0679 153.2 40.7299C152.883 41.3746 152.377 41.9075 151.75 42.2579C151.117 42.6119 150.351 42.7899 149.453 42.7899ZM147.925 41.6239H149.379C150.053 41.6239 150.613 41.4969 151.059 41.2439C151.505 40.9879 151.839 40.6179 152.061 40.1339C152.282 39.6479 152.393 39.0539 152.393 38.3549C152.393 37.6619 152.282 37.0729 152.061 36.5899C151.861 36.1274 151.517 35.7415 151.081 35.4889C150.646 35.2389 150.106 35.1129 149.462 35.1129H147.925V41.6239ZM158.046 42.9239C157.393 42.9239 156.83 42.7839 156.358 42.5039C155.889 42.2215 155.511 41.8092 155.27 41.3169C155.017 40.8049 154.89 40.2049 154.89 39.5169C154.89 38.8369 155.017 38.2389 155.27 37.7209C155.507 37.2245 155.878 36.8044 156.341 36.5079C156.801 36.2169 157.339 36.0709 157.955 36.0709C158.33 36.0709 158.692 36.1329 159.043 36.2569C159.395 36.3809 159.71 36.5749 159.989 36.8399C160.268 37.1049 160.488 37.4489 160.65 37.8719C160.811 38.2919 160.891 38.8029 160.891 39.4049V39.8619H155.62V38.8949H159.626C159.626 38.5549 159.557 38.2549 159.419 37.9929C159.287 37.734 159.085 37.5172 158.836 37.3669C158.573 37.2095 158.271 37.1298 157.964 37.1369C157.601 37.1369 157.285 37.2269 157.014 37.4059C156.75 37.5774 156.536 37.8154 156.393 38.0959C156.248 38.3808 156.174 38.6963 156.177 39.0159V39.7719C156.177 40.2149 156.254 40.5919 156.41 40.9019C156.568 41.2139 156.788 41.4519 157.07 41.6149C157.352 41.7759 157.682 41.8569 158.059 41.8569C158.304 41.8569 158.527 41.8219 158.728 41.7529C158.925 41.686 159.105 41.5755 159.254 41.4298C159.402 41.284 159.516 41.1067 159.587 40.9109L160.809 41.1309C160.711 41.4909 160.536 41.8059 160.283 42.0769C160.019 42.3537 159.695 42.5676 159.337 42.7029C158.96 42.8499 158.53 42.9239 158.046 42.9239ZM165.346 36.1579V37.1939H161.724V36.1579H165.346ZM162.695 34.5689H163.986V40.8419C163.986 41.0919 164.024 41.2819 164.099 41.4079C164.164 41.5232 164.266 41.6132 164.388 41.6629C164.509 41.7059 164.64 41.7269 164.781 41.7269C164.884 41.7269 164.975 41.7199 165.053 41.7059L165.234 41.6709L165.467 42.7379C165.198 42.8306 164.915 42.8772 164.63 42.8759C164.304 42.8845 163.98 42.8228 163.68 42.6949C163.391 42.5716 163.143 42.3675 162.967 42.1069C162.786 41.8429 162.695 41.5099 162.695 41.1099V34.5689ZM169.113 42.9189C168.605 42.927 168.106 42.7843 167.679 42.5089C167.262 42.2329 166.934 41.8389 166.695 41.3299C166.459 40.8179 166.341 40.2029 166.341 39.4869C166.341 38.7699 166.46 38.1569 166.699 37.6469C166.941 37.1369 167.272 36.7469 167.692 36.4769C168.112 36.2069 168.589 36.0719 169.121 36.0719C169.533 36.0719 169.864 36.1409 170.114 36.2789C170.368 36.4139 170.563 36.5719 170.701 36.7539C170.842 36.9349 170.952 37.0939 171.03 37.2329H171.107V36.1579H172.398V42.7889H171.137V41.7579H171.03C170.952 41.8979 170.84 42.0599 170.693 42.2409C170.549 42.4219 170.35 42.5809 170.097 42.7159C169.844 42.8509 169.516 42.9189 169.113 42.9189ZM169.398 41.8179C169.769 41.8179 170.083 41.7199 170.339 41.5249C170.609 41.311 170.812 41.0249 170.926 40.6999C171.061 40.3489 171.129 39.9399 171.129 39.4739C171.129 39.0139 171.063 38.6099 170.93 38.2639C170.817 37.9446 170.615 37.6645 170.347 37.4569C170.091 37.2649 169.775 37.1679 169.398 37.1679C169.009 37.1679 168.685 37.2679 168.426 37.4699C168.157 37.6847 167.954 37.9705 167.839 38.2949C167.709 38.6429 167.645 39.0359 167.645 39.4739C167.645 39.9169 167.711 40.3159 167.843 40.6699C167.976 41.0239 168.171 41.3039 168.43 41.5109C168.692 41.7159 169.015 41.8179 169.398 41.8179ZM174.168 42.7889V36.1579H175.459V42.7889H174.168ZM174.82 35.1349C174.605 35.1387 174.397 35.0579 174.241 34.9099C174.166 34.8409 174.106 34.7568 174.065 34.6631C174.024 34.5693 174.003 34.4681 174.004 34.3659C174.004 34.1529 174.083 33.9719 174.241 33.8219C174.318 33.7475 174.408 33.689 174.508 33.6497C174.607 33.6104 174.713 33.5911 174.82 33.5929C175.044 33.5929 175.236 33.6699 175.394 33.8229C175.555 33.9719 175.636 34.1529 175.636 34.3659C175.636 34.5759 175.555 34.7579 175.394 34.9099C175.318 34.9833 175.228 35.0409 175.129 35.0795C175.031 35.1181 174.926 35.1369 174.82 35.1349ZM177.122 33.9469H178.413V40.9769C178.413 41.2609 178.449 41.4629 178.521 41.5809C178.596 41.6989 178.737 41.7549 178.944 41.7489C179.028 41.7485 179.112 41.7412 179.195 41.7269C179.252 41.7159 179.304 41.7029 179.35 41.6889L179.583 42.7199C179.494 42.7459 179.38 42.7699 179.242 42.7939C179.09 42.8214 178.935 42.8358 178.78 42.8369C178.222 42.8459 177.806 42.7129 177.532 42.4399C177.259 42.1659 177.122 41.7679 177.122 41.2439V33.9469ZM185.331 37.7769L184.161 37.9839C184.109 37.8289 184.03 37.6843 183.928 37.5569C183.815 37.4143 183.67 37.3002 183.505 37.2239C183.295 37.1308 183.066 37.0864 182.836 37.0939C182.47 37.0939 182.165 37.1769 181.921 37.3409C181.676 37.5019 181.554 37.7109 181.554 37.9669C181.554 38.1879 181.636 38.3669 181.8 38.5019C181.964 38.6379 182.228 38.7479 182.594 38.8349L183.647 39.0769C184.258 39.2169 184.712 39.4349 185.012 39.7279C185.311 40.0219 185.461 40.4029 185.461 40.8729C185.461 41.2699 185.346 41.6229 185.115 41.9349C184.888 42.2429 184.57 42.4849 184.161 42.6599C183.755 42.8359 183.285 42.9229 182.749 42.9229C182.007 42.9229 181.401 42.7649 180.932 42.4479C180.463 42.1279 180.175 41.6759 180.068 41.0879L181.316 40.8979C181.394 41.2239 181.554 41.4699 181.795 41.6369C182.037 41.8009 182.352 41.8829 182.741 41.8829C183.164 41.8829 183.502 41.7949 183.755 41.6189C184.009 41.4409 184.135 41.2239 184.135 40.9679C184.137 40.869 184.117 40.7708 184.077 40.6805C184.037 40.5901 183.977 40.5097 183.902 40.4449C183.75 40.3049 183.515 40.1979 183.198 40.1249L182.076 39.8799C181.457 39.7379 180.999 39.5139 180.703 39.2059C180.409 38.8979 180.263 38.5079 180.263 38.0359C180.263 37.6439 180.372 37.3019 180.591 37.0079C180.826 36.7021 181.139 36.4652 181.497 36.3219C181.883 36.1549 182.325 36.0719 182.823 36.0719C183.54 36.0719 184.104 36.2269 184.515 36.5379C184.927 36.8459 185.199 37.2579 185.331 37.7769Z" fill="#202020"/>
<path d="M-15.158 76.145H207.158" stroke="#E9E9E9" stroke-width="0.868"/>
<path d="M26.526 121.921C26.526 110.41 17.1948 101.079 5.68404 101.079C-5.82668 101.079 -15.158 110.41 -15.158 121.921C-15.158 133.432 -5.82668 142.763 5.68404 142.763C17.1948 142.763 26.526 133.432 26.526 121.921Z" fill="#FFEE32"/>
<path d="M-0.39502 129.737C-0.39502 128.157 0.244979 126.643 1.38498 125.526C2.53519 124.405 4.07877 123.779 5.68498 123.782C7.29598 123.782 8.84298 124.409 9.98298 125.526C10.5452 126.074 10.9923 126.729 11.298 127.452C11.6036 128.175 11.7617 128.952 11.763 129.737H-0.39502ZM5.68498 123.037C3.16498 123.037 1.12498 121.039 1.12498 118.571C1.12498 116.104 3.16498 114.105 5.68498 114.105C8.20298 114.105 10.243 116.104 10.243 118.571C10.243 121.039 8.20298 123.037 5.68398 123.037H5.68498Z" fill="#202020"/>
<path d="M43.4849 118.421C43.4849 117.254 43.6239 116.115 43.9009 115.003C44.1876 113.892 44.5787 112.81 45.0689 111.772C45.5411 110.769 46.0842 109.801 46.6939 108.875C47.2521 108.024 47.8648 107.209 48.5279 106.437H41.3799V104.123H51.5919V105.791C51.0871 106.402 50.6006 107.027 50.1329 107.667C49.6329 108.347 49.1469 109.07 48.6739 109.834C48.2134 110.602 47.796 111.395 47.4239 112.21C47.0629 113.03 46.7709 113.877 46.5479 114.753C46.3407 115.606 46.236 116.48 46.2359 117.358V118.421H43.4849ZM57.7859 118.671C56.7859 118.671 55.9029 118.484 55.1389 118.108C54.4124 117.754 53.8044 117.197 53.3889 116.504C52.9709 115.795 52.7629 114.954 52.7629 113.982H55.3889C55.3889 114.51 55.4859 114.975 55.6809 115.378C55.8749 115.767 56.1529 116.066 56.5149 116.274C56.8749 116.483 57.2999 116.587 57.7859 116.587C58.2579 116.587 58.6679 116.483 59.0159 116.274C59.3629 116.066 59.6339 115.753 59.8289 115.336C60.0369 114.906 60.1409 114.378 60.1409 113.752C60.1409 113.169 60.0439 112.689 59.8489 112.314C59.6549 111.925 59.3839 111.64 59.0359 111.46C58.672 111.261 58.2625 111.16 57.8479 111.168C57.5149 111.168 57.2089 111.224 56.9309 111.335C56.6652 111.439 56.4188 111.587 56.2019 111.772C55.9929 111.939 55.8119 112.134 55.6599 112.356L53.2419 112.043L53.8259 104.123H62.0379V106.437H56.0349L55.8059 109.959C56.0175 109.81 56.2406 109.677 56.4729 109.563C56.7229 109.438 57.0149 109.334 57.3479 109.251C57.7375 109.162 58.1363 109.12 58.5359 109.125C59.3279 109.125 60.0439 109.292 60.6829 109.626C61.3229 109.959 61.8289 110.466 62.2039 111.147C62.5799 111.828 62.7669 112.696 62.7669 113.752C62.7669 114.795 62.5659 115.684 62.1629 116.42C61.7713 117.146 61.1678 117.734 60.4329 118.108C59.6959 118.484 58.8139 118.671 57.7859 118.671ZM67.0439 118.421L77.5069 104.123H79.5279L69.0239 118.421H67.0439ZM68.4189 111.397C67.7249 111.397 67.1199 111.286 66.6059 111.064C66.0919 110.828 65.6959 110.439 65.4179 109.897C65.1539 109.355 65.0219 108.604 65.0219 107.646C65.0219 106.673 65.1539 105.916 65.4179 105.374C65.6959 104.832 66.0919 104.45 66.6059 104.228C67.1199 103.991 67.7249 103.873 68.4189 103.873C69.1279 103.873 69.7329 103.991 70.2329 104.228C70.7329 104.45 71.1149 104.832 71.3789 105.374C71.6569 105.916 71.7959 106.673 71.7959 107.646C71.7959 108.604 71.6569 109.362 71.3789 109.917C71.1149 110.459 70.7329 110.841 70.2329 111.064C69.7329 111.286 69.1279 111.397 68.4189 111.397ZM68.4189 109.855C68.9889 109.855 69.3639 109.667 69.5449 109.292C69.7259 108.917 69.8159 108.41 69.8159 107.771V107.5C69.8159 107.083 69.7739 106.722 69.6909 106.416C69.6209 106.096 69.4819 105.853 69.2739 105.687C69.0789 105.506 68.7949 105.416 68.4189 105.416C67.8639 105.416 67.4889 105.61 67.2939 105.999C67.1129 106.374 67.0229 106.875 67.0229 107.5V107.771C67.0229 108.41 67.1129 108.917 67.2939 109.292C67.4889 109.667 67.8639 109.855 68.4189 109.855ZM78.0899 118.671C77.3949 118.671 76.7909 118.56 76.2769 118.338C75.7769 118.101 75.3879 117.712 75.1099 117.171C74.8459 116.629 74.7139 115.878 74.7139 114.92C74.7139 113.947 74.8459 113.19 75.1099 112.648C75.3879 112.106 75.7769 111.724 76.2769 111.501C76.7909 111.265 77.3949 111.147 78.0899 111.147C78.7989 111.147 79.4029 111.265 79.9029 111.501C80.4179 111.724 80.8069 112.106 81.0709 112.648C81.3349 113.19 81.4669 113.947 81.4669 114.92C81.4669 115.878 81.3349 116.636 81.0709 117.191C80.8069 117.733 80.4179 118.115 79.9029 118.338C79.4029 118.56 78.7989 118.671 78.0899 118.671ZM78.0899 117.129C78.6599 117.129 79.0349 116.941 79.2159 116.566C79.3959 116.177 79.4869 115.663 79.4869 115.024V114.774C79.4869 114.357 79.4449 113.996 79.3619 113.69C79.2919 113.37 79.1599 113.127 78.9659 112.96C78.7709 112.78 78.4789 112.689 78.0899 112.689C77.5339 112.689 77.1659 112.884 76.9859 113.273C76.8049 113.648 76.7149 114.148 76.7149 114.774V115.024C76.7149 115.663 76.8049 116.177 76.9859 116.566C77.1659 116.941 77.5339 117.129 78.0899 117.129Z" fill="#202020"/>
<path d="M41.531 130.316H43.381L46.599 138.171H46.717L49.934 130.316H51.784V140.421H50.334V133.109H50.24L47.26 140.406H46.056L43.076 133.104H42.982V140.421H41.532L41.531 130.316ZM56.996 140.574C56.25 140.574 55.606 140.414 55.067 140.095C54.5302 139.772 54.0985 139.301 53.824 138.738C53.534 138.153 53.389 137.467 53.389 136.681C53.389 135.905 53.534 135.22 53.824 134.628C54.116 134.036 54.524 133.574 55.047 133.242C55.574 132.91 56.189 132.743 56.893 132.743C57.3165 132.742 57.7369 132.814 58.136 132.956C58.5394 133.098 58.9076 133.325 59.216 133.622C59.536 133.924 59.787 134.317 59.972 134.801C60.156 135.281 60.248 135.865 60.248 136.553V137.076H54.223V135.97H58.803C58.803 135.582 58.723 135.238 58.565 134.939C58.4136 134.643 58.183 134.396 57.899 134.224C57.5984 134.044 57.2531 133.954 56.903 133.962C56.488 133.962 56.126 134.064 55.817 134.268C55.5152 134.464 55.2703 134.737 55.107 135.058C54.9416 135.383 54.8569 135.744 54.86 136.109V136.972C54.86 137.479 54.949 137.91 55.126 138.265C55.307 138.62 55.559 138.891 55.881 139.079C56.204 139.263 56.581 139.355 57.011 139.355C57.291 139.355 57.546 139.316 57.776 139.237C58.0015 139.161 58.2069 139.035 58.3769 138.868C58.5469 138.702 58.6772 138.499 58.758 138.275L60.154 138.526C60.0459 138.931 59.8391 139.302 59.552 139.607C59.2502 139.923 58.8811 140.168 58.472 140.322C58.041 140.49 57.549 140.574 56.996 140.574ZM61.732 140.421V132.842H63.148V134.076H63.242C63.4 133.658 63.658 133.332 64.017 133.099C64.375 132.862 64.804 132.743 65.304 132.743C65.811 132.743 66.235 132.862 66.577 133.099C66.923 133.336 67.178 133.661 67.342 134.076H67.421C67.6015 133.672 67.9035 133.334 68.285 133.109C68.679 132.865 69.15 132.743 69.696 132.743C70.383 132.743 70.944 132.959 71.378 133.39C71.816 133.821 72.035 134.47 72.035 135.339V140.421H70.559V135.477C70.559 134.964 70.419 134.592 70.14 134.362C69.8579 134.131 69.5026 134.008 69.138 134.016C68.658 134.016 68.285 134.164 68.018 134.461C67.752 134.753 67.619 135.13 67.619 135.59V140.421H66.148V135.383C66.148 134.972 66.02 134.641 65.763 134.391C65.507 134.141 65.173 134.016 64.762 134.016C64.482 134.016 64.224 134.09 63.987 134.238C63.749 134.388 63.5537 134.597 63.42 134.845C63.2739 135.123 63.2006 135.434 63.207 135.748V140.421H61.732ZM73.978 140.421V130.316H75.453V134.071H75.542C75.627 133.913 75.751 133.73 75.912 133.523C76.073 133.316 76.297 133.135 76.583 132.98C76.869 132.822 77.247 132.743 77.718 132.743C78.2977 132.734 78.8672 132.895 79.356 133.207C79.836 133.516 80.213 133.962 80.486 134.544C80.762 135.127 80.9 135.827 80.9 136.646C80.9 137.465 80.764 138.168 80.491 138.753C80.218 139.336 79.843 139.785 79.366 140.1C78.8804 140.415 78.3119 140.579 77.733 140.569C77.272 140.569 76.895 140.492 76.603 140.337C76.3407 140.205 76.1088 140.02 75.922 139.794C75.7804 139.621 75.6533 139.436 75.542 139.242H75.418V140.421H73.978ZM75.423 136.632C75.423 137.164 75.501 137.632 75.655 138.033C75.81 138.434 76.034 138.748 76.326 138.975C76.619 139.199 76.978 139.311 77.402 139.311C77.843 139.311 78.211 139.194 78.507 138.961C78.803 138.724 79.027 138.403 79.178 137.998C79.333 137.594 79.41 137.138 79.41 136.632C79.41 136.132 79.334 135.683 79.183 135.285C79.0538 134.913 78.821 134.586 78.512 134.342C78.216 134.112 77.846 133.997 77.402 133.997C76.974 133.997 76.612 134.107 76.316 134.327C76.024 134.548 75.802 134.855 75.65 135.25C75.499 135.645 75.423 136.105 75.423 136.632ZM85.671 140.574C84.924 140.574 84.281 140.414 83.741 140.095C83.2043 139.772 82.7726 139.301 82.498 138.738C82.208 138.153 82.064 137.467 82.064 136.681C82.064 135.905 82.208 135.22 82.498 134.628C82.7689 134.061 83.1928 133.581 83.722 133.242C84.248 132.91 84.863 132.743 85.567 132.743C85.995 132.743 86.409 132.814 86.81 132.956C87.212 133.097 87.572 133.319 87.891 133.622C88.21 133.924 88.462 134.317 88.646 134.801C88.83 135.281 88.922 135.865 88.922 136.553V137.076H82.898V135.97H87.476C87.476 135.582 87.398 135.238 87.24 134.939C87.0885 134.644 86.8579 134.396 86.574 134.224C86.273 134.044 85.9274 133.954 85.577 133.962C85.162 133.962 84.8 134.064 84.491 134.268C84.1892 134.465 83.9444 134.737 83.781 135.058C83.6153 135.383 83.5306 135.744 83.534 136.109V136.972C83.534 137.479 83.623 137.91 83.8 138.265C83.981 138.62 84.233 138.891 84.555 139.079C84.878 139.263 85.254 139.355 85.685 139.355C85.965 139.355 86.22 139.316 86.45 139.237C86.6755 139.161 86.8809 139.035 87.0509 138.868C87.2209 138.702 87.3512 138.499 87.432 138.275L88.828 138.526C88.7205 138.931 88.5135 139.302 88.226 139.607C87.9242 139.923 87.5551 140.168 87.146 140.322C86.715 140.49 86.223 140.574 85.671 140.574ZM90.406 140.421V132.842H91.832V134.046H91.911C92.049 133.638 92.293 133.317 92.641 133.084C92.9936 132.846 93.4107 132.722 93.836 132.729C94.043 132.729 94.229 132.753 94.393 132.803C94.558 132.852 94.702 132.919 94.827 133.005L94.354 134.238C94.2576 134.193 94.1567 134.159 94.053 134.135C93.9272 134.103 93.7978 134.088 93.668 134.09C93.326 134.09 93.02 134.164 92.75 134.312C92.4883 134.453 92.2688 134.66 92.114 134.914C91.959 135.171 91.882 135.464 91.882 135.793V140.421H90.406ZM103.673 140.559C102.762 140.559 101.961 140.349 101.27 139.928C100.58 139.507 100.042 138.91 99.657 138.137C99.272 137.36 99.08 136.439 99.08 135.373C99.08 134.567 99.193 133.844 99.42 133.202C99.6277 132.599 99.9549 132.043 100.382 131.569C100.785 131.124 101.28 130.772 101.833 130.538C102.405 130.295 103.022 130.172 103.644 130.178C104.19 130.178 104.701 130.258 105.178 130.419C105.659 130.581 106.088 130.809 106.466 131.105C106.844 131.398 107.157 131.748 107.404 132.156C107.654 132.564 107.821 133.015 107.907 133.508H106.343C106.26 133.221 106.132 132.95 105.963 132.704C105.801 132.467 105.599 132.26 105.366 132.092C105.132 131.919 104.87 131.787 104.591 131.702C104.289 131.611 103.975 131.566 103.659 131.569C103.086 131.569 102.568 131.715 102.104 132.008C101.64 132.301 101.272 132.73 100.999 133.296C100.729 133.859 100.594 134.548 100.594 135.363C100.594 136.183 100.728 136.875 100.994 137.441C101.261 138.007 101.626 138.436 102.089 138.729C102.553 139.021 103.081 139.168 103.673 139.168C104.239 139.168 104.733 139.049 105.154 138.812C105.575 138.576 105.9 138.248 106.131 137.831C106.364 137.413 106.481 136.934 106.481 136.395L106.723 136.508H103.905V135.25H107.976V140.421H106.802L106.663 139.212H106.614C106.264 139.625 105.835 139.965 105.351 140.209C104.884 140.442 104.325 140.559 103.673 140.559ZM109.636 140.421V132.842H111.062V134.046H111.141C111.28 133.638 111.523 133.317 111.872 133.084C112.224 132.846 112.641 132.722 113.066 132.729C113.273 132.729 113.459 132.753 113.623 132.803C113.788 132.852 113.933 132.919 114.058 133.005L113.584 134.238C113.488 134.193 113.387 134.158 113.283 134.135C113.157 134.103 113.028 134.088 112.898 134.09C112.556 134.09 112.25 134.164 111.98 134.312C111.719 134.453 111.499 134.661 111.344 134.914C111.189 135.171 111.112 135.464 111.112 135.793V140.421H109.636ZM117.914 140.574C117.203 140.574 116.583 140.411 116.054 140.086C115.521 139.757 115.093 139.282 114.82 138.719C114.527 138.133 114.381 137.449 114.381 136.666C114.381 135.88 114.527 135.192 114.82 134.604C115.092 134.038 115.52 133.562 116.054 133.232C116.583 132.906 117.203 132.743 117.914 132.743C118.624 132.743 119.244 132.906 119.774 133.232C120.304 133.558 120.715 134.015 121.007 134.604C121.3 135.192 121.447 135.88 121.447 136.666C121.447 137.449 121.3 138.133 121.007 138.719C120.734 139.283 120.307 139.757 119.774 140.086C119.244 140.411 118.624 140.574 117.914 140.574ZM117.919 139.336C118.379 139.336 118.761 139.214 119.063 138.97C119.366 138.727 119.59 138.403 119.734 137.998C119.882 137.594 119.956 137.148 119.956 136.661C119.956 136.178 119.882 135.734 119.734 135.329C119.606 134.945 119.374 134.605 119.063 134.347C118.761 134.1 118.379 133.977 117.919 133.977C117.455 133.977 117.07 134.1 116.764 134.347C116.453 134.606 116.219 134.946 116.088 135.329C115.939 135.757 115.866 136.208 115.871 136.661C115.871 137.148 115.943 137.594 116.088 137.998C116.236 138.403 116.461 138.727 116.764 138.97C117.07 139.214 117.455 139.336 117.919 139.336ZM124.353 140.421L122.123 132.842H123.647L125.133 138.408H125.207L126.697 132.842H128.221L129.702 138.383H129.776L131.251 132.842H132.776L130.55 140.421H129.045L127.506 134.949H127.392L125.853 140.421H124.353ZM137.561 132.842V134.026H133.421V132.842H137.561ZM134.531 131.026H136.006V138.196C136.006 138.482 136.049 138.697 136.135 138.842C136.209 138.974 136.325 139.076 136.465 139.133C136.604 139.183 136.753 139.207 136.914 139.207C137.033 139.207 137.136 139.199 137.225 139.183L137.432 139.143L137.699 140.362C137.391 140.467 137.068 140.52 136.742 140.52C136.369 140.529 135.999 140.458 135.656 140.312C135.325 140.172 135.043 139.939 134.842 139.641C134.635 139.339 134.531 138.959 134.531 138.502V131.026ZM140.678 135.921V140.421H139.203V130.316H140.658V134.076H140.752C140.921 133.678 141.204 133.34 141.566 133.104C141.931 132.863 142.408 132.743 142.997 132.743C143.517 132.743 143.971 132.85 144.359 133.064C144.75 133.278 145.053 133.597 145.267 134.021C145.484 134.442 145.593 134.969 145.593 135.6V140.421H144.117V135.778C144.117 135.222 143.974 134.791 143.688 134.485C143.402 134.176 143.004 134.021 142.494 134.021C142.145 134.021 141.833 134.095 141.556 134.243C141.282 134.393 141.057 134.619 140.91 134.895C140.755 135.178 140.678 135.52 140.678 135.921Z" fill="#585D69"/>
</g>
<defs>
<clipPath id="clip0_70_119639">
<path d="M-36 12C-36 5.37258 -30.6274 0 -24 0H216C222.627 0 228 5.37258 228 12V155C228 161.627 222.627 167 216 167H-24C-30.6274 167 -36 161.627 -36 155V12Z" fill="white"/>
</clipPath>
</defs>
</svg>
