<svg width="264" height="222" viewBox="0 0 264 222" fill="none" xmlns="http://www.w3.org/2000/svg">
<g clip-path="url(#clip0_70_119603)">
<path d="M0 0H264V222H0V0Z" fill="white"/>
<path d="M22.1621 40.8422V28.9272H24.4201V40.8422H22.1621ZM26.6121 40.8422V31.7062H28.3841L28.5581 32.9222H28.6791C28.8881 32.6442 29.1311 32.4022 29.4091 32.1922C29.6991 31.9722 30.0221 31.8052 30.3811 31.6892C30.773 31.5585 31.184 31.4939 31.5971 31.4982C32.1761 31.4982 32.6851 31.6022 33.1251 31.8112C33.5771 32.0192 33.9301 32.3552 34.1851 32.8182C34.4401 33.2812 34.5671 33.9012 34.5671 34.6762V40.8422H32.4311V35.0582C32.4311 34.7342 32.3911 34.4682 32.3091 34.2602C32.2391 34.0402 32.1291 33.8662 31.9791 33.7382C31.8345 33.5962 31.6552 33.4944 31.4591 33.4432C31.2321 33.3828 30.998 33.3536 30.7631 33.3562C30.3811 33.3562 30.0331 33.4492 29.7211 33.6342C29.4211 33.8192 29.1771 34.0742 28.9911 34.3982C28.8181 34.7232 28.7311 35.0982 28.7311 35.5282V40.8422H26.6121ZM40.2981 41.0512C39.3481 41.0512 38.5561 40.8832 37.9181 40.5472C37.2941 40.2002 36.8251 39.6732 36.5121 38.9672C36.1991 38.2602 36.0431 37.3632 36.0431 36.2742C36.0431 35.1742 36.1991 34.2772 36.5121 33.5822C36.8361 32.8762 37.3111 32.3552 37.9361 32.0192C38.5731 31.6722 39.3601 31.4982 40.2981 31.4982C40.9121 31.4982 41.4561 31.5732 41.9311 31.7242C42.4061 31.8742 42.8111 32.1062 43.1471 32.4182C43.4941 32.7192 43.7551 33.0962 43.9281 33.5482C44.1021 33.9982 44.1881 34.5262 44.1881 35.1282H42.0351C42.0351 34.7002 41.9721 34.3462 41.8451 34.0682C41.7253 33.7985 41.5168 33.5779 41.2541 33.4432C40.9991 33.2932 40.6691 33.2172 40.2641 33.2172C39.7891 33.2172 39.4011 33.3272 39.1001 33.5472C38.7991 33.7672 38.5731 34.0972 38.4221 34.5372C38.2841 34.9662 38.2141 35.5102 38.2141 36.1702V36.3962C38.2141 37.0442 38.2841 37.5882 38.4231 38.0282C38.5731 38.4682 38.8051 38.7982 39.1171 39.0182C39.4301 39.2272 39.8411 39.3312 40.3501 39.3312C40.7441 39.3312 41.0681 39.2612 41.3231 39.1232C41.5891 38.9732 41.7921 38.7532 41.9311 38.4632C42.0701 38.1732 42.1391 37.8262 42.1391 37.4202H44.1891C44.1974 37.9416 44.1093 38.46 43.9291 38.9492C43.7657 39.385 43.5039 39.7772 43.1641 40.0952C42.8094 40.4189 42.3888 40.6619 41.9311 40.8072C41.4561 40.9692 40.9121 41.0512 40.2981 41.0512ZM49.7971 41.0512C48.8011 41.0512 47.9671 40.8832 47.2961 40.5472C46.6295 40.205 46.0973 39.6485 45.7851 38.9672C45.4491 38.2602 45.2811 37.3632 45.2811 36.2742C45.2811 35.1742 45.4491 34.2772 45.7851 33.5822C46.0944 32.9036 46.6275 32.3518 47.2951 32.0192C47.9671 31.6722 48.8011 31.4982 49.7971 31.4982C50.8041 31.4982 51.6371 31.6722 52.2971 32.0182C52.9653 32.3511 53.499 32.9032 53.8091 33.5822C54.1451 34.2772 54.3131 35.1742 54.3131 36.2742C54.3131 37.3632 54.1451 38.2602 53.8091 38.9662C53.4969 39.6475 52.9648 40.204 52.2981 40.5462C51.6381 40.8832 50.8041 41.0512 49.7971 41.0512ZM49.7971 39.3142C50.3531 39.3142 50.7981 39.2092 51.1341 39.0012C51.4811 38.7812 51.7301 38.4572 51.8811 38.0282C52.0431 37.5882 52.1241 37.0442 52.1241 36.3962V36.1532C52.1241 35.5042 52.0431 34.9662 51.8811 34.5372C51.7311 34.0972 51.4811 33.7732 51.1341 33.5652C50.7981 33.3452 50.3521 33.2352 49.7971 33.2352C49.2411 33.2352 48.7891 33.3452 48.4421 33.5652C48.1061 33.7732 47.8571 34.0972 47.6951 34.5372C47.5451 34.9662 47.4691 35.5042 47.4691 36.1532V36.3962C47.4691 37.0442 47.5451 37.5882 47.6951 38.0282C47.8571 38.4572 48.1061 38.7812 48.4421 39.0012C48.7891 39.2102 49.2411 39.3142 49.7971 39.3142ZM55.8521 40.8422V31.7062H57.6241L57.7981 32.9222H57.9191C58.1161 32.6442 58.3421 32.4022 58.5971 32.1922C58.8526 31.972 59.147 31.8014 59.4651 31.6892C59.8011 31.5622 60.1651 31.4982 60.5591 31.4982C61.0537 31.4891 61.5429 31.6025 61.9831 31.8282C62.4001 32.0482 62.7241 32.4132 62.9561 32.9222H63.0781C63.2741 32.6442 63.5061 32.4022 63.7721 32.1922C64.0449 31.9689 64.3569 31.7983 64.6921 31.6892C65.0545 31.5593 65.4371 31.4946 65.8221 31.4982C66.3661 31.4982 66.8471 31.5962 67.2631 31.7932C67.6801 31.9902 68.0101 32.3142 68.2531 32.7662C68.4961 33.2172 68.6181 33.8192 68.6181 34.5722V40.8422H66.5001V35.0062C66.5001 34.6942 66.4651 34.4332 66.3961 34.2252C66.3441 34.0341 66.2423 33.8602 66.1011 33.7212C65.9783 33.5894 65.8221 33.4934 65.6491 33.4432C65.4641 33.3835 65.2705 33.3541 65.0761 33.3562C64.7401 33.3562 64.4391 33.4492 64.1731 33.6342C63.9071 33.8192 63.6931 34.0742 63.5301 34.3982C63.3801 34.7232 63.3041 35.0982 63.3041 35.5282V40.8422H61.1851V35.0062C61.1851 34.6942 61.1511 34.4332 61.0811 34.2252C61.0291 34.0341 60.9273 33.8602 60.7861 33.7212C60.6633 33.5894 60.5071 33.4934 60.3341 33.4432C60.149 33.3835 59.9555 33.3542 59.7611 33.3562C59.4251 33.3562 59.1191 33.4492 58.8411 33.6342C58.5741 33.8192 58.3611 34.0742 58.1981 34.3982C58.0481 34.7232 57.9721 35.0982 57.9721 35.5282V40.8422H55.8521ZM74.4771 41.0512C73.5041 41.0512 72.6941 40.8832 72.0451 40.5472C71.3971 40.2002 70.9111 39.6732 70.5861 38.9672C70.2621 38.2602 70.1001 37.3632 70.1001 36.2742C70.1001 35.1742 70.2621 34.2772 70.5861 33.5822C70.9111 32.8762 71.3961 32.3552 72.0461 32.0192C72.6941 31.6722 73.5041 31.4982 74.4761 31.4982C75.3561 31.4982 76.0921 31.6662 76.6831 32.0022C77.2851 32.3262 77.7361 32.8302 78.0371 33.5122C78.3381 34.1962 78.4891 35.0822 78.4891 36.1702V36.7952H72.2711C72.2941 37.3632 72.3811 37.8432 72.5311 38.2372C72.6821 38.6192 72.9141 38.9082 73.2261 39.1052C73.5511 39.2912 73.9731 39.3832 74.4941 39.3832C74.7611 39.3832 75.0101 39.3482 75.2411 39.2792C75.462 39.2149 75.6684 39.1087 75.8491 38.9662C76.0231 38.8162 76.1561 38.6302 76.2491 38.4102C76.3531 38.1902 76.4051 37.9362 76.4051 37.6462H78.4891C78.4891 38.2262 78.3851 38.7292 78.1761 39.1572C77.9801 39.5862 77.6961 39.9392 77.3261 40.2172C76.9474 40.5049 76.5169 40.7171 76.0581 40.8422C75.5434 40.9852 75.0113 41.0556 74.4771 41.0512ZM72.3061 35.3012H76.2831C76.2831 34.9192 76.2371 34.5952 76.1441 34.3292C76.0751 34.0842 75.9506 33.8583 75.7801 33.6692C75.6329 33.4976 75.4401 33.3711 75.2241 33.3042C74.9842 33.2201 74.7313 33.1791 74.4771 33.1832C74.0251 33.1832 73.6431 33.2582 73.3311 33.4082C73.0301 33.5582 72.7981 33.7912 72.6361 34.1032C72.4741 34.4162 72.3641 34.8142 72.3061 35.3012ZM87.7761 41.0512C86.8501 41.0512 86.0281 40.9172 85.3101 40.6512C84.6041 40.3732 84.0481 39.9792 83.6431 39.4702C83.2381 38.9602 83.0351 38.3532 83.0351 37.6462C83.0351 36.8242 83.2551 36.1822 83.6951 35.7182C84.1545 35.2389 84.7378 34.8962 85.3801 34.7282V34.6582C84.8305 34.431 84.3292 34.1011 83.9031 33.6862C83.5101 33.2932 83.3131 32.7262 83.3131 31.9842C83.3131 31.2782 83.5041 30.6822 83.8861 30.1952C84.2801 29.7092 84.8241 29.3452 85.5191 29.1012C86.2251 28.8462 87.0411 28.7192 87.9681 28.7192C88.8591 28.7192 89.6411 28.8522 90.3121 29.1192C90.9841 29.3852 91.5111 29.7672 91.8931 30.2652C92.2751 30.7512 92.4661 31.3252 92.4661 31.9852V32.4182H90.3471V32.1412C90.3471 31.7582 90.2491 31.4462 90.0521 31.2032C89.8671 30.9482 89.5951 30.7632 89.2361 30.6472C88.8761 30.5202 88.4421 30.4562 87.9331 30.4562C87.5511 30.4562 87.2031 30.4962 86.8911 30.5772C86.5901 30.6472 86.3351 30.7572 86.1271 30.9072C85.9236 31.052 85.7568 31.2424 85.6401 31.4632C85.532 31.7031 85.4787 31.9641 85.4841 32.2272C85.4841 32.5972 85.5771 32.9112 85.7621 33.1652C85.9605 33.4215 86.2245 33.6195 86.5261 33.7382C86.8391 33.8662 87.1751 33.9292 87.5341 33.9292H88.6971V35.6662H87.5861C87.1927 35.6648 86.801 35.7177 86.4221 35.8232C86.0858 35.9022 85.7824 36.084 85.5541 36.3432C85.3341 36.5982 85.2241 36.9692 85.2241 37.4552C85.2241 37.8842 85.3281 38.2372 85.5361 38.5152C85.7451 38.7812 86.0401 38.9842 86.4221 39.1232C86.8161 39.2502 87.2851 39.3132 87.8291 39.3132C88.3961 39.3132 88.8651 39.2442 89.2361 39.1052C89.6061 38.9552 89.8841 38.7352 90.0691 38.4452C90.2551 38.1552 90.3471 37.8082 90.3471 37.4032V33.9302H94.0641V35.6672H92.4661V37.3522C92.4661 38.0932 92.2861 38.7422 91.9281 39.2972C91.5801 39.8532 91.0591 40.2872 90.3651 40.6002C89.6701 40.9012 88.8071 41.0522 87.7771 41.0522L87.7761 41.0512ZM99.0441 40.8422V28.9272H108.336V30.8552H101.302V33.7912H107.572V35.7182H101.302V38.9142H108.44V40.8422H99.0441ZM109.306 40.8422L112.572 36.1352L109.532 31.7062H112.103L113.909 34.5372H114.013L115.854 31.7072H118.268L115.212 36.0832L118.442 40.8432H115.906L113.874 37.6812H113.77L111.721 40.8422H109.306ZM119.482 43.8472V31.7072H121.237L121.41 32.9222H121.532C121.816 32.4628 122.226 32.0949 122.713 31.8622C123.215 31.6157 123.769 31.491 124.328 31.4982C125.081 31.4982 125.724 31.6662 126.256 32.0022C126.8 32.3372 127.217 32.8582 127.507 33.5652C127.808 34.2712 127.958 35.1802 127.958 36.2922C127.958 37.3802 127.808 38.2772 127.507 38.9842C127.206 39.6902 126.789 40.2112 126.256 40.5472C125.735 40.8832 125.133 41.0512 124.45 41.0512C124.064 41.0546 123.678 41.0076 123.304 40.9112C122.975 40.8275 122.663 40.6867 122.383 40.4952C122.118 40.2992 121.889 40.0582 121.706 39.7832H121.601V43.8472H119.482ZM123.668 39.2272C124.189 39.2272 124.6 39.1282 124.901 38.9322C125.214 38.7232 125.434 38.4102 125.561 37.9942C125.7 37.5772 125.77 37.0502 125.77 36.4142V36.1702C125.77 35.5222 125.7 34.9892 125.561 34.5722C125.434 34.1442 125.214 33.8322 124.901 33.6342C124.6 33.4262 124.189 33.3222 123.668 33.3222C123.194 33.3222 122.8 33.4322 122.487 33.6522C122.186 33.8722 121.96 34.1962 121.81 34.6242C121.671 35.0412 121.601 35.5562 121.601 36.1702V36.3782C121.601 36.8302 121.642 37.2352 121.723 37.5942C121.804 37.9422 121.926 38.2372 122.088 38.4802C122.261 38.7232 122.476 38.9082 122.73 39.0362C122.997 39.1632 123.309 39.2272 123.668 39.2272ZM133.426 41.0512C132.453 41.0512 131.643 40.8832 130.994 40.5472C130.346 40.2002 129.859 39.6732 129.535 38.9672C129.211 38.2602 129.049 37.3632 129.049 36.2742C129.049 35.1742 129.211 34.2772 129.535 33.5822C129.859 32.8762 130.346 32.3552 130.994 32.0192C131.643 31.6722 132.453 31.4982 133.426 31.4982C134.306 31.4982 135.041 31.6662 135.632 32.0022C136.234 32.3262 136.685 32.8302 136.986 33.5122C137.287 34.1962 137.438 35.0822 137.438 36.1702V36.7952H131.22C131.243 37.3632 131.33 37.8432 131.481 38.2372C131.631 38.6192 131.863 38.9082 132.175 39.1052C132.499 39.2912 132.922 39.3832 133.443 39.3832C133.709 39.3832 133.958 39.3482 134.19 39.2792C134.411 39.2149 134.617 39.1087 134.798 38.9662C134.972 38.8162 135.105 38.6302 135.197 38.4102C135.302 38.1902 135.354 37.9362 135.354 37.6462H137.438C137.438 38.2262 137.334 38.7292 137.125 39.1572C136.936 39.5769 136.643 39.9416 136.274 40.2172C135.895 40.505 135.465 40.7172 135.006 40.8422C134.492 40.9852 133.96 41.0555 133.426 41.0512ZM131.255 35.3012H135.232C135.232 34.9192 135.186 34.5952 135.093 34.3292C135.024 34.084 134.899 33.858 134.728 33.6692C134.581 33.4976 134.389 33.371 134.173 33.3042C133.933 33.2201 133.68 33.1791 133.426 33.1832C132.974 33.1832 132.592 33.2582 132.279 33.4082C131.979 33.5585 131.735 33.8025 131.585 34.1032C131.423 34.4162 131.313 34.8142 131.255 35.3012ZM138.976 40.8422V31.7062H140.747L140.921 32.9222H141.043C141.251 32.6442 141.494 32.4022 141.772 32.1922C142.062 31.9722 142.386 31.8052 142.745 31.6892C143.115 31.5622 143.521 31.4982 143.961 31.4982C144.539 31.4982 145.049 31.6022 145.489 31.8112C145.941 32.0192 146.294 32.3552 146.548 32.8182C146.803 33.2812 146.931 33.9012 146.931 34.6762V40.8422H144.794V35.0582C144.794 34.7342 144.754 34.4682 144.673 34.2602C144.603 34.0402 144.493 33.8662 144.343 33.7382C144.198 33.5961 144.019 33.4944 143.822 33.4432C143.595 33.383 143.362 33.3537 143.127 33.3562C142.745 33.3562 142.397 33.4492 142.085 33.6342C141.781 33.8229 141.53 34.0858 141.355 34.3982C141.182 34.7232 141.095 35.0982 141.095 35.5282V40.8422H138.976ZM152.419 41.0512C151.759 41.0512 151.18 40.9812 150.682 40.8422C150.184 40.6922 149.767 40.4892 149.431 40.2342C149.113 39.9998 148.852 39.697 148.667 39.3482C148.504 38.9945 148.421 38.6089 148.424 38.2192V38.0632C148.434 38.0294 148.44 37.9945 148.441 37.9592H150.526V38.0982C150.537 38.4112 150.636 38.6652 150.821 38.8622C151.006 39.0472 151.249 39.1812 151.55 39.2622C152.142 39.4115 152.76 39.4234 153.357 39.2972C153.634 39.2272 153.86 39.1232 154.034 38.9842C154.122 38.917 154.193 38.83 154.241 38.7303C154.29 38.6306 154.314 38.521 154.312 38.4102C154.312 38.1102 154.196 37.8782 153.964 37.7162C153.733 37.5542 153.426 37.4202 153.044 37.3162C152.673 37.2122 152.274 37.1022 151.846 36.9862C151.463 36.8822 151.081 36.7662 150.699 36.6392C150.334 36.5196 149.984 36.3565 149.657 36.1532C149.355 35.9556 149.101 35.6945 148.91 35.3882C148.725 35.0762 148.632 34.6882 148.632 34.2252C148.632 33.7732 148.731 33.3792 148.928 33.0442C149.124 32.7082 149.397 32.4302 149.744 32.2102C150.121 31.9657 150.539 31.7894 150.977 31.6892C151.452 31.5732 151.967 31.5152 152.523 31.5152C153.067 31.5152 153.559 31.5732 153.999 31.6892C154.451 31.8052 154.839 31.9732 155.163 32.1932C155.499 32.4012 155.753 32.6622 155.927 32.9742C156.157 33.3479 156.249 33.7899 156.188 34.2242V34.3642H154.121V34.2422C154.126 34.0368 154.051 33.8373 153.912 33.6862C153.785 33.5242 153.594 33.3962 153.339 33.3042C153.096 33.2122 152.789 33.1652 152.419 33.1652C152.141 33.1652 151.898 33.1882 151.689 33.2352C151.481 33.2812 151.307 33.3452 151.168 33.4252C151.051 33.4965 150.951 33.5916 150.873 33.7042C150.804 33.8066 150.768 33.9277 150.769 34.0512C150.769 34.2712 150.856 34.4452 151.029 34.5722C151.203 34.6992 151.434 34.8092 151.724 34.9022C152.025 34.9952 152.349 35.0932 152.697 35.1972C153.113 35.3132 153.542 35.4352 153.982 35.5622C154.422 35.6782 154.827 35.8282 155.198 36.0142C155.58 36.1992 155.887 36.4592 156.118 36.7952C156.35 37.1312 156.466 37.5772 156.466 38.1332C156.466 38.6652 156.361 39.1232 156.153 39.5052C155.956 39.8752 155.672 40.1762 155.302 40.4082C154.905 40.6428 154.47 40.8072 154.017 40.8942C153.491 41.0026 152.956 41.0552 152.419 41.0512ZM161.919 41.0512C160.947 41.0512 160.136 40.8832 159.488 40.5472C158.839 40.2002 158.353 39.6732 158.029 38.9672C157.705 38.2602 157.543 37.3632 157.543 36.2742C157.543 35.1742 157.705 34.2772 158.029 33.5822C158.353 32.8762 158.839 32.3552 159.488 32.0192C160.136 31.6722 160.947 31.4982 161.919 31.4982C162.799 31.4982 163.535 31.6662 164.125 32.0022C164.727 32.3262 165.179 32.8302 165.48 33.5122C165.781 34.1962 165.932 35.0822 165.932 36.1702V36.7952H159.714C159.737 37.3632 159.824 37.8432 159.974 38.2372C160.125 38.6192 160.356 38.9082 160.669 39.1052C160.993 39.2912 161.416 39.3832 161.937 39.3832C162.203 39.3832 162.452 39.3482 162.684 39.2792C162.915 39.2092 163.118 39.1052 163.292 38.9662C163.465 38.8162 163.598 38.6302 163.691 38.4102C163.799 38.1703 163.853 37.9093 163.847 37.6462H165.932C165.932 38.2262 165.827 38.7292 165.619 39.1572C165.429 39.5767 165.137 39.9413 164.768 40.2172C164.389 40.5048 163.959 40.717 163.5 40.8422C162.985 40.9853 162.453 41.0556 161.919 41.0512ZM159.748 35.3012H163.726C163.726 34.9192 163.679 34.5952 163.587 34.3292C163.518 34.0841 163.393 33.8583 163.222 33.6692C163.075 33.4975 162.882 33.371 162.666 33.3042C162.426 33.2201 162.173 33.1791 161.919 33.1832C161.468 33.1832 161.086 33.2582 160.773 33.4082C160.472 33.5582 160.241 33.7912 160.078 34.1032C159.916 34.4162 159.806 34.8142 159.748 35.3012ZM171.03 41.0512C170.37 41.0512 169.791 40.9812 169.293 40.8422C168.795 40.6922 168.378 40.4892 168.043 40.2342C167.725 40.0001 167.463 39.6973 167.278 39.3482C167.115 38.9945 167.032 38.6089 167.035 38.2192V38.0632C167.045 38.0294 167.051 37.9945 167.053 37.9592H169.137V38.0982C169.148 38.4112 169.247 38.6652 169.432 38.8622C169.617 39.0472 169.861 39.1812 170.162 39.2622C170.754 39.4116 171.371 39.4235 171.968 39.2972C172.214 39.2428 172.445 39.136 172.645 38.9842C172.733 38.9171 172.804 38.8302 172.853 38.7305C172.901 38.6307 172.925 38.521 172.923 38.4102C172.923 38.1102 172.807 37.8782 172.576 37.7162C172.344 37.5542 172.037 37.4202 171.655 37.3162C171.285 37.2122 170.885 37.1022 170.457 36.9862C170.075 36.8822 169.693 36.7662 169.311 36.6392C168.945 36.5198 168.595 36.3566 168.268 36.1532C167.967 35.9558 167.712 35.6947 167.522 35.3882C167.336 35.0762 167.244 34.6882 167.244 34.2252C167.244 33.7732 167.342 33.3792 167.539 33.0442C167.736 32.7082 168.008 32.4302 168.355 32.2102C168.733 31.9661 169.15 31.7898 169.588 31.6892C170.063 31.5732 170.578 31.5152 171.134 31.5152C171.632 31.5096 172.128 31.5681 172.611 31.6892C173.025 31.7889 173.418 31.9594 173.774 32.1932C174.11 32.4012 174.365 32.6622 174.538 32.9742C174.768 33.3476 174.861 33.7899 174.799 34.2242V34.3642H172.732V34.2422C172.738 34.0369 172.663 33.8374 172.524 33.6862C172.396 33.5242 172.205 33.3962 171.951 33.3042C171.707 33.2122 171.401 33.1652 171.03 33.1652C170.752 33.1652 170.509 33.1882 170.301 33.2352C170.118 33.2715 169.942 33.3356 169.779 33.4252C169.663 33.4968 169.562 33.5918 169.484 33.7042C169.415 33.8069 169.379 33.9278 169.38 34.0512C169.38 34.2712 169.467 34.4452 169.641 34.5722C169.814 34.6992 170.046 34.8092 170.335 34.9022C170.636 34.9952 170.961 35.0932 171.308 35.1972C171.725 35.3132 172.153 35.4352 172.593 35.5622C173.033 35.6782 173.438 35.8282 173.809 36.0142C174.191 36.1992 174.498 36.4592 174.729 36.7952C174.961 37.1312 175.077 37.5772 175.077 38.1332C175.077 38.6652 174.973 39.1232 174.764 39.5052C174.566 39.8768 174.272 40.1885 173.913 40.4082C173.516 40.643 173.081 40.8074 172.628 40.8942C172.102 41.0026 171.567 41.0552 171.03 41.0512Z" fill="#202020"/>
<path opacity="0.4" d="M25.2011 74.5259H24.1001V73.0059H21.1641V71.9379L24.1171 67.8999H25.2021V72.0169H26.0971V73.0069H25.2021V74.5269L25.2011 74.5259ZM22.1271 72.1379C22.3583 72.0564 22.6019 72.0155 22.8471 72.0169H24.1001V70.0699C24.1001 69.9259 24.1031 69.8069 24.1081 69.7139C24.1256 69.5879 24.152 69.4632 24.1871 69.3409L24.0821 69.3059C23.964 69.5038 23.8396 69.6979 23.7091 69.8879L22.5971 71.4599C22.4465 71.6704 22.272 71.8627 22.0771 72.0329L22.1281 72.1369L22.1271 72.1379Z" fill="#002E25"/>
<path d="M35.1709 71.0918H242.724" stroke="#F3F7F6" stroke-width="0.868" stroke-linecap="round" stroke-dasharray="5.21 5.21"/>
<path opacity="0.4" d="M23.6731 99.5781C23.1871 99.5781 22.7581 99.4911 22.3881 99.3181C22.0354 99.1493 21.7351 98.888 21.5191 98.5621C21.3059 98.2164 21.1864 97.8211 21.1721 97.4151H22.2751C22.3681 98.2201 22.8391 98.6231 23.6911 98.6231C24.0731 98.6231 24.3711 98.5241 24.5851 98.3271C24.8051 98.1251 24.9151 97.8501 24.9151 97.5021C24.9151 97.1381 24.7851 96.8721 24.5251 96.7031C24.2691 96.5301 23.9161 96.4431 23.4651 96.4431H23.0651V95.5231H23.4301C23.7481 95.5231 24.0121 95.4411 24.2201 95.2791C24.4341 95.1171 24.5421 94.8831 24.5421 94.5761C24.5421 94.3041 24.4551 94.0901 24.2811 93.9331C24.1131 93.7771 23.8731 93.6991 23.5611 93.6991C23.2411 93.6991 22.9841 93.7891 22.7871 93.9681C22.5901 94.1481 22.4721 94.4171 22.4311 94.7751H21.3981C21.4211 94.3761 21.5281 94.0231 21.7191 93.7161C21.9101 93.4091 22.1651 93.1721 22.4831 93.0041C22.8081 92.8301 23.1661 92.7441 23.5601 92.7441C23.9651 92.7441 24.3221 92.8221 24.6281 92.9781C24.9411 93.1281 25.1811 93.3401 25.3491 93.6121C25.5231 93.8781 25.6091 94.1821 25.6091 94.5241C25.6091 94.8771 25.5091 95.1781 25.3061 95.4271C25.2109 95.5478 25.0893 95.645 24.9506 95.7112C24.8119 95.7774 24.6598 95.8109 24.5061 95.8091V95.9481C24.9701 95.9711 25.3351 96.1281 25.6011 96.4171C25.8731 96.7071 26.0091 97.0771 26.0091 97.5281C26.0091 97.9281 25.9111 98.2841 25.7141 98.5971C25.5091 98.9106 25.2201 99.1601 24.8801 99.3171C24.5271 99.4911 24.1251 99.5781 23.6731 99.5781Z" fill="#002E25"/>
<path d="M35.1709 96.04H242.724" stroke="#F3F7F6" stroke-width="0.868" stroke-linecap="round" stroke-dasharray="5.21 5.21"/>
<path opacity="0.4" d="M21.302 124.421V123.553L23.395 121.746C23.829 121.376 24.151 121.034 24.359 120.722C24.5601 120.434 24.6692 120.092 24.672 119.74C24.672 119.399 24.582 119.132 24.402 118.941C24.223 118.744 23.954 118.646 23.595 118.646C22.808 118.646 22.388 119.124 22.335 120.079H21.302C21.332 119.326 21.542 118.742 21.936 118.325C22.336 117.908 22.892 117.699 23.604 117.699C24.014 117.699 24.379 117.781 24.698 117.943C25.0097 118.088 25.2702 118.324 25.445 118.62C25.625 118.915 25.714 119.26 25.714 119.653C25.714 120.174 25.5565 120.683 25.262 121.112C24.9315 121.597 24.5373 122.035 24.09 122.415L23.282 123.11C23.1223 123.252 22.9511 123.379 22.77 123.492L22.822 123.596C22.972 123.532 23.092 123.489 23.178 123.466C23.265 123.443 23.372 123.431 23.499 123.431H26.009V124.421H21.302Z" fill="#002E25"/>
<path d="M35.1709 120.987H242.724" stroke="#F3F7F6" stroke-width="0.868" stroke-linecap="round" stroke-dasharray="5.21 5.21"/>
<path opacity="0.4" d="M23.708 144.679C23.708 144.453 23.737 144.242 23.795 144.045L23.69 144.002C23.569 144.216 23.421 144.392 23.248 144.531C23.043 144.707 22.8149 144.853 22.57 144.966C22.321 145.081 22.09 145.157 21.875 145.191V144.167C22.2855 144.083 22.6696 143.901 22.995 143.637C23.325 143.371 23.575 143.072 23.743 142.742H24.811V149.368H23.708V144.679Z" fill="#002E25"/>
<path d="M35.1709 145.934H242.724" stroke="#F3F7F6" stroke-width="0.868" stroke-linecap="round" stroke-dasharray="5.21 5.21"/>
<path opacity="0.4" d="M23.647 174.42C22.883 174.42 22.292 174.139 21.876 173.578C21.459 173.016 21.25 172.153 21.25 170.99C21.25 169.832 21.453 168.975 21.858 168.419C22.269 167.863 22.851 167.586 23.604 167.586C24.368 167.586 24.956 167.866 25.366 168.428C25.783 168.989 25.992 169.855 25.992 171.024C25.992 172.177 25.786 173.031 25.375 173.586C24.97 174.142 24.394 174.42 23.647 174.42ZM23.621 173.43C24.026 173.43 24.339 173.242 24.559 172.866C24.779 172.489 24.889 171.873 24.889 171.016C24.889 170.147 24.776 169.522 24.55 169.14C24.324 168.758 24.006 168.567 23.595 168.567C23.19 168.567 22.88 168.758 22.665 169.14C22.457 169.522 22.353 170.142 22.353 170.998C22.353 171.867 22.46 172.489 22.674 172.866C22.894 173.242 23.21 173.43 23.621 173.43Z" fill="#002E25"/>
<path d="M35.1709 170.882H242.724" stroke="#F3F7F6" stroke-width="0.868" stroke-linecap="round" stroke-dasharray="5.21 5.21"/>
<path d="M222.75 62.5259V177.158" stroke="#F3F7F6" stroke-width="0.868"/>
<path opacity="0.4" d="M222.492 196.218C222.048 196.22 221.607 196.144 221.189 195.992C220.789 195.845 220.433 195.597 220.156 195.272C219.878 194.942 219.71 194.519 219.652 194.004H220.772C220.871 194.455 221.079 194.779 221.398 194.976C221.722 195.173 222.092 195.272 222.509 195.272C222.909 195.272 223.227 195.188 223.465 195.02C223.702 194.852 223.821 194.603 223.821 194.273C223.821 194.03 223.745 193.836 223.595 193.691C223.442 193.541 223.254 193.431 223.048 193.37C222.749 193.272 222.444 193.191 222.136 193.127C221.739 193.045 221.347 192.938 220.964 192.805C220.665 192.697 220.399 192.515 220.191 192.275C219.982 192.032 219.878 191.699 219.878 191.277C219.878 190.877 219.976 190.536 220.173 190.252C220.37 189.963 220.639 189.745 220.981 189.601C221.355 189.445 221.757 189.368 222.162 189.375C222.822 189.375 223.389 189.546 223.864 189.887C224.345 190.229 224.637 190.733 224.741 191.398H223.638C223.551 191.034 223.375 190.764 223.109 190.591C222.842 190.411 222.521 190.322 222.145 190.322C221.786 190.322 221.502 190.397 221.294 190.547C221.193 190.618 221.111 190.713 221.057 190.824C221.002 190.935 220.976 191.058 220.981 191.181C220.981 191.395 221.047 191.566 221.181 191.694C221.32 191.821 221.493 191.919 221.702 191.989C221.91 192.053 222.194 192.125 222.553 192.206C223.062 192.316 223.473 192.432 223.786 192.553C224.099 192.669 224.365 192.86 224.585 193.127C224.811 193.387 224.924 193.746 224.924 194.203C224.924 194.823 224.709 195.315 224.281 195.68C223.858 196.039 223.262 196.218 222.492 196.218Z" fill="#002E25"/>
<path d="M194.961 62.5259V177.158" stroke="#F3F7F6" stroke-width="0.868"/>
<path opacity="0.4" d="M194.702 196.218C194.245 196.218 193.811 196.143 193.4 195.992C192.994 195.842 192.65 195.602 192.366 195.272C192.088 194.942 191.921 194.519 191.863 194.004H192.983C193.081 194.455 193.29 194.779 193.608 194.976C193.932 195.173 194.303 195.272 194.72 195.272C195.119 195.272 195.438 195.188 195.675 195.02C195.912 194.852 196.031 194.603 196.031 194.273C196.031 194.03 195.956 193.836 195.805 193.691C195.652 193.541 195.464 193.43 195.258 193.37C194.959 193.272 194.654 193.191 194.346 193.127C193.949 193.045 193.557 192.938 193.174 192.805C192.875 192.697 192.609 192.515 192.401 192.275C192.193 192.032 192.088 191.699 192.088 191.277C192.088 190.877 192.187 190.536 192.384 190.252C192.583 189.96 192.864 189.734 193.191 189.601C193.565 189.445 193.967 189.368 194.372 189.375C195.032 189.375 195.6 189.546 196.074 189.887C196.555 190.229 196.847 190.733 196.952 191.398H195.849C195.762 191.034 195.585 190.764 195.319 190.591C195.053 190.411 194.731 190.322 194.355 190.322C193.996 190.322 193.712 190.397 193.504 190.547C193.403 190.618 193.321 190.713 193.267 190.824C193.212 190.935 193.186 191.058 193.191 191.181C193.187 191.276 193.202 191.37 193.237 191.459C193.271 191.547 193.324 191.627 193.391 191.694C193.53 191.821 193.704 191.919 193.912 191.989C194.121 192.053 194.404 192.125 194.763 192.206C195.273 192.316 195.684 192.432 195.996 192.553C196.309 192.669 196.575 192.86 196.795 193.127C197.021 193.387 197.134 193.746 197.134 194.203C197.134 194.823 196.92 195.315 196.491 195.68C196.069 196.039 195.472 196.218 194.702 196.218Z" fill="#002E25"/>
<path d="M167.171 62.5259V177.158" stroke="#F3F7F6" stroke-width="0.868"/>
<path opacity="0.4" d="M165.84 196.105H164.737V189.479H169.123V190.469H165.84V192.293H168.758V193.274H165.84V196.105Z" fill="#002E25"/>
<path d="M139.382 62.5259V177.158" stroke="#F3F7F6" stroke-width="0.868"/>
<path opacity="0.4" d="M139.495 196.105H138.392V190.469H136.308V189.479H141.597V190.469H139.495V196.105Z" fill="#002E25"/>
<path d="M111.592 62.5259V177.158" stroke="#F3F7F6" stroke-width="0.868"/>
<path opacity="0.4" d="M108.337 196.105L106.522 189.479H107.677L108.919 194.177C108.977 194.368 109.015 194.516 109.032 194.62C109.055 194.719 109.067 194.826 109.067 194.942H109.206C109.206 194.82 109.214 194.707 109.232 194.603C109.249 194.499 109.281 194.357 109.327 194.177L110.5 189.479H111.811L112.983 194.177C113.03 194.351 113.061 194.493 113.079 194.603C113.102 194.707 113.114 194.82 113.114 194.942H113.253C113.253 194.826 113.261 194.719 113.279 194.62C113.302 194.522 113.339 194.374 113.391 194.177L114.633 189.479H115.788L113.982 196.105H112.428L111.299 191.546C111.252 191.332 111.229 191.114 111.229 190.895H111.09C111.09 191.126 111.064 191.343 111.012 191.546L109.883 196.105H108.337Z" fill="#002E25"/>
<path d="M83.803 62.5259V177.158" stroke="#F3F7F6" stroke-width="0.868"/>
<path opacity="0.4" d="M83.916 196.105H82.814V190.469H80.729V189.479H86.018V190.469H83.916V196.105Z" fill="#002E25"/>
<path d="M56.0129 62.5259V177.158" stroke="#F3F7F6" stroke-width="0.868"/>
<path opacity="0.4" d="M52.2061 196.105V189.479H54.0731L55.3401 193.917C55.3981 194.108 55.4391 194.287 55.4621 194.455C55.4911 194.617 55.5051 194.811 55.5051 195.037H55.6451C55.6451 194.811 55.6561 194.617 55.6791 194.455C55.7091 194.287 55.7511 194.108 55.8091 193.917L57.0771 189.479H58.9441V196.105H57.8421V191.364C57.8421 191.057 57.8591 190.73 57.8941 190.382L57.7541 190.365C57.6791 190.793 57.6041 191.126 57.5291 191.364L56.1131 196.105H55.0361L53.6211 191.364C53.525 191.036 53.4495 190.702 53.3951 190.365L53.2651 190.382C53.2941 190.73 53.3081 191.057 53.3081 191.364V196.105H52.2061Z" fill="#002E25"/>
<path d="M56.447 143.834L78.201 124.679C79.7869 123.283 81.8273 122.513 83.94 122.513C86.0528 122.513 88.0931 123.283 89.679 124.679L104.14 137.413C108.028 140.837 114.03 140.116 116.997 135.87L129.987 117.284C133.886 111.705 142.396 112.576 145.084 118.83L156.744 145.966C159.974 153.482 170.855 152.771 173.08 144.899L185.855 99.701C188.214 91.358 199.999 91.241 202.521 99.537L214.8 139.924C217.169 147.715 227.993 148.254 231.125 140.737L242.725 112.895" stroke="#FFD100" stroke-width="1.737" stroke-linecap="round"/>
<path d="M78.2 124.679L59.393 141.24C58.4675 142.055 57.7262 143.058 57.2184 144.182C56.7106 145.306 56.448 146.525 56.448 147.758V159.789C56.4479 160.929 56.6724 162.059 57.1087 163.113C57.5451 164.166 58.1847 165.124 58.9911 165.93C59.7975 166.737 60.7549 167.376 61.8085 167.813C62.8622 168.249 63.9915 168.474 65.132 168.474H234.475C235.615 168.474 236.745 168.249 237.798 167.813C238.852 167.376 239.809 166.737 240.616 165.93C241.422 165.124 242.062 164.166 242.498 163.113C242.935 162.059 243.159 160.929 243.159 159.789V112.461L231.158 140.925C228.002 148.411 217.211 147.85 214.847 140.077L202.522 99.537C200 91.242 188.215 91.357 185.856 99.701L173.08 144.9C170.855 152.772 159.974 153.483 156.744 145.967L145.084 118.831C142.396 112.577 133.886 111.706 129.987 117.285L116.997 135.871C114.03 140.118 108.028 140.838 104.14 137.414L89.678 124.68C88.0922 123.284 86.052 122.514 83.9395 122.514C81.827 122.514 79.7868 123.284 78.201 124.68L78.2 124.679Z" fill="url(#paint0_linear_70_119603)" fill-opacity="0.16"/>
<g filter="url(#filter0_d_70_119603)">
<path d="M139.816 118.974C142.694 118.974 145.027 116.641 145.027 113.763C145.027 110.885 142.694 108.552 139.816 108.552C136.938 108.552 134.605 110.885 134.605 113.763C134.605 116.641 136.938 118.974 139.816 118.974Z" fill="white"/>
</g>
<path d="M139.816 115.5C140.775 115.5 141.553 114.722 141.553 113.763C141.553 112.804 140.775 112.026 139.816 112.026C138.857 112.026 138.079 112.804 138.079 113.763C138.079 114.722 138.857 115.5 139.816 115.5Z" fill="#202020"/>
<path d="M157.92 74.6841H115.5C113.581 74.6841 112.026 76.2394 112.026 78.1581V99.1571C112.026 101.076 113.581 102.631 115.5 102.631H157.92C159.839 102.631 161.394 101.076 161.394 99.1571V78.1581C161.394 76.2394 159.839 74.6841 157.92 74.6841Z" fill="#FFEE32"/>
<path d="M123.437 86.27V84.624H123.968V86.27H123.437ZM123.437 92.668V90.938H123.968V92.668H123.437ZM123.666 91.449C123.27 91.449 122.922 91.408 122.624 91.324C122.354 91.2481 122.1 91.1249 121.873 90.96C121.682 90.8193 121.526 90.6375 121.415 90.428C121.317 90.2159 121.267 89.9847 121.269 89.751V89.657C121.275 89.6365 121.278 89.6153 121.279 89.594H122.53V89.678C122.537 89.865 122.596 90.018 122.707 90.136C122.829 90.2535 122.98 90.3364 123.145 90.376C123.5 90.4654 123.871 90.4722 124.229 90.396C124.395 90.355 124.531 90.293 124.635 90.209C124.688 90.1687 124.73 90.1166 124.759 90.0569C124.788 89.9971 124.803 89.9314 124.802 89.865C124.806 89.7835 124.788 89.7024 124.752 89.6294C124.715 89.5565 124.661 89.494 124.593 89.448C124.424 89.3373 124.237 89.2562 124.041 89.208C123.802 89.1411 123.562 89.0755 123.322 89.011C123.091 88.9477 122.861 88.878 122.634 88.802C122.415 88.7302 122.205 88.6322 122.009 88.51C121.828 88.3919 121.675 88.2356 121.561 88.052C121.443 87.8387 121.386 87.5975 121.394 87.354C121.394 87.083 121.453 86.847 121.571 86.645C121.689 86.444 121.853 86.277 122.061 86.145C122.269 86.006 122.516 85.902 122.801 85.832C123.086 85.762 123.395 85.728 123.728 85.728C124.055 85.728 124.35 85.763 124.614 85.832C124.885 85.902 125.118 86.002 125.312 86.135C125.514 86.26 125.667 86.415 125.771 86.603C125.909 86.8273 125.964 87.0925 125.927 87.353V87.437H124.687V87.364C124.69 87.241 124.645 87.1216 124.562 87.031C124.471 86.9234 124.352 86.8437 124.218 86.801C124.041 86.7405 123.854 86.7124 123.666 86.718C123.499 86.718 123.353 86.732 123.228 86.76C123.119 86.7818 123.014 86.8202 122.916 86.874C122.846 86.9166 122.785 86.9735 122.738 87.041C122.697 87.103 122.675 87.1757 122.676 87.25C122.676 87.382 122.728 87.486 122.832 87.562C122.936 87.639 123.075 87.705 123.249 87.76C123.43 87.816 123.624 87.875 123.833 87.937C124.083 88.007 124.34 88.08 124.604 88.157C124.868 88.226 125.111 88.316 125.333 88.427C125.556 88.5324 125.746 88.6945 125.886 88.897C126.024 89.097 126.094 89.365 126.094 89.698C126.094 90.018 126.031 90.293 125.906 90.522C125.788 90.745 125.611 90.9321 125.396 91.064C125.158 91.2045 124.897 91.3032 124.625 91.356C124.31 91.4206 123.988 91.4518 123.666 91.449ZM126.813 92.158V91.814C126.813 91.501 126.869 91.217 126.98 90.96C127.091 90.702 127.24 90.47 127.428 90.261C127.616 90.046 127.824 89.844 128.053 89.657C128.289 89.462 128.526 89.278 128.762 89.105C129.054 88.889 129.328 88.674 129.585 88.458C129.842 88.236 130.051 88 130.21 87.75C130.37 87.493 130.45 87.208 130.45 86.895C130.45 86.749 130.415 86.604 130.346 86.458C130.27 86.3051 130.15 86.178 130.002 86.093C129.849 85.996 129.641 85.947 129.377 85.947C129.113 85.947 128.894 85.992 128.72 86.082C128.553 86.1597 128.415 86.2872 128.324 86.447C128.235 86.6321 128.193 86.8359 128.199 87.041V87.468H126.928C126.919 87.4164 126.912 87.3643 126.907 87.312C126.9 87.2256 126.896 87.1388 126.897 87.052C126.897 86.537 127.011 86.124 127.24 85.812C127.477 85.492 127.786 85.259 128.168 85.113C128.57 84.9577 128.998 84.88 129.429 84.884C129.901 84.884 130.287 84.954 130.586 85.092C130.891 85.232 131.127 85.409 131.294 85.624C131.468 85.839 131.586 86.069 131.649 86.312C131.811 86.8322 131.785 87.3929 131.576 87.896C131.464 88.166 131.308 88.424 131.107 88.666C130.889 88.9176 130.649 89.1483 130.388 89.355C130.117 89.57 129.825 89.789 129.512 90.011C129.352 90.122 129.196 90.234 129.043 90.345C128.901 90.4473 128.765 90.5585 128.637 90.678C128.536 90.7772 128.448 90.8895 128.376 91.012H131.794V92.158H126.813ZM132.901 93.856V93.325C133.06 93.305 133.207 93.2316 133.318 93.117C133.422 93.005 133.498 92.867 133.547 92.7C133.603 92.533 133.63 92.352 133.63 92.158H132.984V90.824H134.297V92.044C134.297 92.446 134.231 92.773 134.099 93.023C133.974 93.273 133.804 93.461 133.589 93.586C133.379 93.7183 133.145 93.8099 132.901 93.856ZM137.995 92.283C137.397 92.283 136.911 92.189 136.536 92.002C136.161 91.814 135.886 91.564 135.713 91.252C135.538 90.9288 135.448 90.5665 135.452 90.199C135.452 89.809 135.542 89.469 135.723 89.177C135.911 88.879 136.206 88.649 136.609 88.49C136.282 88.316 136.039 88.09 135.879 87.812C135.719 87.5255 135.637 87.2022 135.64 86.874C135.64 86.506 135.726 86.173 135.9 85.874C136.074 85.575 136.334 85.336 136.682 85.154C137.036 84.974 137.474 84.884 137.995 84.884C138.516 84.884 138.95 84.974 139.297 85.154C139.617 85.3122 139.886 85.5577 140.072 85.862C140.258 86.1664 140.355 86.5172 140.35 86.874C140.356 87.2082 140.266 87.5372 140.093 87.8229C139.92 88.1087 139.669 88.3396 139.37 88.489C139.78 88.649 140.075 88.879 140.256 89.177C140.441 89.4852 140.535 89.8396 140.527 90.199C140.527 90.581 140.44 90.932 140.267 91.251C140.093 91.564 139.818 91.814 139.443 92.001C139.075 92.189 138.592 92.283 137.995 92.283ZM137.995 91.251C138.391 91.251 138.693 91.154 138.901 90.96C139.11 90.758 139.214 90.484 139.214 90.136C139.214 89.782 139.11 89.507 138.901 89.313C138.693 89.118 138.391 89.021 137.995 89.021C137.599 89.021 137.293 89.118 137.078 89.313C136.869 89.507 136.765 89.782 136.765 90.136C136.765 90.484 136.869 90.758 137.078 90.96C137.293 91.154 137.599 91.251 137.995 91.251ZM137.995 87.99C138.328 87.99 138.589 87.903 138.776 87.729C138.971 87.549 139.068 87.291 139.068 86.958C139.068 86.631 138.971 86.378 138.776 86.197C138.589 86.009 138.328 85.916 137.995 85.916C137.654 85.916 137.39 86.01 137.203 86.197C137.015 86.377 136.921 86.631 136.921 86.957C136.921 87.291 137.015 87.548 137.203 87.729C137.39 87.903 137.654 87.99 137.995 87.99ZM143.686 92.283C143.165 92.283 142.742 92.186 142.415 91.991C142.1 91.8022 141.85 91.5226 141.696 91.189C141.54 90.831 141.462 90.4437 141.467 90.053H142.759C142.759 90.303 142.79 90.518 142.853 90.699C142.922 90.873 143.03 91.009 143.176 91.105C143.322 91.195 143.509 91.241 143.739 91.241C144.079 91.241 144.333 91.151 144.499 90.97C144.673 90.782 144.788 90.518 144.843 90.178C144.906 89.831 144.94 89.424 144.947 88.958C144.871 89.0455 144.783 89.1228 144.687 89.188C144.525 89.3083 144.346 89.403 144.155 89.469C143.915 89.5567 143.661 89.599 143.405 89.594C142.905 89.594 142.495 89.494 142.175 89.292C141.858 89.0866 141.609 88.7933 141.456 88.448C141.299 88.0646 141.221 87.6533 141.227 87.239C141.227 86.753 141.331 86.336 141.54 85.989C141.741 85.6417 142.037 85.3594 142.394 85.176C142.773 84.9771 143.196 84.8767 143.624 84.884C144.034 84.884 144.402 84.943 144.729 85.061C145.055 85.179 145.333 85.374 145.562 85.645C145.791 85.909 145.965 86.266 146.083 86.718C146.201 87.163 146.26 87.715 146.26 88.375C146.26 89.112 146.201 89.733 146.083 90.24C145.972 90.74 145.805 91.14 145.583 91.439C145.382 91.726 145.104 91.95 144.781 92.085C144.433 92.2223 144.061 92.2896 143.686 92.283ZM143.697 88.573C143.961 88.573 144.18 88.518 144.353 88.406C144.527 88.288 144.656 88.128 144.739 87.926C144.822 87.726 144.864 87.496 144.864 87.239C144.864 86.989 144.822 86.767 144.739 86.572C144.663 86.379 144.528 86.2148 144.353 86.103C144.18 85.985 143.961 85.926 143.697 85.926C143.433 85.926 143.214 85.986 143.04 86.103C142.872 86.224 142.742 86.3905 142.665 86.583C142.579 86.7946 142.536 87.0215 142.54 87.25C142.54 87.507 142.582 87.736 142.665 87.937C142.749 88.132 142.874 88.288 143.04 88.407C143.214 88.517 143.433 88.573 143.697 88.573ZM149.576 92.283C149.187 92.283 148.84 92.227 148.534 92.116C148.224 91.9942 147.953 91.7885 147.753 91.522C147.537 91.244 147.374 90.869 147.263 90.397C147.152 89.917 147.096 89.313 147.096 88.583C147.096 87.854 147.152 87.253 147.263 86.781C147.374 86.301 147.537 85.923 147.753 85.645C147.968 85.367 148.229 85.172 148.534 85.061C148.868 84.9382 149.221 84.8781 149.576 84.884C149.965 84.884 150.309 84.943 150.608 85.061C150.914 85.172 151.174 85.367 151.39 85.645C151.605 85.923 151.768 86.301 151.879 86.781C151.991 87.253 152.046 87.854 152.046 88.583C152.046 89.313 151.991 89.917 151.879 90.397C151.768 90.869 151.605 91.244 151.39 91.522C151.189 91.7886 150.919 91.9942 150.608 92.116C150.277 92.2327 149.927 92.2892 149.576 92.283ZM149.576 91.241C149.903 91.241 150.146 91.154 150.306 90.981C150.473 90.8 150.584 90.536 150.639 90.188C150.702 89.834 150.733 89.396 150.733 88.875V88.333C150.733 87.798 150.702 87.353 150.639 86.999C150.584 86.639 150.473 86.371 150.306 86.197C150.146 86.017 149.903 85.927 149.576 85.927C149.257 85.927 149.01 86.017 148.836 86.197C148.67 86.371 148.555 86.635 148.493 86.989C148.431 87.4239 148.403 87.8628 148.409 88.302V88.844C148.409 89.372 148.437 89.817 148.493 90.178C148.555 90.532 148.67 90.8 148.836 90.98C149.01 91.154 149.257 91.241 149.576 91.241Z" fill="#202020"/>
<path d="M136.71 105.237L134.105 102.632H139.316L136.71 105.237Z" fill="#CDFA89"/>
<path d="M232.737 33.868L228.829 29.96H236.645L232.737 33.868Z" fill="#202020"/>
</g>
<defs>
<filter id="filter0_d_70_119603" x="131.131" y="108.552" width="17.3699" height="17.3699" filterUnits="userSpaceOnUse" color-interpolation-filters="sRGB">
<feFlood flood-opacity="0" result="BackgroundImageFix"/>
<feColorMatrix in="SourceAlpha" type="matrix" values="0 0 0 0 0 0 0 0 0 0 0 0 0 0 0 0 0 0 127 0" result="hardAlpha"/>
<feOffset dy="3.474"/>
<feGaussianBlur stdDeviation="1.737"/>
<feComposite in2="hardAlpha" operator="out"/>
<feColorMatrix type="matrix" values="0 0 0 0 0 0 0 0 0 0 0 0 0 0 0 0 0 0 0.08 0"/>
<feBlend mode="normal" in2="BackgroundImageFix" result="effect1_dropShadow_70_119603"/>
<feBlend mode="normal" in="SourceGraphic" in2="effect1_dropShadow_70_119603" result="shape"/>
</filter>
<linearGradient id="paint0_linear_70_119603" x1="139.139" y1="71.21" x2="139.139" y2="168.474" gradientUnits="userSpaceOnUse">
<stop stop-color="#FFD100"/>
<stop offset="1" stop-color="#FFD100" stop-opacity="0"/>
</linearGradient>
<clipPath id="clip0_70_119603">
<path d="M0 12C0 5.37259 5.37258 0 12 0H252C258.627 0 264 5.37258 264 12V210C264 216.627 258.627 222 252 222H12C5.37259 222 0 216.627 0 210V12Z" fill="white"/>
</clipPath>
</defs>
</svg>
