<svg width="214" height="153" viewBox="0 0 214 153" fill="none" xmlns="http://www.w3.org/2000/svg">
<g clip-path="url(#clip0_70_119595)">
<path d="M0 0H264V153H0V0Z" fill="white"/>
<path d="M25.0799 40.8422V30.8722H21.2759V28.9272H31.1589V30.8732H27.3379V40.8432L25.0799 40.8422ZM35.1369 41.0512C34.1419 41.0512 33.3069 40.8832 32.6369 40.5472C31.9699 40.2051 31.4373 39.6486 31.1249 38.9672C30.7889 38.2602 30.6219 37.3632 30.6219 36.2742C30.6219 35.1742 30.7889 34.2772 31.1249 33.5822C31.4609 32.8762 31.9649 32.3552 32.6359 32.0192C33.3079 31.6722 34.1409 31.4982 35.1369 31.4982C36.1449 31.4982 36.9779 31.6722 37.6379 32.0182C38.306 32.3508 38.8395 32.903 39.1489 33.5822C39.4849 34.2772 39.6529 35.1742 39.6529 36.2742C39.6529 37.3632 39.4849 38.2602 39.1489 38.9662C38.8371 39.6473 38.3053 40.2039 37.6389 40.5462C36.9789 40.8832 36.1449 41.0512 35.1369 41.0512ZM35.1369 39.3142C35.6929 39.3142 36.1389 39.2092 36.4749 39.0012C36.8219 38.7812 37.0709 38.4572 37.2209 38.0282C37.3839 37.5882 37.4649 37.0442 37.4649 36.3962V36.1532C37.4649 35.5042 37.3839 34.9662 37.2209 34.5372C37.0709 34.0972 36.8219 33.7732 36.4749 33.5652C36.1389 33.3452 35.6929 33.2352 35.1369 33.2352C34.5809 33.2352 34.1299 33.3452 33.7829 33.5652C33.4469 33.7732 33.1979 34.0972 33.0359 34.5372C32.8859 34.9662 32.8099 35.5042 32.8099 36.1532V36.3962C32.8099 37.0442 32.8849 37.5882 33.0359 38.0282C33.1979 38.4572 33.4459 38.7812 33.7829 39.0012C34.1299 39.2102 34.5809 39.3142 35.1369 39.3142ZM43.6069 41.0502C43.0399 41.0502 42.5939 40.9402 42.2699 40.7202C41.9585 40.5048 41.7169 40.2031 41.5749 39.8522C41.449 39.5011 41.3843 39.1311 41.3839 38.7582V33.4432H40.2899V31.7062H41.4359L41.8179 29.1532H43.5029V31.7062H45.0829V33.4432H43.5029V38.5502C43.5029 38.7932 43.5669 38.9842 43.6939 39.1232C43.8209 39.2502 44.0119 39.3132 44.2669 39.3132H45.0829V40.7732C44.9679 40.8192 44.8229 40.8592 44.6489 40.8942C44.4785 40.9421 44.3046 40.9769 44.1289 40.9982C43.9569 41.032 43.7821 41.0487 43.6069 41.0502ZM48.7389 41.0502C48.4408 41.0453 48.144 41.0105 47.8529 40.9462C47.5175 40.8843 47.1948 40.767 46.8979 40.5992C46.586 40.4146 46.3284 40.1511 46.1509 39.8352C45.9539 39.4872 45.8559 39.0352 45.8559 38.4802C45.8559 37.8552 45.9949 37.3402 46.2719 36.9342C46.5615 36.5078 46.9647 36.1711 47.4359 35.9622C47.9459 35.7182 48.5479 35.5502 49.2419 35.4582C50.0071 35.35 50.7791 35.2978 51.5519 35.3022V34.5552C51.5519 34.2882 51.5119 34.0512 51.4309 33.8432C51.3461 33.6302 51.185 33.4565 50.9789 33.3562C50.7709 33.2292 50.4519 33.1662 50.0239 33.1662C49.5959 33.1662 49.2599 33.2172 49.0169 33.3222C48.7729 33.4262 48.6059 33.5532 48.5129 33.7042C48.4233 33.8443 48.3751 34.0069 48.3739 34.1732V34.4162H46.3239C46.3125 34.3589 46.3068 34.3006 46.3069 34.2422V34.0342C46.3069 33.5132 46.4629 33.0612 46.7769 32.6792C47.0889 32.2972 47.5229 32.0072 48.0789 31.8102C48.6349 31.6022 49.2769 31.4982 50.0069 31.4982C50.8399 31.4982 51.5229 31.6142 52.0569 31.8452C52.5999 32.0772 53.0059 32.4072 53.2719 32.8352C53.5379 33.2642 53.6719 33.7852 53.6719 34.3982V38.7062C53.6719 38.9262 53.7349 39.0822 53.8619 39.1752C53.9821 39.2655 54.1285 39.3143 54.2789 39.3142H54.8349V40.7732C54.67 40.8348 54.5017 40.8869 54.3309 40.9292C54.1109 40.9992 53.8389 41.0332 53.5149 41.0332C53.2139 41.0332 52.9419 40.9812 52.6989 40.8772C52.4717 40.7874 52.2693 40.6444 52.1089 40.4602C51.9438 40.2697 51.8248 40.0439 51.7609 39.8002H51.6569C51.451 40.0518 51.2114 40.2739 50.9449 40.4602C50.6779 40.6452 50.3599 40.7902 49.9889 40.8942C49.5816 41.0048 49.1608 41.0567 48.7389 41.0502ZM49.3809 39.3142C49.7289 39.3142 50.0359 39.2622 50.3009 39.1572C50.5799 39.0532 50.8059 38.9082 50.9789 38.7232C51.1677 38.5323 51.3103 38.3007 51.3959 38.0462C51.4999 37.7792 51.5519 37.4902 51.5519 37.1772V36.7612C50.9159 36.7612 50.3249 36.8012 49.7809 36.8822C49.2479 36.9632 48.8199 37.1142 48.4959 37.3342C48.1829 37.5542 48.0259 37.8662 48.0259 38.2722C48.0259 38.4802 48.0729 38.6652 48.1659 38.8272C48.2808 38.987 48.4366 39.113 48.6169 39.1922C48.8259 39.2732 49.0799 39.3142 49.3809 39.3142ZM55.7839 40.8422V28.2852H57.9039V40.8422H55.7839ZM63.3079 40.8422V28.9272H69.5779C70.4579 28.9272 71.1869 29.0772 71.7659 29.3792C72.3242 29.6602 72.7801 30.1098 73.0689 30.6642C73.3589 31.2202 73.5029 31.8742 73.5029 32.6272C73.5029 33.4032 73.3289 34.0922 72.9819 34.6942C72.6339 35.2842 72.1249 35.7302 71.4529 36.0312L73.9199 40.8422H71.4529L69.2649 36.4132H65.5649V40.8432L63.3079 40.8422ZM65.5659 34.5202H69.4039C69.9829 34.5202 70.4289 34.3522 70.7409 34.0162C71.0539 33.6812 71.2109 33.2172 71.2109 32.6262C71.2109 32.2452 71.1409 31.9262 71.0009 31.6722C70.8672 31.411 70.6549 31.1983 70.3939 31.0642C70.1279 30.9242 69.7979 30.8552 69.4039 30.8552H65.5659V34.5202ZM79.0609 41.0502C78.0889 41.0502 77.2779 40.8832 76.6299 40.5472C75.9809 40.2002 75.4949 39.6732 75.1699 38.9672C74.8469 38.2602 74.6839 37.3632 74.6839 36.2742C74.6839 35.1742 74.8469 34.2772 75.1709 33.5822C75.4949 32.8762 75.9809 32.3552 76.6299 32.0192C77.2779 31.6722 78.0889 31.4982 79.0609 31.4982C79.9409 31.4982 80.6759 31.6662 81.2669 32.0022C81.8689 32.3262 82.3209 32.8302 82.6219 33.5122C82.9219 34.1962 83.0729 35.0822 83.0729 36.1702V36.7952H76.8559C76.8789 37.3632 76.9659 37.8432 77.1159 38.2372C77.2659 38.6192 77.4979 38.9082 77.8109 39.1052C78.1349 39.2912 78.5579 39.3832 79.0789 39.3832C79.3449 39.3832 79.5939 39.3482 79.8259 39.2792C80.0465 39.215 80.2526 39.1087 80.4329 38.9662C80.6069 38.8162 80.7399 38.6302 80.8329 38.4102C80.9369 38.1902 80.9889 37.9362 80.9889 37.6462H83.0729C83.0729 38.2262 82.9689 38.7292 82.7609 39.1572C82.5639 39.5862 82.2809 39.9392 81.9099 40.2172C81.5312 40.5048 81.1007 40.717 80.6419 40.8422C80.1275 40.985 79.5957 41.0554 79.0619 41.0512L79.0609 41.0502ZM76.8909 35.3022H80.8679C80.8679 34.9192 80.8209 34.5952 80.7279 34.3292C80.6589 34.0841 80.5343 33.8583 80.3639 33.6692C80.2166 33.4975 80.0239 33.371 79.8079 33.3042C79.568 33.22 79.3151 33.179 79.0609 33.1832C78.6099 33.1832 78.2279 33.2582 77.9149 33.4082C77.6139 33.5582 77.3819 33.7912 77.2199 34.1032C77.0579 34.4162 76.9489 34.8152 76.8909 35.3022ZM86.9559 40.8422L83.5689 31.7062H85.7919L87.2689 35.8232C87.3389 36.0202 87.4189 36.2862 87.5119 36.6222C87.7209 37.2768 87.9119 37.9371 88.0849 38.6022H88.1719C88.3415 37.9525 88.5148 37.3038 88.6919 36.6562C88.7969 36.3212 88.8899 36.0432 88.9709 35.8232L90.4299 31.7062H92.5829L89.1789 40.8422H86.9559ZM97.4689 41.0512C96.4959 41.0512 95.6859 40.8832 95.0379 40.5472C94.3889 40.2002 93.9029 39.6732 93.5779 38.9672C93.2539 38.2602 93.0919 37.3632 93.0919 36.2742C93.0919 35.1742 93.2539 34.2772 93.5789 33.5822C93.9029 32.8762 94.3889 32.3552 95.0379 32.0192C95.6859 31.6722 96.4959 31.4982 97.4689 31.4982C98.3489 31.4982 99.0839 31.6662 99.6749 32.0022C100.277 32.3262 100.729 32.8302 101.03 33.5122C101.331 34.1962 101.481 35.0822 101.481 36.1702V36.7952H95.2629C95.2859 37.3632 95.3729 37.8432 95.5229 38.2372C95.6739 38.6192 95.9059 38.9082 96.2189 39.1052C96.5429 39.2912 96.9649 39.3832 97.4859 39.3832C97.7529 39.3832 98.0019 39.3482 98.2329 39.2792C98.4538 39.2149 98.6602 39.1086 98.8409 38.9662C99.0149 38.8162 99.1479 38.6302 99.2409 38.4102C99.3449 38.1902 99.3969 37.9362 99.3969 37.6462H101.481C101.481 38.2262 101.377 38.7292 101.169 39.1572C100.979 39.5769 100.686 39.9416 100.317 40.2172C99.9385 40.5048 99.5084 40.717 99.0499 40.8422C98.5355 40.985 98.0027 41.0554 97.4689 41.0512ZM95.2979 35.3012H99.2749C99.2749 34.9192 99.2289 34.5952 99.1359 34.3292C99.0669 34.0841 98.9423 33.8583 98.7719 33.6692C98.6246 33.4975 98.4319 33.371 98.2159 33.3042C97.976 33.22 97.7231 33.179 97.4689 33.1832C97.0179 33.1832 96.6349 33.2582 96.3229 33.4082C96.0219 33.5583 95.778 33.8022 95.6279 34.1032C95.4659 34.4162 95.3559 34.8142 95.2979 35.3012ZM103.019 40.8422V31.7062H104.791L104.964 32.9222H105.086C105.294 32.6442 105.538 32.4012 105.815 32.1922C106.105 31.9722 106.429 31.8052 106.788 31.6892C107.18 31.5585 107.591 31.4939 108.004 31.4982C108.583 31.4982 109.092 31.6022 109.532 31.8112C109.984 32.0192 110.337 32.3552 110.592 32.8182C110.846 33.2812 110.974 33.9012 110.974 34.6762V40.8422H108.838V35.0582C108.838 34.7342 108.797 34.4682 108.716 34.2602C108.646 34.0402 108.536 33.8662 108.386 33.7382C108.241 33.596 108.061 33.4943 107.865 33.4432C107.638 33.3829 107.404 33.3536 107.17 33.3562C106.804 33.3522 106.443 33.4483 106.128 33.6342C105.824 33.8226 105.573 34.0856 105.399 34.3982C105.225 34.7232 105.138 35.0982 105.138 35.5282V40.8422H103.019ZM115.802 41.0512C114.922 41.0512 114.204 40.8132 113.648 40.3382C113.104 39.8522 112.832 39.0302 112.832 37.8722V31.7062H114.951V37.4902C114.951 37.8142 114.986 38.0862 115.055 38.3062C115.136 38.5152 115.246 38.6882 115.385 38.8272C115.536 38.9552 115.715 39.0472 115.924 39.1052C116.132 39.1632 116.364 39.1922 116.618 39.1922C117 39.1922 117.342 39.0992 117.643 38.9142C117.956 38.7292 118.199 38.4742 118.372 38.1502C118.56 37.804 118.656 37.4151 118.65 37.0212V31.7062H120.769V40.8422H119.015L118.841 39.6262H118.72C118.507 39.9084 118.255 40.1598 117.973 40.3732C117.695 40.5822 117.371 40.7432 117 40.8592C116.614 40.9908 116.209 41.0564 115.802 41.0512ZM126.692 41.0512C125.719 41.0512 124.909 40.8832 124.261 40.5472C123.612 40.2002 123.126 39.6732 122.802 38.9672C122.477 38.2602 122.315 37.3632 122.315 36.2742C122.315 35.1742 122.477 34.2772 122.802 33.5822C123.126 32.8762 123.612 32.3552 124.261 32.0192C124.909 31.6722 125.719 31.4982 126.692 31.4982C127.572 31.4982 128.307 31.6662 128.898 32.0022C129.5 32.3262 129.952 32.8302 130.253 33.5122C130.554 34.1962 130.704 35.0822 130.704 36.1702V36.7952H124.486C124.509 37.3632 124.596 37.8432 124.747 38.2372C124.897 38.6192 125.129 38.9082 125.442 39.1052C125.766 39.2912 126.188 39.3832 126.709 39.3832C126.976 39.3832 127.225 39.3482 127.456 39.2792C127.677 39.2151 127.883 39.1088 128.064 38.9662C128.239 38.8144 128.376 38.624 128.464 38.4102C128.572 38.1703 128.625 37.9093 128.62 37.6462H130.704C130.704 38.2262 130.6 38.7292 130.392 39.1572C130.202 39.5766 129.909 39.9412 129.541 40.2172C129.162 40.5047 128.732 40.7169 128.273 40.8422C127.758 40.985 127.226 41.0553 126.692 41.0512ZM124.521 35.3012H128.498C128.498 34.9192 128.452 34.5952 128.359 34.3292C128.29 34.0841 128.165 33.8583 127.995 33.6692C127.847 33.4977 127.655 33.3712 127.439 33.3042C127.199 33.22 126.946 33.179 126.692 33.1832C126.241 33.1832 125.858 33.2582 125.546 33.4082C125.245 33.5582 125.013 33.7912 124.851 34.1032C124.689 34.4162 124.579 34.8142 124.521 35.3012Z" fill="#202020"/>
<path d="M20.842 69.25H243.158" stroke="#EBECEF" stroke-width="0.868"/>
<path d="M62.526 111.368C62.526 99.8572 53.1948 90.5259 41.684 90.5259C30.1733 90.5259 20.842 99.8572 20.842 111.368C20.842 122.879 30.1733 132.21 41.684 132.21C53.1948 132.21 62.526 122.879 62.526 111.368Z" fill="#FFEE32"/>
<path d="M41.6841 118.316C40.7716 118.316 39.8682 118.136 39.0252 117.787C38.1823 117.438 37.4164 116.926 36.7712 116.281C36.1261 115.635 35.6144 114.869 35.2653 114.026C34.9162 113.183 34.7365 112.28 34.7366 111.367C34.7366 110.455 34.9164 109.552 35.2656 108.709C35.6149 107.866 36.1267 107.1 36.7719 106.455C37.4172 105.809 38.1832 105.298 39.0261 104.949C39.8691 104.6 40.7726 104.42 41.6851 104.42C43.5278 104.42 45.295 105.152 46.598 106.455C47.9011 107.758 48.6331 109.525 48.6331 111.368C48.6331 113.211 47.9011 114.978 46.598 116.281C45.295 117.584 43.5278 118.316 41.6851 118.316H41.6841ZM39.2531 112.758V114.147H40.9891V115.537H42.3791V114.147H43.0741C43.5342 114.146 43.9751 113.963 44.3004 113.637C44.6258 113.312 44.809 112.871 44.8101 112.411C44.8095 111.951 44.6265 111.509 44.3011 111.184C43.9757 110.858 43.5344 110.675 43.0741 110.674H40.2941C40.2051 110.669 40.1214 110.63 40.0601 110.566C39.9989 110.501 39.9647 110.415 39.9647 110.326C39.9647 110.237 39.9989 110.152 40.0601 110.087C40.1214 110.022 40.2051 109.984 40.2941 109.979H44.1161V108.589H42.3791V107.2H40.9891V108.589H40.2951C39.8344 108.589 39.3926 108.772 39.0668 109.098C38.7411 109.423 38.5581 109.865 38.5581 110.326C38.5581 110.787 38.7411 111.228 39.0668 111.554C39.3926 111.88 39.8344 112.063 40.2951 112.063H43.0741C43.163 112.068 43.2467 112.106 43.308 112.171C43.3693 112.236 43.4034 112.321 43.4034 112.41C43.4034 112.499 43.3693 112.585 43.308 112.65C43.2467 112.714 43.163 112.753 43.0741 112.758H39.2531Z" fill="#202020"/>
<path d="M85.675 120.868V116.617H77.282V113.838C78.0257 112.61 78.7121 111.349 79.339 110.058C79.9834 108.727 80.5585 107.363 81.062 105.973C81.5947 104.5 82.0402 102.996 82.396 101.471H85.953C85.699 102.495 85.3929 103.506 85.036 104.5C84.6702 105.526 84.2622 106.536 83.813 107.529C83.368 108.511 82.923 109.428 82.479 110.281C82.0852 111.025 81.6683 111.757 81.229 112.476C80.9529 112.943 80.6559 113.397 80.339 113.838H85.675V109.03C85.841 108.678 86.008 108.308 86.175 107.919C86.342 107.511 86.499 107.103 86.647 106.696C86.814 106.27 86.962 105.862 87.092 105.473C87.222 105.065 87.342 104.676 87.453 104.306H89.065V113.838H91.427V116.617H89.065V120.868H85.675ZM94.015 120.868V117.311H97.545V120.868H94.015ZM107.183 121.202C105.719 121.202 104.478 120.97 103.459 120.507C102.44 120.025 101.662 119.359 101.124 118.506C100.606 117.636 100.346 116.626 100.346 115.477V115.06H103.792V115.561C103.792 116.487 104.079 117.2 104.654 117.7C105.228 118.182 106.034 118.423 107.071 118.423C108.053 118.423 108.841 118.191 109.433 117.728C110.026 117.265 110.323 116.524 110.323 115.505C110.323 114.708 110.156 114.106 109.823 113.699C109.505 113.271 109.056 112.958 108.544 112.809C107.995 112.638 107.424 112.554 106.849 112.559H105.265V109.78H106.932C107.449 109.788 107.961 109.684 108.433 109.475C108.884 109.281 109.263 108.95 109.517 108.53C109.795 108.104 109.934 107.567 109.934 106.918C109.934 106.288 109.813 105.779 109.572 105.39C109.337 105.005 108.987 104.704 108.572 104.528C108.115 104.337 107.623 104.242 107.127 104.25C106.553 104.25 106.043 104.352 105.599 104.556C105.167 104.73 104.805 105.043 104.57 105.445C104.329 105.834 104.209 106.335 104.209 106.946V107.391H100.763V106.696C100.763 105.64 101.032 104.723 101.569 103.945C102.106 103.148 102.847 102.537 103.792 102.111C104.756 101.684 105.849 101.471 107.071 101.471C108.331 101.471 109.433 101.675 110.378 102.083C111.342 102.472 112.092 103.055 112.629 103.833C113.167 104.612 113.435 105.566 113.435 106.696C113.435 107.437 113.296 108.085 113.018 108.641C112.759 109.178 112.398 109.632 111.935 110.003C111.454 110.384 110.932 110.71 110.378 110.975V111.087C111.336 111.367 112.188 111.928 112.824 112.698C113.491 113.476 113.824 114.495 113.824 115.755C113.824 116.885 113.537 117.858 112.963 118.673C112.407 119.488 111.629 120.118 110.628 120.563C109.628 120.989 108.479 121.202 107.183 121.202ZM115.719 120.868V119.951C115.719 119.118 115.867 118.358 116.163 117.673C116.457 116.991 116.861 116.362 117.358 115.811C117.858 115.236 118.414 114.699 119.026 114.199C119.656 113.68 120.285 113.189 120.915 112.726C121.664 112.174 122.397 111.599 123.111 111.003C123.755 110.457 124.317 109.82 124.778 109.113C125.203 108.43 125.425 107.64 125.417 106.835C125.417 106.446 125.325 106.057 125.139 105.668C124.954 105.279 124.648 104.954 124.222 104.695C123.815 104.436 123.259 104.306 122.555 104.306C121.851 104.306 121.267 104.426 120.804 104.667C120.359 104.873 119.989 105.213 119.748 105.64C119.526 106.066 119.415 106.594 119.415 107.224V108.363H116.024C115.999 108.225 115.981 108.086 115.969 107.946C115.948 107.715 115.939 107.484 115.941 107.252C115.941 105.881 116.247 104.778 116.858 103.945C117.483 103.096 118.342 102.449 119.331 102.083C120.369 101.675 121.49 101.471 122.694 101.471C123.954 101.471 124.982 101.657 125.778 102.027C126.594 102.398 127.224 102.87 127.668 103.444C128.131 104.019 128.446 104.63 128.613 105.279C128.798 105.927 128.891 106.52 128.891 107.057C128.891 107.946 128.733 108.761 128.418 109.503C128.108 110.248 127.687 110.941 127.168 111.559C126.588 112.23 125.946 112.844 125.25 113.393C124.528 113.967 123.75 114.551 122.916 115.144C122.49 115.44 122.073 115.737 121.666 116.033C121.258 116.329 120.897 116.626 120.582 116.922C120.311 117.186 120.077 117.485 119.887 117.812H129.002V120.868H115.719ZM131.286 120.868V100.777H134.676V112.476L139.928 106.251H143.902L139.011 111.92L144.18 120.868H140.289L136.843 114.393L134.676 116.478V120.868H131.286Z" fill="#202020"/>
</g>
<defs>
<clipPath id="clip0_70_119595">
<path d="M0 12C0 5.37258 5.37258 0 12 0H252C258.627 0 264 5.37258 264 12V141C264 147.627 258.627 153 252 153H12C5.37259 153 0 147.627 0 141V12Z" fill="white"/>
</clipPath>
</defs>
</svg>
