<svg width="15" height="16" viewBox="0 0 15 16" fill="none" xmlns="http://www.w3.org/2000/svg">
<path d="M13.6875 8.71875L8.6875 13.7188C8.5 13.9062 8.25 14 8 14C7.71875 14 7.46875 13.9062 7.28125 13.7188C6.875 13.3438 6.875 12.6875 7.28125 12.3125L10.5625 9H1C0.4375 9 0 8.5625 0 8C0 7.46875 0.4375 7 1 7H10.5625L7.28125 3.71875C6.875 3.34375 6.875 2.6875 7.28125 2.3125C7.65625 1.90625 8.3125 1.90625 8.6875 2.3125L13.6875 7.3125C14.0938 7.6875 14.0938 8.34375 13.6875 8.71875Z" fill="#202020"/>
</svg>
