<svg width="30" height="24" viewBox="0 0 30 24" fill="none" xmlns="http://www.w3.org/2000/svg">
<path d="M4.5 4.5C4.5 3.70312 5.15625 3 6 3H24C24.7969 3 25.5 3.70312 25.5 4.5C25.5 5.34375 24.7969 6 24 6H6C5.15625 6 4.5 5.34375 4.5 4.5ZM4.5 12C4.5 11.2031 5.15625 10.5 6 10.5H24C24.7969 10.5 25.5 11.2031 25.5 12C25.5 12.8438 24.7969 13.5 24 13.5H6C5.15625 13.5 4.5 12.8438 4.5 12ZM24 21H6C5.15625 21 4.5 20.3438 4.5 19.5C4.5 18.7031 5.15625 18 6 18H24C24.7969 18 25.5 18.7031 25.5 19.5C25.5 20.3438 24.7969 21 24 21Z" fill="#202020"/>
</svg>
