<svg width="260" height="260" viewBox="0 0 260 260" fill="none" xmlns="http://www.w3.org/2000/svg">
<path d="M104.154 0.000976562H93.7734V10.3822H104.154V0.000976562Z" fill="#202020"/>
<path d="M93.7732 10.3838H83.3926V20.765H93.7732V10.3838Z" fill="#202020"/>
<path d="M165.72 10.3838H155.34V20.765H165.72V10.3838Z" fill="#202020"/>
<path d="M175.717 10.3838H165.336V20.765H175.717V10.3838Z" fill="#202020"/>
<path d="M104.154 10.3838H93.7734V20.765H104.154V10.3838Z" fill="#202020"/>
<path d="M124.916 10.3838H114.535V20.765H124.916V10.3838Z" fill="#202020"/>
<path d="M135.297 10.3838H124.916V20.765H135.297V10.3838Z" fill="#202020"/>
<path d="M104.154 20.7646H93.7734V31.1459H104.154V20.7646Z" fill="#202020"/>
<path d="M114.533 20.7646H104.152V31.1459H114.533V20.7646Z" fill="#202020"/>
<path d="M124.916 20.7646H114.535V31.1459H124.916V20.7646Z" fill="#202020"/>
<path d="M156.056 20.7646H145.676V31.1459H156.056V20.7646Z" fill="#202020"/>
<path d="M93.7732 31.1455H83.3926V41.5268H93.7732V31.1455Z" fill="#202020"/>
<path d="M165.72 31.1455H155.34V41.5268H165.72V31.1455Z" fill="#202020"/>
<path d="M104.154 31.1455H93.7734V41.5268H104.154V31.1455Z" fill="#202020"/>
<path d="M124.916 31.1455H114.535V41.5268H124.916V31.1455Z" fill="#202020"/>
<path d="M145.676 31.1455H135.295V41.5268H145.676V31.1455Z" fill="#202020"/>
<path d="M156.056 31.1455H145.676V41.5268H156.056V31.1455Z" fill="#202020"/>
<path d="M114.533 41.5273H104.152V51.9086H114.533V41.5273Z" fill="#202020"/>
<path d="M135.297 41.5273H124.916V51.9086H135.297V41.5273Z" fill="#202020"/>
<path d="M177.269 41.5273H166.889V51.9086H177.269V41.5273Z" fill="#202020"/>
<path d="M156.056 41.5273H145.676V51.9086H156.056V41.5273Z" fill="#202020"/>
<path d="M93.7732 51.9111H83.3926V62.2924H93.7732V51.9111Z" fill="#202020"/>
<path d="M165.72 51.9111H155.34V62.2924H165.72V51.9111Z" fill="#202020"/>
<path d="M114.533 51.9111H104.152V62.2924H114.533V51.9111Z" fill="#202020"/>
<path d="M145.676 51.9111H135.295V62.2924H145.676V51.9111Z" fill="#202020"/>
<path d="M93.7732 62.292H83.3926V72.6732H93.7732V62.292Z" fill="#202020"/>
<path d="M165.72 62.292H155.34V72.6732H165.72V62.292Z" fill="#202020"/>
<path d="M114.533 62.292H104.152V72.6732H114.533V62.292Z" fill="#202020"/>
<path d="M135.297 62.292H124.916V72.6732H135.297V62.292Z" fill="#202020"/>
<path d="M156.056 62.292H145.676V72.6732H156.056V62.292Z" fill="#202020"/>
<path d="M135.297 72.6729H124.916V83.0541H135.297V72.6729Z" fill="#202020"/>
<path d="M177.269 72.6729H166.889V83.0541H177.269V72.6729Z" fill="#202020"/>
<path d="M156.056 72.6729H145.676V83.0541H156.056V72.6729Z" fill="#202020"/>
<path d="M10.7264 83.0537H0.345703V93.435H10.7264V83.0537Z" fill="#202020"/>
<path d="M21.1053 83.0537H10.7246V93.435H21.1053V83.0537Z" fill="#202020"/>
<path d="M31.4842 83.0537H21.1035V93.435H31.4842V83.0537Z" fill="#202020"/>
<path d="M41.867 83.0537H31.4863V93.435H41.867V83.0537Z" fill="#202020"/>
<path d="M52.2478 83.0537H41.8672V93.435H52.2478V83.0537Z" fill="#202020"/>
<path d="M73.0115 83.0537H62.6309V93.435H73.0115V83.0537Z" fill="#202020"/>
<path d="M83.3885 83.0537H73.0078V93.435H83.3885V83.0537Z" fill="#202020"/>
<path d="M93.7732 83.0537H83.3926V93.435H93.7732V83.0537Z" fill="#202020"/>
<path d="M104.154 83.0537H93.7734V93.435H104.154V83.0537Z" fill="#202020"/>
<path d="M114.533 83.0537H104.152V93.435H114.533V83.0537Z" fill="#202020"/>
<path d="M135.297 83.0537H124.916V93.435H135.297V83.0537Z" fill="#202020"/>
<path d="M177.269 83.0537H166.889V93.435H177.269V83.0537Z" fill="#202020"/>
<path d="M145.676 83.0537H135.295V93.435H145.676V83.0537Z" fill="#202020"/>
<path d="M156.056 83.0537H145.676V93.435H156.056V83.0537Z" fill="#202020"/>
<path d="M21.1053 93.4355H10.7246V103.817H21.1053V93.4355Z" fill="#202020"/>
<path d="M62.6326 93.4355H52.252V103.817H62.6326V93.4355Z" fill="#202020"/>
<path d="M104.154 93.4355H93.7734V103.817H104.154V93.4355Z" fill="#202020"/>
<path d="M31.4842 103.817H21.1035V114.198H31.4842V103.817Z" fill="#202020"/>
<path d="M41.867 103.817H31.4863V114.198H41.867V103.817Z" fill="#202020"/>
<path d="M62.6326 103.817H52.252V114.198H62.6326V103.817Z" fill="#202020"/>
<path d="M73.0115 103.817H62.6309V114.198H73.0115V103.817Z" fill="#202020"/>
<path d="M83.3885 103.817H73.0078V114.198H83.3885V103.817Z" fill="#202020"/>
<path d="M93.7732 103.817H83.3926V114.198H93.7732V103.817Z" fill="#202020"/>
<path d="M104.154 103.817H93.7734V114.198H104.154V103.817Z" fill="#202020"/>
<path d="M124.916 103.817H114.535V114.198H124.916V103.817Z" fill="#202020"/>
<path d="M135.297 103.817H124.916V114.198H135.297V103.817Z" fill="#202020"/>
<path d="M145.676 103.817H135.295V114.198H145.676V103.817Z" fill="#202020"/>
<path d="M156.056 103.817H145.676V114.198H156.056V103.817Z" fill="#202020"/>
<path d="M166.441 103.817H156.061V114.198H166.441V103.817Z" fill="#202020"/>
<path d="M176.818 103.817H166.438V114.198H176.818V103.817Z" fill="#202020"/>
<path d="M187.203 103.817H176.822V114.198H187.203V103.817Z" fill="#202020"/>
<path d="M197.582 103.817H187.201V114.198H197.582V103.817Z" fill="#202020"/>
<path d="M218.345 103.817H207.965V114.198H218.345V103.817Z" fill="#202020"/>
<path d="M228.724 103.817H218.344V114.198H228.724V103.817Z" fill="#202020"/>
<path d="M249.488 103.817H239.107V114.198H249.488V103.817Z" fill="#202020"/>
<path d="M259.867 103.817H249.486V114.198H259.867V103.817Z" fill="#202020"/>
<path d="M31.4842 114.201H21.1035V124.582H31.4842V114.201Z" fill="#202020"/>
<path d="M41.867 114.201H31.4863V124.582H41.867V114.201Z" fill="#202020"/>
<path d="M93.7732 114.201H83.3926V124.582H93.7732V114.201Z" fill="#202020"/>
<path d="M104.154 114.201H93.7734V124.582H104.154V114.201Z" fill="#202020"/>
<path d="M114.533 114.201H104.152V124.582H114.533V114.201Z" fill="#202020"/>
<path d="M124.916 114.201H114.535V124.582H124.916V114.201Z" fill="#202020"/>
<path d="M166.441 114.201H156.061V124.582H166.441V114.201Z" fill="#202020"/>
<path d="M176.818 114.201H166.438V124.582H176.818V114.201Z" fill="#202020"/>
<path d="M187.203 114.201H176.822V124.582H187.203V114.201Z" fill="#202020"/>
<path d="M197.582 114.201H187.201V124.582H197.582V114.201Z" fill="#202020"/>
<path d="M207.967 114.201H197.586V124.582H207.967V114.201Z" fill="#202020"/>
<path d="M218.345 114.201H207.965V124.582H218.345V114.201Z" fill="#202020"/>
<path d="M259.867 114.201H249.486V124.582H259.867V114.201Z" fill="#202020"/>
<path d="M62.6326 124.582H52.252V134.963H62.6326V124.582Z" fill="#202020"/>
<path d="M73.0115 124.582H62.6309V134.963H73.0115V124.582Z" fill="#202020"/>
<path d="M104.154 124.582H93.7734V134.963H104.154V124.582Z" fill="#202020"/>
<path d="M124.916 124.582H114.535V134.963H124.916V124.582Z" fill="#202020"/>
<path d="M156.056 124.582H145.676V134.963H156.056V124.582Z" fill="#202020"/>
<path d="M166.441 124.582H156.061V134.963H166.441V124.582Z" fill="#202020"/>
<path d="M187.203 124.582H176.822V134.963H187.203V124.582Z" fill="#202020"/>
<path d="M197.582 124.582H187.201V134.963H197.582V124.582Z" fill="#202020"/>
<path d="M218.345 124.582H207.965V134.963H218.345V124.582Z" fill="#202020"/>
<path d="M239.107 124.582H228.727V134.963H239.107V124.582Z" fill="#202020"/>
<path d="M249.488 124.582H239.107V134.963H249.488V124.582Z" fill="#202020"/>
<path d="M259.867 124.582H249.486V134.963H259.867V124.582Z" fill="#202020"/>
<path d="M10.7264 134.962H0.345703V145.344H10.7264V134.962Z" fill="#202020"/>
<path d="M21.1053 134.962H10.7246V145.344H21.1053V134.962Z" fill="#202020"/>
<path d="M31.4842 134.962H21.1035V145.344H31.4842V134.962Z" fill="#202020"/>
<path d="M52.2478 134.962H41.8672V145.344H52.2478V134.962Z" fill="#202020"/>
<path d="M93.7732 134.962H83.3926V145.344H93.7732V134.962Z" fill="#202020"/>
<path d="M104.154 134.962H93.7734V145.344H104.154V134.962Z" fill="#202020"/>
<path d="M114.533 134.962H104.152V145.344H114.533V134.962Z" fill="#202020"/>
<path d="M135.297 134.962H124.916V145.344H135.297V134.962Z" fill="#202020"/>
<path d="M176.818 134.962H166.438V145.344H176.818V134.962Z" fill="#202020"/>
<path d="M228.724 134.962H218.344V145.344H228.724V134.962Z" fill="#202020"/>
<path d="M249.488 134.962H239.107V145.344H249.488V134.962Z" fill="#202020"/>
<path d="M10.7264 145.344H0.345703V155.725H10.7264V145.344Z" fill="#202020"/>
<path d="M31.4842 145.344H21.1035V155.725H31.4842V145.344Z" fill="#202020"/>
<path d="M41.867 145.344H31.4863V155.725H41.867V145.344Z" fill="#202020"/>
<path d="M62.6326 145.344H52.252V155.725H62.6326V145.344Z" fill="#202020"/>
<path d="M73.0115 145.344H62.6309V155.725H73.0115V145.344Z" fill="#202020"/>
<path d="M166.441 145.344H156.061V155.725H166.441V145.344Z" fill="#202020"/>
<path d="M176.818 145.344H166.438V155.725H176.818V145.344Z" fill="#202020"/>
<path d="M197.582 155.337H187.201V165.718H197.582V155.337Z" fill="#202020"/>
<path d="M228.724 145.344H218.344V155.725H228.724V145.344Z" fill="#202020"/>
<path d="M249.488 145.344H239.107V155.725H249.488V145.344Z" fill="#202020"/>
<path d="M259.867 145.344H249.486V155.725H259.867V145.344Z" fill="#202020"/>
<path d="M10.7264 155.727H0.345703V166.108H10.7264V155.727Z" fill="#202020"/>
<path d="M93.7732 155.727H83.3926V166.108H93.7732V155.727Z" fill="#202020"/>
<path d="M135.297 155.727H124.916V166.108H135.297V155.727Z" fill="#202020"/>
<path d="M156.056 155.727H145.676V166.108H156.056V155.727Z" fill="#202020"/>
<path d="M166.441 155.727H156.061V166.108H166.441V155.727Z" fill="#202020"/>
<path d="M176.818 155.727H166.438V166.108H176.818V155.727Z" fill="#202020"/>
<path d="M187.203 155.727H176.822V166.108H187.203V155.727Z" fill="#202020"/>
<path d="M197.582 165.721H187.201V176.102H197.582V165.721Z" fill="#202020"/>
<path d="M207.967 155.727H197.586V166.108H207.967V155.727Z" fill="#202020"/>
<path d="M218.345 155.727H207.965V166.108H218.345V155.727Z" fill="#202020"/>
<path d="M228.724 155.727H218.344V166.108H228.724V155.727Z" fill="#202020"/>
<path d="M259.867 155.727H249.486V166.108H259.867V155.727Z" fill="#202020"/>
<path d="M10.7264 166.108H0.345703V176.489H10.7264V166.108Z" fill="#202020"/>
<path d="M41.867 166.108H31.4863V176.489H41.867V166.108Z" fill="#202020"/>
<path d="M52.2478 166.108H41.8672V176.489H52.2478V166.108Z" fill="#202020"/>
<path d="M62.6326 166.108H52.252V176.489H62.6326V166.108Z" fill="#202020"/>
<path d="M73.0115 166.108H62.6309V176.489H73.0115V166.108Z" fill="#202020"/>
<path d="M104.154 166.108H93.7734V176.489H104.154V166.108Z" fill="#202020"/>
<path d="M114.533 166.108H104.152V176.489H114.533V166.108Z" fill="#202020"/>
<path d="M135.297 166.108H124.916V176.489H135.297V166.108Z" fill="#202020"/>
<path d="M145.676 166.108H135.295V176.489H145.676V166.108Z" fill="#202020"/>
<path d="M156.056 166.108H145.676V176.489H156.056V166.108Z" fill="#202020"/>
<path d="M176.818 166.108H166.438V176.489H176.818V166.108Z" fill="#202020"/>
<path d="M187.203 166.108H176.822V176.489H187.203V166.108Z" fill="#202020"/>
<path d="M197.582 176.102H187.201V186.483H197.582V176.102Z" fill="#202020"/>
<path d="M197.582 94.1553H187.201V104.537H197.582V94.1553Z" fill="#202020"/>
<path d="M207.967 166.108H197.586V176.489H207.967V166.108Z" fill="#202020"/>
<path d="M207.967 84.1606H197.586V94.5419H207.967V84.1606Z" fill="#202020"/>
<path d="M218.345 166.108H207.965V176.489H218.345V166.108Z" fill="#202020"/>
<path d="M218.345 84.1606H207.965V94.5419H218.345V84.1606Z" fill="#202020"/>
<path d="M239.107 166.108H228.727V176.489H239.107V166.108Z" fill="#202020"/>
<path d="M239.107 84.1606H228.727V94.5419H239.107V84.1606Z" fill="#202020"/>
<path d="M93.7732 176.49H83.3926V186.871H93.7732V176.49Z" fill="#202020"/>
<path d="M114.533 176.49H104.152V186.871H114.533V176.49Z" fill="#202020"/>
<path d="M156.056 176.49H145.676V186.871H156.056V176.49Z" fill="#202020"/>
<path d="M166.441 176.49H156.061V186.871H166.441V176.49Z" fill="#202020"/>
<path d="M176.818 176.49H166.438V186.871H176.818V176.49Z" fill="#202020"/>
<path d="M93.7732 186.871H83.3926V197.252H93.7732V186.871Z" fill="#202020"/>
<path d="M104.154 186.871H93.7734V197.252H104.154V186.871Z" fill="#202020"/>
<path d="M114.533 186.871H104.152V197.252H114.533V186.871Z" fill="#202020"/>
<path d="M124.916 186.871H114.535V197.252H124.916V186.871Z" fill="#202020"/>
<path d="M135.297 186.871H124.916V197.252H135.297V186.871Z" fill="#202020"/>
<path d="M124.916 197.251H114.535V207.633H124.916V197.251Z" fill="#202020"/>
<path d="M176.818 197.251H166.438V207.633H176.818V197.251Z" fill="#202020"/>
<path d="M93.7732 207.635H83.3926V218.017H93.7732V207.635Z" fill="#202020"/>
<path d="M114.533 207.635H104.152V218.017H114.533V207.635Z" fill="#202020"/>
<path d="M124.916 207.635H114.535V218.017H124.916V207.635Z" fill="#202020"/>
<path d="M166.441 207.635H156.061V218.017H166.441V207.635Z" fill="#202020"/>
<path d="M93.7732 218.016H83.3926V228.397H93.7732V218.016Z" fill="#202020"/>
<path d="M114.533 218.016H104.152V228.397H114.533V218.016Z" fill="#202020"/>
<path d="M135.297 218.016H124.916V228.397H135.297V218.016Z" fill="#202020"/>
<path d="M145.676 218.016H135.295V228.397H145.676V218.016Z" fill="#202020"/>
<path d="M166.441 218.016H156.061V228.397H166.441V218.016Z" fill="#202020"/>
<path d="M93.7732 228.397H83.3926V238.778H93.7732V228.397Z" fill="#202020"/>
<path d="M104.154 228.397H93.7734V238.778H104.154V228.397Z" fill="#202020"/>
<path d="M145.676 228.397H135.295V238.778H145.676V228.397Z" fill="#202020"/>
<path d="M156.056 228.397H145.676V238.778H156.056V228.397Z" fill="#202020"/>
<path d="M176.818 228.397H166.438V238.778H176.818V228.397Z" fill="#202020"/>
<path d="M93.7732 238.779H83.3926V249.16H93.7732V238.779Z" fill="#202020"/>
<path d="M135.297 238.779H124.916V249.16H135.297V238.779Z" fill="#202020"/>
<path d="M145.676 238.779H135.295V249.16H145.676V238.779Z" fill="#202020"/>
<path d="M166.441 238.779H156.061V249.16H166.441V238.779Z" fill="#202020"/>
<path d="M176.818 238.779H166.438V249.16H176.818V238.779Z" fill="#202020"/>
<path d="M93.7732 249.16H83.3926V259.541H93.7732V249.16Z" fill="#202020"/>
<path d="M135.297 249.16H124.916V259.541H135.297V249.16Z" fill="#202020"/>
<path d="M156.056 249.16H145.676V259.541H156.056V249.16Z" fill="#202020"/>
<path d="M166.441 249.16H156.061V259.541H166.441V249.16Z" fill="#202020"/>
<path d="M47.5044 185.88H24.6266C19.3403 185.868 14.1903 187.556 9.93745 190.696C5.68458 193.836 2.55438 198.261 1.00929 203.316C0.694525 204.364 0.452126 205.433 0.283803 206.514C0.0941672 207.742 -0.000712805 208.982 4.03146e-06 210.224V233.649C0.0443952 240.141 2.66201 246.351 7.27868 250.917C11.8954 255.482 18.1341 258.029 24.6266 258.001H47.5044C53.9972 258.029 60.2363 255.482 64.853 250.916C69.4697 246.35 72.0871 240.14 72.131 233.647V210.224C72.085 203.732 69.4666 197.524 64.8501 192.96C60.2335 188.397 53.9956 185.85 47.5044 185.88ZM61.3106 233.649C61.27 237.273 59.7931 240.734 57.204 243.271C54.6149 245.808 51.1251 247.215 47.5004 247.182H24.6286C21.0042 247.215 17.5147 245.809 14.9256 243.272C12.3366 240.735 10.8595 237.275 10.8183 233.651V210.224C10.8161 207.968 11.3906 205.749 12.4872 203.778C13.5181 201.931 14.9621 200.348 16.7062 199.151C19.0357 197.549 21.7976 196.695 24.6246 196.701H47.5044C51.1274 196.668 54.6156 198.073 57.2038 200.608C59.792 203.144 61.269 206.603 61.3106 210.226V233.649Z" fill="#202020"/>
<path d="M47.5044 2.00123H24.6266C19.3403 1.98909 14.1903 3.67771 9.93745 6.81761C5.68458 9.9575 2.55438 14.3822 1.00929 19.4379C0.694525 20.486 0.452126 21.5545 0.283803 22.6358C0.0941672 23.8632 -0.000712805 25.1034 4.03146e-06 26.3454V49.7702C0.0443952 56.2629 2.66201 62.4729 7.27868 67.0382C11.8954 71.6034 18.1341 74.151 24.6266 74.1223H47.5044C53.9972 74.151 60.2363 71.6031 64.853 67.0374C69.4697 62.4718 72.0871 56.2612 72.131 49.7682V26.3454C72.085 19.8539 69.4666 13.6456 64.8501 9.08197C60.2335 4.51835 53.9956 1.97196 47.5044 2.00123ZM61.3106 49.7702C61.27 53.395 59.7931 56.8557 57.204 59.3929C54.6149 61.93 51.1251 63.3364 47.5004 63.3033H24.6286C21.0042 63.3364 17.5147 61.9303 14.9256 59.3936C12.3366 56.8569 10.8595 53.3967 10.8183 49.7721V26.3454C10.8161 24.0897 11.3906 21.8708 12.4872 19.8996C13.5181 18.0527 14.9621 16.4691 16.7062 15.2726C19.0357 13.6709 21.7976 12.8162 24.6246 12.8222H47.5044C51.1274 12.7891 54.6156 14.1945 57.2038 16.7301C59.792 19.2656 61.269 22.7243 61.3106 26.3474V49.7702Z" fill="#202020"/>
<path d="M235.372 187.88H212.494C207.207 187.868 202.058 189.557 197.805 192.697C193.552 195.836 190.422 200.261 188.876 205.317C188.562 206.365 188.319 207.433 188.151 208.515C187.961 209.742 187.866 210.982 187.867 212.224V235.649C187.912 242.142 190.529 248.352 195.146 252.917C199.763 257.482 206.001 260.03 212.494 260.001H235.372C241.864 260.03 248.103 257.482 252.72 252.916C257.337 248.351 259.954 242.14 259.998 235.647V212.224C259.952 205.733 257.334 199.524 252.717 194.961C248.101 190.397 241.863 187.851 235.372 187.88ZM249.178 235.649C249.137 239.274 247.66 242.735 245.071 245.272C242.482 247.809 238.992 249.215 235.368 249.182H212.496C208.871 249.215 205.382 247.809 202.793 245.273C200.204 242.736 198.727 239.276 198.686 235.651V212.224C198.683 209.969 199.258 207.75 200.354 205.778C201.385 203.932 202.829 202.348 204.573 201.151C206.903 199.55 209.665 198.695 212.492 198.701H235.372C238.995 198.668 242.483 200.073 245.071 202.609C247.659 205.145 249.136 208.603 249.178 212.226V235.649Z" fill="#202020"/>
<path d="M235.372 0.000249549H212.494C207.207 -0.0118853 202.058 1.67673 197.805 4.81663C193.552 7.95653 190.422 12.3812 188.876 17.4369C188.562 18.485 188.319 19.5535 188.151 20.6348C187.961 21.8622 187.866 23.1024 187.867 24.3444V47.7692C187.912 54.2619 190.529 60.472 195.146 65.0372C199.763 69.6024 206.001 72.1501 212.494 72.1213H235.372C241.864 72.1501 248.103 69.6021 252.72 65.0365C257.337 60.4708 259.954 54.2602 259.998 47.7672V24.3444C259.952 17.8529 257.334 11.6446 252.717 7.08099C248.101 2.51737 241.863 -0.0290191 235.372 0.000249549ZM249.178 47.7692C249.137 51.394 247.66 54.8548 245.071 57.3919C242.482 59.9291 238.992 61.3354 235.368 61.3024H212.496C208.871 61.3354 205.382 59.9293 202.793 57.3926C200.204 54.8559 198.727 51.3957 198.686 47.7712V24.3444C198.683 22.0887 199.258 19.8698 200.354 17.8986C201.385 16.0517 202.829 14.4682 204.573 13.2716C206.903 11.6699 209.665 10.8152 212.492 10.8212H235.372C238.995 10.7882 242.483 12.1935 245.071 14.7291C247.659 17.2646 249.136 20.7233 249.178 24.3464V47.7692Z" fill="#202020"/>
<path d="M29.0675 237.402C26.8477 237.42 24.7112 236.558 23.1253 235.004C21.5394 233.451 20.6334 231.333 20.6055 229.113V214.768C20.6056 213.388 20.9571 212.031 21.6267 210.825C22.2568 209.692 23.1415 208.721 24.2109 207.989C25.6395 207.006 27.3335 206.482 29.0675 206.486H43.0796C45.2984 206.465 47.4346 207.326 49.0198 208.879C50.605 210.431 51.5097 212.549 51.5356 214.768V229.113C51.5076 231.332 50.6024 233.449 49.0179 235.002C47.4333 236.556 45.2983 237.418 43.0796 237.402H29.0675Z" fill="#202020"/>
<path d="M29.0675 53.5207C26.8477 53.5389 24.7112 52.677 23.1253 51.1236C21.5394 49.5702 20.6334 47.4519 20.6055 45.2321V30.8875C20.6056 29.5076 20.9571 28.1505 21.6267 26.944C22.2568 25.8112 23.1415 24.8403 24.2109 24.1079C25.6395 23.1251 27.3335 22.6008 29.0675 22.6048H43.0796C45.2984 22.5846 47.4346 23.4452 49.0198 24.9979C50.605 26.5506 51.5097 28.6686 51.5356 30.8875V45.2321C51.5076 47.4509 50.6024 49.5683 49.0179 51.1215C47.4333 52.6747 45.2983 53.5373 43.0796 53.5207H29.0675Z" fill="#202020"/>
<path d="M216.931 239.399C214.711 239.417 212.574 238.555 210.989 237.002C209.403 235.448 208.497 233.33 208.469 231.11V216.765C208.469 215.386 208.82 214.028 209.49 212.822C210.12 211.689 211.005 210.718 212.074 209.986C213.503 209.003 215.197 208.479 216.931 208.483H230.943C233.162 208.463 235.298 209.323 236.883 210.876C238.468 212.428 239.373 214.547 239.399 216.765V231.11C239.371 233.329 238.466 235.446 236.881 236.999C235.297 238.553 233.162 239.415 230.943 239.399H216.931Z" fill="#202020"/>
<path d="M216.931 51.5202C214.711 51.5384 212.574 50.6765 210.989 49.1231C209.403 47.5697 208.497 45.4514 208.469 43.2316V28.887C208.469 27.5071 208.82 26.15 209.49 24.9435C210.12 23.8107 211.005 22.8398 212.074 22.1074C213.503 21.1246 215.197 20.6003 216.931 20.6044H230.943C233.162 20.5841 235.298 21.4447 236.883 22.9974C238.468 24.5501 239.373 26.6681 239.399 28.887V43.2316C239.371 45.4504 238.466 47.5678 236.881 49.121C235.297 50.6742 233.162 51.5368 230.943 51.5202H216.931Z" fill="#202020"/>
<path d="M140.177 95.3682H121.817C109.424 95.3682 99.377 105.416 99.377 117.81V136.171C99.377 148.565 109.424 158.612 121.817 158.612H140.177C152.571 158.612 162.617 148.565 162.617 136.171V117.81C162.617 105.416 152.571 95.3682 140.177 95.3682Z" fill="#F7931A"/>
<g clip-path="url(#clip0_159_14906)">
<path d="M130.495 156.605C147.127 156.605 160.61 143.121 160.61 126.488C160.61 109.856 147.127 96.3721 130.495 96.3721C113.864 96.3721 100.381 109.856 100.381 126.488C100.381 143.121 113.864 156.605 130.495 156.605Z" fill="#F7931A"/>
<path d="M144.027 122.761C144.618 118.816 141.612 116.695 137.505 115.279L138.838 109.934L135.585 109.124L134.287 114.329C133.432 114.114 132.555 113.915 131.68 113.715L132.988 108.477L129.736 107.666L128.403 113.009C127.695 112.847 126.999 112.689 126.325 112.52L126.329 112.503L121.842 111.383L120.976 114.858C120.976 114.858 123.391 115.411 123.34 115.445C124.658 115.774 124.895 116.646 124.855 117.338L123.338 123.428C123.429 123.45 123.545 123.484 123.677 123.535L123.333 123.45L121.206 131.981C121.044 132.38 120.636 132.98 119.713 132.752C119.747 132.799 117.349 132.163 117.349 132.163L115.734 135.886L119.969 136.942C120.756 137.14 121.528 137.347 122.286 137.541L120.94 142.947L124.191 143.756L125.523 138.41C126.412 138.649 127.274 138.872 128.117 139.082L126.788 144.405L130.041 145.215L131.386 139.82C136.935 140.871 141.106 140.447 142.862 135.429C144.277 131.39 142.792 129.057 139.873 127.538C142 127.049 143.6 125.651 144.027 122.761ZM136.592 133.185C135.589 137.226 128.785 135.041 126.579 134.493L128.367 127.331C130.573 127.883 137.645 128.973 136.592 133.185ZM137.599 122.703C136.683 126.379 131.021 124.51 129.186 124.053L130.805 117.559C132.64 118.016 138.556 118.869 137.599 122.703Z" fill="#202020"/>
</g>
<path d="M138.75 96H123.25C110.409 96 100 106.409 100 119.25V134.75C100 147.591 110.409 158 123.25 158H138.75C151.591 158 162 147.591 162 134.75V119.25C162 106.409 151.591 96 138.75 96Z" stroke="#202020" stroke-width="10"/>
<defs>
<clipPath id="clip0_159_14906">
<rect width="60.229" height="60.2325" fill="white" transform="translate(100.381 96.3721)"/>
</clipPath>
</defs>
</svg>
