<svg width="25" height="24" viewBox="0 0 25 24" fill="none" xmlns="http://www.w3.org/2000/svg">
<path d="M7.83325 16.5V7.5H16.8333V16.5H7.83325ZM21.3333 8.25V11.25H23.5833C23.9583 11.25 24.3333 11.625 24.3333 12C24.3333 12.4219 23.9583 12.75 23.5833 12.75H21.3333V15.75H23.5833C23.9583 15.75 24.3333 16.125 24.3333 16.5C24.3333 16.9219 23.9583 17.25 23.5833 17.25H21.3333V18C21.3333 19.6875 19.9739 21 18.3333 21H17.5833V23.25C17.5833 23.6719 17.2083 24 16.8333 24C16.4114 24 16.0833 23.6719 16.0833 23.25V21H13.0833V23.25C13.0833 23.6719 12.7083 24 12.3333 24C11.9114 24 11.5833 23.6719 11.5833 23.25V21H8.58325V23.25C8.58325 23.6719 8.20825 24 7.83325 24C7.41138 24 7.08325 23.6719 7.08325 23.25V21H6.33325C4.64575 21 3.33325 19.6875 3.33325 18V17.25H1.08325C0.661377 17.25 0.333252 16.9219 0.333252 16.5C0.333252 16.125 0.661377 15.75 1.08325 15.75H3.33325V12.75H1.08325C0.661377 12.75 0.333252 12.4219 0.333252 12C0.333252 11.625 0.661377 11.25 1.08325 11.25H3.33325V8.25H1.08325C0.661377 8.25 0.333252 7.92188 0.333252 7.5C0.333252 7.125 0.661377 6.75 1.08325 6.75H3.33325V6C3.33325 4.35938 4.64575 3 6.33325 3H7.08325V0.75C7.08325 0.375 7.41138 0 7.83325 0C8.20825 0 8.58325 0.375 8.58325 0.75V3H11.5833V0.75C11.5833 0.375 11.9114 0 12.3333 0C12.7083 0 13.0833 0.375 13.0833 0.75V3H16.0833V0.75C16.0833 0.375 16.4114 0 16.8333 0C17.2083 0 17.5833 0.375 17.5833 0.75V3H18.3333C19.9739 3 21.3333 4.35938 21.3333 6V6.75H23.5833C23.9583 6.75 24.3333 7.125 24.3333 7.5C24.3333 7.92188 23.9583 8.25 23.5833 8.25H21.3333ZM18.3333 17.25V6.75C18.3333 6.375 17.9583 6 17.5833 6H7.08325C6.66138 6 6.33325 6.375 6.33325 6.75V17.25C6.33325 17.6719 6.66138 18 7.08325 18H17.5833C17.9583 18 18.3333 17.6719 18.3333 17.25Z" fill="#202020"/>
</svg>
