<svg width="22" height="24" viewBox="0 0 22 24" fill="none" xmlns="http://www.w3.org/2000/svg">
<path d="M21.5 3.75V6C21.5 8.10938 16.7656 9.75 11 9.75C5.1875 9.75 0.5 8.10938 0.5 6V3.75C0.5 1.6875 5.1875 0 11 0C16.7656 0 21.5 1.6875 21.5 3.75ZM18.9219 10.0781C19.8594 9.75 20.7969 9.28125 21.5 8.76562V13.5C21.5 15.6094 16.7656 17.25 11 17.25C5.1875 17.25 0.5 15.6094 0.5 13.5V8.76562C1.15625 9.28125 2.09375 9.75 3.03125 10.0781C5.14062 10.8281 7.95312 11.25 11 11.25C14 11.25 16.8125 10.8281 18.9219 10.0781ZM3.03125 17.5781C5.14062 18.3281 7.95312 18.75 11 18.75C14 18.75 16.8125 18.3281 18.9219 17.5781C19.8594 17.25 20.7969 16.7812 21.5 16.2656V20.25C21.5 22.3594 16.7656 24 11 24C5.1875 24 0.5 22.3594 0.5 20.25V16.2656C1.15625 16.7812 2.09375 17.25 3.03125 17.5781Z" fill="#202020"/>
</svg>
