<svg width="16" height="24" viewBox="0 0 16 24" fill="none" xmlns="http://www.w3.org/2000/svg">
<path d="M7.66675 0C8.46362 0 9.16675 0.703125 9.16675 1.5V3.1875C9.21362 3.1875 9.30737 3.23438 9.35425 3.23438C9.86987 3.28125 11.323 3.5625 11.9324 3.70312C12.7292 3.89062 13.2449 4.73438 13.0574 5.53125C12.823 6.32812 12.0261 6.79688 11.2292 6.60938C10.7605 6.46875 9.448 6.28125 8.93237 6.1875C7.43237 5.95312 6.11987 6.09375 5.22925 6.42188C4.3855 6.75 4.0105 7.21875 3.91675 7.73438C3.823 8.25 3.91675 8.53125 4.0105 8.71875C4.10425 8.90625 4.24487 9.09375 4.61987 9.32812C5.36987 9.84375 6.54175 10.1719 8.04175 10.5938H8.18237C9.49487 10.9688 11.1355 11.4375 12.3542 12.2344C13.0105 12.6562 13.6199 13.2656 13.9949 14.0625C14.4167 14.9062 14.4636 15.8438 14.323 16.8281C13.9949 18.6094 12.7292 19.8281 11.2292 20.4375C10.573 20.7188 9.86987 20.8594 9.16675 20.9531V22.5C9.16675 23.3438 8.46362 24 7.66675 24C6.823 24 6.16675 23.3438 6.16675 22.5V20.9062C6.11987 20.9062 6.11987 20.8594 6.073 20.8594C4.948 20.7188 3.073 20.2031 1.80737 19.6406C1.0105 19.3125 0.682373 18.4219 1.0105 17.6719C1.33862 16.9219 2.22925 16.5469 2.97925 16.9219C3.96362 17.3438 5.60425 17.7656 6.54175 17.9062C8.04175 18.1406 9.2605 18 10.1042 17.6719C10.9011 17.3438 11.2292 16.875 11.3699 16.3125C11.4636 15.7969 11.3699 15.5156 11.2761 15.3281C11.1824 15.1406 11.0417 14.9531 10.6667 14.7188C9.91675 14.2031 8.74487 13.875 7.24487 13.4531H7.10425C5.79175 13.0781 4.15112 12.6094 2.93237 11.8125C2.27612 11.3906 1.66675 10.7812 1.29175 9.98438C0.869873 9.14062 0.822998 8.20312 0.963623 7.17188C1.33862 5.39062 2.65112 4.21875 4.15112 3.60938C4.7605 3.375 5.46362 3.23438 6.16675 3.14062V1.5C6.16675 0.703125 6.823 0 7.66675 0Z" fill="#202020"/>
</svg>
