<svg width="10" height="17" viewBox="0 0 10 17" fill="none" xmlns="http://www.w3.org/2000/svg">
<path d="M5 0.5C5.53125 0.5 6 0.96875 6 1.5V2.625C6.03125 2.625 6.09375 2.65625 6.125 2.65625C6.46875 2.6875 7.4375 2.875 7.84375 2.96875C8.375 3.09375 8.71875 3.65625 8.59375 4.1875C8.4375 4.71875 7.90625 5.03125 7.375 4.90625C7.0625 4.8125 6.1875 4.6875 5.84375 4.625C4.84375 4.46875 3.96875 4.5625 3.375 4.78125C2.8125 5 2.5625 5.3125 2.5 5.65625C2.4375 6 2.5 6.1875 2.5625 6.3125C2.625 6.4375 2.71875 6.5625 2.96875 6.71875C3.46875 7.0625 4.25 7.28125 5.25 7.5625H5.34375C6.21875 7.8125 7.3125 8.125 8.125 8.65625C8.5625 8.9375 8.96875 9.34375 9.21875 9.875C9.5 10.4375 9.53125 11.0625 9.4375 11.7188C9.21875 12.9062 8.375 13.7188 7.375 14.125C6.9375 14.3125 6.46875 14.4062 6 14.4688V15.5C6 16.0625 5.53125 16.5 5 16.5C4.4375 16.5 4 16.0625 4 15.5V14.4375C3.96875 14.4375 3.96875 14.4062 3.9375 14.4062C3.1875 14.3125 1.9375 13.9688 1.09375 13.5938C0.5625 13.375 0.34375 12.7812 0.5625 12.2812C0.78125 11.7812 1.375 11.5312 1.875 11.7812C2.53125 12.0625 3.625 12.3438 4.25 12.4375C5.25 12.5938 6.0625 12.5 6.625 12.2812C7.15625 12.0625 7.375 11.75 7.46875 11.375C7.53125 11.0312 7.46875 10.8438 7.40625 10.7188C7.34375 10.5938 7.25 10.4688 7 10.3125C6.5 9.96875 5.71875 9.75 4.71875 9.46875H4.625C3.75 9.21875 2.65625 8.90625 1.84375 8.375C1.40625 8.09375 1 7.6875 0.75 7.15625C0.46875 6.59375 0.4375 5.96875 0.53125 5.28125C0.78125 4.09375 1.65625 3.3125 2.65625 2.90625C3.0625 2.75 3.53125 2.65625 4 2.59375V1.5C4 0.96875 4.4375 0.5 5 0.5Z" fill="#FFD100"/>
</svg>
