<svg width="16" height="16" viewBox="0 0 16 16" fill="none" xmlns="http://www.w3.org/2000/svg">
<path d="M0 4C0 2.90625 0.875 2 2 2H14C15.0938 2 16 2.90625 16 4V12C16 13.125 15.0938 14 14 14H2C0.875 14 0 13.125 0 12V4ZM1.5 4V4.71875L6.875 9.125C7.53125 9.65625 8.4375 9.65625 9.09375 9.125L14.5 4.71875V4C14.5 3.75 14.25 3.5 14 3.5H2C1.71875 3.5 1.5 3.75 1.5 4ZM1.5 6.65625V12C1.5 12.2812 1.71875 12.5 2 12.5H14C14.25 12.5 14.5 12.2812 14.5 12V6.65625L10.0625 10.2812C8.84375 11.2812 7.125 11.2812 5.90625 10.2812L1.5 6.65625Z" fill="white"/>
</svg>
