<svg width="25" height="24" viewBox="0 0 25 24" fill="none" xmlns="http://www.w3.org/2000/svg">
<path d="M22.4167 3C23.6355 3 24.6667 4.03125 24.6667 5.25C24.6667 6 24.2917 6.65625 23.7292 7.07812L13.5574 14.7188C12.9949 15.1406 12.2917 15.1406 11.7292 14.7188L1.55737 7.07812C0.994873 6.65625 0.666748 6 0.666748 5.25C0.666748 4.03125 1.65112 3 2.91675 3H22.4167ZM10.8386 15.9375C11.9167 16.7344 13.3699 16.7344 14.448 15.9375L24.6667 8.25V18C24.6667 19.6875 23.3074 21 21.6667 21H3.66675C1.97925 21 0.666748 19.6875 0.666748 18V8.25L10.8386 15.9375Z" fill="#202020"/>
</svg>
