<svg width="25" height="25" viewBox="0 0 25 25" fill="none" xmlns="http://www.w3.org/2000/svg">
<path d="M18.5 15.5C19.2969 15.5 20 16.2031 20 17V21.5C20 23.1875 18.6406 24.5 17 24.5H3.5C1.8125 24.5 0.5 23.1875 0.5 21.5V8C0.5 6.35938 1.8125 5 3.5 5H8C8.79688 5 9.5 5.70312 9.5 6.5C9.5 7.34375 8.79688 8 8 8H3.5V21.5H17V17C17 16.2031 17.6562 15.5 18.5 15.5ZM23.375 0.5C23.9844 0.5 24.5 1.01562 24.5 1.625V8C24.5 8.60938 24.125 9.17188 23.5625 9.40625C23 9.64062 22.3438 9.5 21.9219 9.07812L20 7.15625L10.5312 16.5781C10.25 16.8594 9.875 17 9.5 17C9.07812 17 8.70312 16.8594 8.42188 16.5781C7.8125 16.0156 7.8125 15.0312 8.42188 14.4688L17.8438 5L15.9219 3.07812C15.5 2.65625 15.3594 2 15.5938 1.4375C15.8281 0.875 16.3906 0.5 17 0.5H23.375Z" fill="#333533"/>
</svg>
