<svg width="6" height="17" viewBox="0 0 6 17" fill="none" xmlns="http://www.w3.org/2000/svg">
<path d="M4.99805 14.5005C5.5293 14.5005 5.99805 14.938 5.99805 15.5005C5.99805 16.0317 5.5293 16.5005 4.99805 16.5005H0.998047C0.435547 16.5005 -0.00195312 16.0317 -0.00195312 15.5005C-0.00195312 14.938 0.435547 14.5005 0.998047 14.5005H1.99805V8.50049H0.998047C0.435547 8.50049 -0.00195312 8.06299 -0.00195312 7.50049C-0.00195312 6.96924 0.435547 6.50049 0.998047 6.50049H2.99805C3.5293 6.50049 3.99805 6.96924 3.99805 7.50049V14.5005H4.99805ZM2.99805 4.50049C2.1543 4.50049 1.49805 3.84424 1.49805 3.03174C1.49805 2.18799 2.1543 1.53174 2.99805 1.53174C3.81055 1.53174 4.49805 2.18799 4.49805 3.00049C4.49805 3.84424 3.81055 4.50049 2.99805 4.50049Z" fill="#202020"/>
</svg>
