<svg width="16" height="17" viewBox="0 0 16 17" fill="none" xmlns="http://www.w3.org/2000/svg">
<path d="M10 3.5H8.5C7.09375 3.5 6 4.625 6 6V14.5312L1.5 14.5C0.65625 14.5 0 13.8438 0 13V3C0 2.1875 0.65625 1.5 1.5 1.5H3.25C3.59375 0.90625 4.25 0.5 5 0.5C5.71875 0.5 6.375 0.90625 6.71875 1.5H8.5C9.3125 1.5 10 2.1875 10 3V3.5ZM5 3.25C5.40625 3.25 5.75 2.9375 5.75 2.5C5.75 2.09375 5.40625 1.75 5 1.75C4.5625 1.75 4.25 2.09375 4.25 2.5C4.25 2.9375 4.5625 3.25 5 3.25ZM13 4.5L16 7.5H13V4.5ZM12 7.5C12 8.0625 12.4375 8.5 13 8.5H16V15C16 15.8438 15.3125 16.5 14.5 16.5H8.5C7.65625 16.5 7 15.8438 7 15V6C7 5.1875 7.65625 4.5 8.5 4.5H12V7.5Z" fill="#FFD100"/>
</svg>
