<svg width="25" height="25" viewBox="0 0 25 25" fill="none" xmlns="http://www.w3.org/2000/svg">
<path d="M17.0703 3.47656C18.1641 2.38281 19.9219 2.38281 21.0156 3.47656L21.5234 3.98438C22.6172 5.07812 22.6172 6.83594 21.5234 7.92969L13.7891 15.6641C13.4766 15.9766 13.0469 16.25 12.5781 16.3672L8.67188 17.5C8.35938 17.5781 8.00781 17.5 7.77344 17.2266C7.5 16.9922 7.42188 16.6406 7.5 16.3281L8.63281 12.4219C8.75 11.9531 9.02344 11.5234 9.33594 11.2109L17.0703 3.47656ZM19.6875 4.80469C19.3359 4.45312 18.75 4.45312 18.3984 4.80469L17.2266 5.9375L19.0625 7.77344L20.1953 6.60156C20.5469 6.25 20.5469 5.66406 20.1953 5.3125L19.6875 4.80469ZM10.4297 12.9297L9.76562 15.2344L12.0703 14.5703C12.2266 14.5312 12.3438 14.4531 12.4609 14.3359L17.7344 9.0625L15.9375 7.26562L10.6641 12.5391C10.5469 12.6562 10.4688 12.7734 10.4297 12.9297ZM10.3125 5C10.8203 5 11.25 5.42969 11.25 5.9375C11.25 6.48438 10.8203 6.875 10.3125 6.875H5.9375C5.03906 6.875 4.375 7.57812 4.375 8.4375V19.0625C4.375 19.9609 5.03906 20.625 5.9375 20.625H16.5625C17.4219 20.625 18.125 19.9609 18.125 19.0625V14.6875C18.125 14.1797 18.5156 13.75 19.0625 13.75C19.5703 13.75 20 14.1797 20 14.6875V19.0625C20 20.9766 18.4375 22.5 16.5625 22.5H5.9375C4.02344 22.5 2.5 20.9766 2.5 19.0625V8.4375C2.5 6.5625 4.02344 5 5.9375 5H10.3125Z" fill="#202020"/>
</svg>
