<svg width="25" height="26" viewBox="0 0 25 26" fill="none" xmlns="http://www.w3.org/2000/svg">
<path d="M24.2866 19.1406L23.1616 23.875C23.021 24.5781 22.4585 25.0469 21.7554 25.0469C9.94287 25 0.333496 15.3906 0.333496 3.57812C0.333496 2.875 0.755371 2.3125 1.4585 2.17188L6.19287 1.04688C6.84912 0.90625 7.55225 1.28125 7.8335 1.89062L10.0366 7C10.271 7.60938 10.1304 8.3125 9.61475 8.6875L7.0835 10.75C8.67725 13.9844 11.3022 16.6094 14.5835 18.2031L16.646 15.6719C17.021 15.2031 17.7241 15.0156 18.3335 15.25L23.4429 17.4531C24.0522 17.7812 24.4272 18.4844 24.2866 19.1406Z" fill="#202020"/>
</svg>
