<svg width="14" height="20" viewBox="0 0 14 20" fill="none" xmlns="http://www.w3.org/2000/svg">
<path d="M8.6942 1.02065C11.1585 1.02065 13.1607 2.98437 13.1607 5.44866C13.1607 7.14286 12.1981 8.68304 10.6964 9.45312L7.61607 11.2628V12.0714C7.61607 12.7645 7.0385 13.3036 6.38393 13.3036C5.69085 13.3036 5.15179 12.7645 5.15179 12.0714V10.5312C5.15179 10.1077 5.34431 9.72266 5.72935 9.49163L9.50279 7.29687C10.2729 6.91183 10.6964 6.21875 10.6964 5.44866C10.6964 4.37054 9.77232 3.48493 8.6942 3.48493H4.53571C3.84263 3.48493 3.30357 4.02399 3.30357 4.71708C3.30357 5.33315 2.726 5.91071 2.07143 5.91071C1.37835 5.91071 0.839285 5.37165 0.839285 4.71708C0.839285 2.67634 2.49498 1.02065 4.53571 1.02065H8.6942ZM6.38393 15.1518C7.23103 15.1518 7.92411 15.8834 7.92411 16.692C7.92411 17.5391 7.23103 18.2321 6.38393 18.2321C5.49833 18.2321 4.84375 17.5776 4.84375 16.692C4.84375 15.8449 5.49833 15.1518 6.38393 15.1518Z" fill="#202020"/>
</svg>
