<svg width="18" height="17" viewBox="0 0 18 17" fill="none" xmlns="http://www.w3.org/2000/svg">
<path d="M16.625 14.375C17.0938 14.875 17.0938 15.6562 16.625 16.1562C16.125 16.625 15.3438 16.625 14.8438 16.1562L11.125 12.4062C9.84375 13.25 8.28125 13.6875 6.59375 13.4688C3.71875 13.0625 1.40625 10.7188 1.03125 7.875C0.5 3.625 4.09375 0.03125 8.34375 0.5625C11.1875 0.9375 13.5312 3.25 13.9375 6.125C14.1562 7.8125 13.7188 9.375 12.875 10.625L16.625 14.375ZM3.46875 7C3.46875 9.21875 5.25 11 7.46875 11C9.65625 11 11.4688 9.21875 11.4688 7C11.4688 4.8125 9.65625 3 7.46875 3C5.25 3 3.46875 4.8125 3.46875 7Z" fill="#202020"/>
</svg>
