<svg width="25" height="24" viewBox="0 0 25 24" fill="none" xmlns="http://www.w3.org/2000/svg">
<path d="M12.3333 0C12.5208 0 12.7551 0.09375 12.9426 0.140625L21.7551 3.89062C22.7864 4.35938 23.5833 5.34375 23.5833 6.5625C23.5364 11.25 21.6145 19.7344 13.552 23.625C12.7551 24 11.8645 24 11.0676 23.625C3.00513 19.7344 1.08325 11.25 1.03638 6.5625C1.03638 5.34375 1.83325 4.35938 2.8645 3.89062L11.677 0.140625C11.8645 0.09375 12.0989 0 12.3333 0ZM12.3333 20.8594C18.7551 17.7188 20.5364 10.8281 20.5833 6.65625L12.3333 3.14062V20.8594Z" fill="#202020"/>
</svg>
