<svg width="17" height="16" viewBox="0 0 17 16" fill="none" xmlns="http://www.w3.org/2000/svg">
<path d="M5 13C5.53125 13 6 13.4688 6 14C6 14.5625 5.53125 15 5 15H3C1.3125 15 0 13.6875 0 12V4C0 2.34375 1.3125 1 3 1H5C5.53125 1 6 1.46875 6 2C6 2.5625 5.53125 3 5 3H3C2.4375 3 2 3.46875 2 4V12C2 12.5625 2.4375 13 3 13H5ZM15.6875 7.3125C16.0938 7.6875 16.0938 8.34375 15.6875 8.71875L11.6875 12.7188C11.3125 13.125 10.6562 13.125 10.2812 12.7188C9.875 12.3438 9.875 11.6875 10.2812 11.3125L12.5625 9H6C5.4375 9 5 8.5625 5 8C5 7.46875 5.4375 7 6 7H12.5625L10.2812 4.71875C9.875 4.34375 9.875 3.6875 10.2812 3.3125C10.6562 2.90625 11.3125 2.90625 11.6875 3.3125L15.6875 7.3125Z" fill="#202020"/>
</svg>
