<svg width="25" height="24" viewBox="0 0 25 24" fill="none" xmlns="http://www.w3.org/2000/svg">
<path d="M9.61987 10.5L9.66675 15.75C9.66675 16.5938 8.96362 17.25 8.16675 17.25H7.41675C5.72925 17.25 4.41675 15.9375 4.41675 14.25V12.0469C4.41675 10.3594 5.72925 9 7.41675 9H8.11987C8.91675 9 9.61987 9.70312 9.61987 10.5ZM12.6667 0C19.3699 0 24.4324 5.625 24.6667 12V18.75C24.6667 21.0469 22.7917 22.875 20.5417 22.875H15.3386C14.9636 23.5781 14.2136 24 13.4167 24H11.8699C10.5105 24 9.43237 22.7812 9.66675 21.3281C9.90112 20.25 10.8855 19.5 11.9636 19.5H13.4167C14.2136 19.5 14.9636 19.9688 15.3386 20.625H20.5417C21.573 20.625 22.4167 19.8281 22.4167 18.75V12C22.4167 6.65625 18.0105 2.29688 12.6667 2.29688C7.27612 2.29688 2.91675 6.65625 2.91675 12V13.875C2.91675 14.5312 2.30737 15 1.74487 15C1.1355 15 0.666748 14.5312 0.666748 13.875V12C0.854248 5.625 5.91675 0 12.6667 0ZM17.9167 17.25H17.1667C16.323 17.25 15.6667 16.5938 15.6667 15.75V10.5469C15.6667 9.70312 16.323 9 17.1667 9H17.9167C19.5574 9 20.9167 10.3594 20.9167 12.0469V14.25C20.9167 15.9375 19.5574 17.25 17.9167 17.25Z" fill="#202020"/>
</svg>
