<svg width="32" height="32" viewBox="0 0 32 32" fill="none" xmlns="http://www.w3.org/2000/svg">
<path d="M21.75 21.375C22.0938 21.8125 22.0625 22.4375 21.625 22.7812C21.4375 22.9375 21.2188 23 21 23C20.6875 23 20.4062 22.9062 20.2188 22.6562L16 17.5625L11.75 22.625C11.5625 22.875 11.2812 23 11 23C10.75 23 10.5312 22.9062 10.3438 22.75C9.90625 22.4062 9.875 21.7812 10.2188 21.3438L14.6875 16L10.2188 10.6562C9.875 10.2188 9.90625 9.59375 10.3438 9.25C10.7812 8.90625 11.4062 8.9375 11.75 9.375L16 14.4375L20.2188 9.375C20.5625 8.9375 21.1875 8.90625 21.625 9.25C22.0625 9.59375 22.0938 10.2188 21.75 10.6562L17.2812 16L21.75 21.375Z" fill="white"/>
</svg>
